<svg version="1.1" xmlns="http://www.w3.org/2000/svg" xmlns:xlink="http://www.w3.org/1999/xlink" width="580" height="200"><defs><clipPath id="phndvATacbaT"><path fill="none" stroke="none" d="M 38.5 10.5 L 550.5 10.5 L 550.5 176.5 L 38.5 176.5 L 38.5 10.5"/></clipPath><clipPath id="WdDVlTIyzXvt"><path fill="none" stroke="none" d="M 38.5 10.5 L 550.5 10.5 L 550.5 176.5 L 38.5 176.5 L 38.5 10.5"/></clipPath><clipPath id="xKysSxBEwWTJ"><path fill="none" stroke="none" d="M 38.5 10.5 L 550.5 10.5 L 550.5 176.5 L 38.5 176.5 L 38.5 10.5"/></clipPath><clipPath id="DaSmQAVXlvAy"><path fill="none" stroke="none" d="M 38.5 10.5 L 550.5 10.5 L 550.5 176.5 L 38.5 176.5 L 38.5 10.5"/></clipPath><clipPath id="SQrlCgyiotbc"><path fill="none" stroke="none" d="M 38.5 10.5 L 550.5 10.5 L 550.5 176.5 L 38.5 176.5 L 38.5 10.5"/></clipPath><clipPath id="utdWOABRGUrB"><path fill="none" stroke="none" d="M 38.5 10.5 L 550.5 10.5 L 550.5 176.5 L 38.5 176.5 L 38.5 10.5"/></clipPath><clipPath id="FCkfBDOaDJEo"><path fill="none" stroke="none" d="M 38.5 10.5 L 550.5 10.5 L 550.5 176.5 L 38.5 176.5 L 38.5 10.5"/></clipPath><clipPath id="dIrJfHVglMIk"><path fill="none" stroke="none" d="M 38.5 10.5 L 550.5 10.5 L 550.5 176.5 L 38.5 176.5 L 38.5 10.5"/></clipPath><clipPath id="wdibQOVQGhFZ"><path fill="none" stroke="none" d="M 38.5 10.5 L 550.5 10.5 L 550.5 176.5 L 38.5 176.5 L 38.5 10.5"/></clipPath><clipPath id="TZPPMBvCChBG"><path fill="none" stroke="none" d="M 38.5 10.5 L 550.5 10.5 L 550.5 176.5 L 38.5 176.5 L 38.5 10.5"/></clipPath><clipPath id="waEQXhQevJav"><path fill="none" stroke="none" d="M 38.5 10.5 L 550.5 10.5 L 550.5 176.5 L 38.5 176.5 L 38.5 10.5"/></clipPath><clipPath id="OPulrPBRZgcf"><path fill="none" stroke="none" d="M 38.5 10.5 L 550.5 10.5 L 550.5 176.5 L 38.5 176.5 L 38.5 10.5"/></clipPath><clipPath id="WuhnvHOkAwUu"><path fill="none" stroke="none" d="M 38.5 10.5 L 550.5 10.5 L 550.5 176.5 L 38.5 176.5 L 38.5 10.5"/></clipPath><clipPath id="FIHqkJVyncVN"><path fill="none" stroke="none" d="M 38.5 10.5 L 550.5 10.5 L 550.5 176.5 L 38.5 176.5 L 38.5 10.5"/></clipPath><clipPath id="zCcIKAXIWOHp"><path fill="none" stroke="none" d="M 38.5 10.5 L 550.5 10.5 L 550.5 176.5 L 38.5 176.5 L 38.5 10.5"/></clipPath><clipPath id="nlhdFXPnGTCc"><path fill="none" stroke="none" d="M 38.5 10.5 L 550.5 10.5 L 550.5 176.5 L 38.5 176.5 L 38.5 10.5"/></clipPath><clipPath id="aKqxiCcGVDsf"><path fill="none" stroke="none" d="M 38.5 10.5 L 550.5 10.5 L 550.5 176.5 L 38.5 176.5 L 38.5 10.5"/></clipPath><clipPath id="IAiRrAQwGIqX"><path fill="none" stroke="none" d="M 38.5 10.5 L 550.5 10.5 L 550.5 176.5 L 38.5 176.5 L 38.5 10.5"/></clipPath><clipPath id="aIWyzLWrtPOr"><path fill="none" stroke="none" d="M 38.5 10.5 L 550.5 10.5 L 550.5 176.5 L 38.5 176.5 L 38.5 10.5"/></clipPath><clipPath id="QuQyIWgwPyPQ"><path fill="none" stroke="none" d="M 38.5 10.5 L 550.5 10.5 L 550.5 176.5 L 38.5 176.5 L 38.5 10.5"/></clipPath><clipPath id="ZPJbtMegXncB"><path fill="none" stroke="none" d="M 38.5 10.5 L 550.5 10.5 L 550.5 176.5 L 38.5 176.5 L 38.5 10.5"/></clipPath><clipPath id="rCPiOKzXswLD"><path fill="none" stroke="none" d="M 38.5 10.5 L 550.5 10.5 L 550.5 176.5 L 38.5 176.5 L 38.5 10.5"/></clipPath><clipPath id="FwTHTzRSMvhb"><path fill="none" stroke="none" d="M 38.5 10.5 L 550.5 10.5 L 550.5 176.5 L 38.5 176.5 L 38.5 10.5"/></clipPath></defs><path fill="rgb(255,255,255)" stroke="none" paint-order="stroke" d="M 0.5 0.5 L 580.5 0.5 L 580.5 200.5 L 0.5 200.5 L 0.5 0.5" fill-opacity="1"/><rect fill="#FFFFFF" stroke="none" x="38" y="10" width="512" height="166" transform="matrix(1, 0, 0, 1, 0.5, 0.5)"/><path fill="rgb(255,255,255)" stroke="none" paint-order="stroke" d="M 38.5 10.5 L 550.5 10.5 L 550.5 176.5 L 38.5 176.5 L 38.5 10.5" fill-opacity="1"/><path fill="none" stroke="rgb(229,229,229)" paint-order="fill" d="M 38.5 10.5 L 550.5 10.5 L 550.5 176.5 L 38.5 176.5 L 38.5 10.5" stroke-opacity="1" stroke-linejoin="bevel" stroke-miterlimit="10" stroke-dasharray=""/><path fill="none" stroke="none"/><path fill="rgb(48,162,218)" stroke="none" paint-order="stroke" d="M 102.5 172.6484832763672 L 102.49998474121094 171.71038818359375 L 102.49993896484375 170.77227783203125 L 102.49980163574219 169.8341827392578 L 102.49940490722656 168.89608764648438 L 102.49830627441406 167.95799255371094 L 102.4954833984375 167.0198974609375 L 102.48872375488281 166.081787109375 L 102.47362518310547 165.14369201660156 L 102.44218444824219 164.20559692382812 L 102.38108825683594 163.2675018310547 L 102.27030944824219 162.3293914794922 L 102.08277893066406 161.39129638671875 L 101.78608703613281 160.4532012939453 L 101.34672546386719 159.51510620117188 L 100.73570251464844 158.57701110839844 L 99.93350219726562 157.63890075683594 L 98.93074035644531 156.7008056640625 L 97.72244262695312 155.76271057128906 L 96.29698181152344 154.82461547851562 L 94.62527465820312 153.8865203857422 L 92.65853118896484 152.9484100341797 L 90.34115600585938 152.01031494140625 L 87.63835144042969 151.0722198486328 L 84.56794738769531 150.1341094970703 L 81.22012329101562 149.19601440429688 L 77.75055694580078 148.25791931152344 L 74.34413146972656 147.31982421875 L 71.16194152832031 146.38172912597656 L 68.29463958740234 145.44361877441406 L 65.74395751953125 144.50552368164062 L 63.440895080566406 143.5674285888672 L 61.291015625 142.62933349609375 L 59.22526931762695 141.6912384033203 L 57.23414611816406 140.7531280517578 L 55.373695373535156 139.81503295898438 L 53.7461051940918 138.87693786621094 L 52.467132568359375 137.9388427734375 L 51.63368225097656 137.00074768066406 L 51.29999923706055 136.06263732910156 L 51.46477127075195 135.12454223632812 L 52.068443298339844 134.1864471435547 L 53.00031280517578 133.2483367919922 L 54.116310119628906 132.31024169921875 L 55.26771545410156 131.3721466064453 L 56.3376350402832 130.43405151367188 L 57.27691650390625 129.49595642089844 L 58.12759780883789 128.55784606933594 L 59.022857666015625 127.6197509765625 L 60.15899658203125 126.68165588378906 L 61.74477767944336 125.74356079101562 L 63.94244384765625 124.80545806884766 L 66.81843566894531 123.86736297607422 L 70.31859588623047 122.92926025390625 L 74.2745361328125 121.99116516113281 L 78.43772888183594 121.05307006835938 L 82.53009796142578 120.1149673461914 L 86.29608154296875 119.17687225341797 L 89.54273986816406 118.23876953125 L 92.15992736816406 117.30066680908203 L 94.1203384399414 116.36257934570312 L 95.46563720703125 115.42447662353516 L 96.2867660522461 114.48638153076172 L 96.70494842529297 113.54827880859375 L 96.85533142089844 112.61018371582031 L 96.87223815917969 111.67208099365234 L 96.87480163574219 110.7339859008789 L 96.95346069335938 109.79588317871094 L 97.16012573242188 108.85778045654297 L 97.5052490234375 107.91968536376953 L 97.96319580078125 106.98158264160156 L 98.48469543457031 106.04349517822266 L 99.01280212402344 105.10538482666016 L 99.4979248046875 104.16729736328125 L 99.90821838378906 103.22919464111328 L 100.23348999023438 102.29109954833984 L 100.4829330444336 101.35299682617188 L 100.67855834960938 100.41490173339844 L 100.84693145751953 99.47679901123047 L 101.011474609375 98.53870391845703 L 101.1872329711914 97.60060119628906 L 101.37860107421875 96.66250610351562 L 101.58029174804688 95.72440338134766 L 101.78065490722656 94.78631591796875 L 101.96615600585938 93.84821319580078 L 102.12556457519531 92.91011810302734 L 102.25251770019531 91.97201538085938 L 102.34622192382812 91.0339126586914 L 102.41032409667969 90.09581756591797 L 102.45098876953125 89.15771484375 L 102.47492980957031 88.21961975097656 L 102.48800659179688 87.2815170288086 L 102.49463653564453 86.34342193603516 L 102.49775695800781 85.40531921386719 L 102.49913024902344 84.46723175048828 L 102.49967956542969 83.52912139892578 L 102.49989318847656 82.59103393554688 L 102.49996948242188 81.6529312133789 L 102.49998474121094 80.71483612060547 L 102.5 79.7767333984375 L 102.5 79.7767333984375 L 102.50000762939453 80.71483612060547 L 102.50003814697266 81.6529312133789 L 102.50010681152344 82.59103393554688 L 102.50032043457031 83.52912139892578 L 102.5008773803711 84.46723175048828 L 102.50224304199219 85.40531921386719 L 102.50536346435547 86.34342193603516 L 102.51199340820312 87.2815170288086 L 102.52507019042969 88.21961975097656 L 102.54900360107422 89.15771484375 L 102.58967590332031 90.09581756591797 L 102.6537857055664 91.0339126586914 L 102.74748229980469 91.97201538085938 L 102.87443542480469 92.91011810302734 L 103.03384399414062 93.84821319580078 L 103.21935272216797 94.78631591796875 L 103.41970825195312 95.72440338134766 L 103.62139892578125 96.66250610351562 L 103.8127670288086 97.60060119628906 L 103.98851776123047 98.53870391845703 L 104.15306854248047 99.47679901123047 L 104.3214340209961 100.41490173339844 L 104.5170669555664 101.35299682617188 L 104.76651000976562 102.29109954833984 L 105.09178161621094 103.22919464111328 L 105.5020751953125 104.16729736328125 L 105.98719787597656 105.10538482666016 L 106.51530456542969 106.04349517822266 L 107.03680419921875 106.98158264160156 L 107.4947509765625 107.91968536376953 L 107.83987426757812 108.85778045654297 L 108.04653930664062 109.79588317871094 L 108.12519836425781 110.7339859008789 L 108.12776947021484 111.67208099365234 L 108.1446762084961 112.61018371582031 L 108.29505157470703 113.54827880859375 L 108.7132339477539 114.48638153076172 L 109.53436279296875 115.42447662353516 L 110.8796615600586 116.36257934570312 L 112.84007263183594 117.30066680908203 L 115.4572525024414 118.23876953125 L 118.70391845703125 119.17687225341797 L 122.46990203857422 120.1149673461914 L 126.56227111816406 121.05307006835938 L 130.7254638671875 121.99116516113281 L 134.681396484375 122.92926025390625 L 138.1815643310547 123.86736297607422 L 141.05755615234375 124.80545806884766 L 143.25521850585938 125.74356079101562 L 144.84100341796875 126.68165588378906 L 145.97714233398438 127.6197509765625 L 146.87240600585938 128.55784606933594 L 147.72308349609375 129.49595642089844 L 148.66236877441406 130.43405151367188 L 149.73228454589844 131.3721466064453 L 150.88369750976562 132.31024169921875 L 151.99969482421875 133.2483367919922 L 152.93154907226562 134.1864471435547 L 153.53521728515625 135.12454223632812 L 153.6999969482422 136.06263732910156 L 153.36631774902344 137.00074768066406 L 152.53286743164062 137.9388427734375 L 151.25389099121094 138.87693786621094 L 149.62631225585938 139.81503295898438 L 147.76585388183594 140.7531280517578 L 145.7747344970703 141.6912384033203 L 143.708984375 142.62933349609375 L 141.55911254882812 143.5674285888672 L 139.25604248046875 144.50552368164062 L 136.70535278320312 145.44361877441406 L 133.8380584716797 146.38172912597656 L 130.65586853027344 147.31982421875 L 127.24944305419922 148.25791931152344 L 123.77987670898438 149.19601440429688 L 120.43205261230469 150.1341094970703 L 117.36164855957031 151.0722198486328 L 114.65884399414062 152.01031494140625 L 112.34146881103516 152.9484100341797 L 110.37472534179688 153.8865203857422 L 108.70301818847656 154.82461547851562 L 107.2775650024414 155.76271057128906 L 106.06925964355469 156.7008056640625 L 105.06649780273438 157.63890075683594 L 104.26429748535156 158.57701110839844 L 103.65327453613281 159.51510620117188 L 103.21390533447266 160.4532012939453 L 102.91722106933594 161.39129638671875 L 102.72968292236328 162.3293914794922 L 102.61890411376953 163.2675018310547 L 102.55781555175781 164.20559692382812 L 102.52637481689453 165.14369201660156 L 102.51128387451172 166.081787109375 L 102.50452423095703 167.0198974609375 L 102.50169372558594 167.95799255371094 L 102.50059509277344 168.89608764648438 L 102.50019836425781 169.8341827392578 L 102.50006103515625 170.77227783203125 L 102.50001525878906 171.71038818359375 L 102.50000762939453 172.6484832763672 Z" fill-opacity="0.5" clip-path="url(#xKysSxBEwWTJ)"/><path fill="none" stroke="none"/><path fill="none" stroke="rgb(0,0,0)" paint-order="fill" d="M 102.5 172.6484832763672 L 102.49998474121094 171.71038818359375 L 102.49993896484375 170.77227783203125 L 102.49980163574219 169.8341827392578 L 102.49940490722656 168.89608764648438 L 102.49830627441406 167.95799255371094 L 102.4954833984375 167.0198974609375 L 102.48872375488281 166.081787109375 L 102.47362518310547 165.14369201660156 L 102.44218444824219 164.20559692382812 L 102.38108825683594 163.2675018310547 L 102.27030944824219 162.3293914794922 L 102.08277893066406 161.39129638671875 L 101.78608703613281 160.4532012939453 L 101.34672546386719 159.51510620117188 L 100.73570251464844 158.57701110839844 L 99.93350219726562 157.63890075683594 L 98.93074035644531 156.7008056640625 L 97.72244262695312 155.76271057128906 L 96.29698181152344 154.82461547851562 L 94.62527465820312 153.8865203857422 L 92.65853118896484 152.9484100341797 L 90.34115600585938 152.01031494140625 L 87.63835144042969 151.0722198486328 L 84.56794738769531 150.1341094970703 L 81.22012329101562 149.19601440429688 L 77.75055694580078 148.25791931152344 L 74.34413146972656 147.31982421875 L 71.16194152832031 146.38172912597656 L 68.29463958740234 145.44361877441406 L 65.74395751953125 144.50552368164062 L 63.440895080566406 143.5674285888672 L 61.291015625 142.62933349609375 L 59.22526931762695 141.6912384033203 L 57.23414611816406 140.7531280517578 L 55.373695373535156 139.81503295898438 L 53.7461051940918 138.87693786621094 L 52.467132568359375 137.9388427734375 L 51.63368225097656 137.00074768066406 L 51.29999923706055 136.06263732910156 L 51.46477127075195 135.12454223632812 L 52.068443298339844 134.1864471435547 L 53.00031280517578 133.2483367919922 L 54.116310119628906 132.31024169921875 L 55.26771545410156 131.3721466064453 L 56.3376350402832 130.43405151367188 L 57.27691650390625 129.49595642089844 L 58.12759780883789 128.55784606933594 L 59.022857666015625 127.6197509765625 L 60.15899658203125 126.68165588378906 L 61.74477767944336 125.74356079101562 L 63.94244384765625 124.80545806884766 L 66.81843566894531 123.86736297607422 L 70.31859588623047 122.92926025390625 L 74.2745361328125 121.99116516113281 L 78.43772888183594 121.05307006835938 L 82.53009796142578 120.1149673461914 L 86.29608154296875 119.17687225341797 L 89.54273986816406 118.23876953125 L 92.15992736816406 117.30066680908203 L 94.1203384399414 116.36257934570312 L 95.46563720703125 115.42447662353516 L 96.2867660522461 114.48638153076172 L 96.70494842529297 113.54827880859375 L 96.85533142089844 112.61018371582031 L 96.87223815917969 111.67208099365234 L 96.87480163574219 110.7339859008789 L 96.95346069335938 109.79588317871094 L 97.16012573242188 108.85778045654297 L 97.5052490234375 107.91968536376953 L 97.96319580078125 106.98158264160156 L 98.48469543457031 106.04349517822266 L 99.01280212402344 105.10538482666016 L 99.4979248046875 104.16729736328125 L 99.90821838378906 103.22919464111328 L 100.23348999023438 102.29109954833984 L 100.4829330444336 101.35299682617188 L 100.67855834960938 100.41490173339844 L 100.84693145751953 99.47679901123047 L 101.011474609375 98.53870391845703 L 101.1872329711914 97.60060119628906 L 101.37860107421875 96.66250610351562 L 101.58029174804688 95.72440338134766 L 101.78065490722656 94.78631591796875 L 101.96615600585938 93.84821319580078 L 102.12556457519531 92.91011810302734 L 102.25251770019531 91.97201538085938 L 102.34622192382812 91.0339126586914 L 102.41032409667969 90.09581756591797 L 102.45098876953125 89.15771484375 L 102.47492980957031 88.21961975097656 L 102.48800659179688 87.2815170288086 L 102.49463653564453 86.34342193603516 L 102.49775695800781 85.40531921386719 L 102.49913024902344 84.46723175048828 L 102.49967956542969 83.52912139892578 L 102.49989318847656 82.59103393554688 L 102.49996948242188 81.6529312133789 L 102.49998474121094 80.71483612060547 L 102.5 79.7767333984375 L 102.5 79.7767333984375 L 102.50000762939453 80.71483612060547 L 102.50003814697266 81.6529312133789 L 102.50010681152344 82.59103393554688 L 102.50032043457031 83.52912139892578 L 102.5008773803711 84.46723175048828 L 102.50224304199219 85.40531921386719 L 102.50536346435547 86.34342193603516 L 102.51199340820312 87.2815170288086 L 102.52507019042969 88.21961975097656 L 102.54900360107422 89.15771484375 L 102.58967590332031 90.09581756591797 L 102.6537857055664 91.0339126586914 L 102.74748229980469 91.97201538085938 L 102.87443542480469 92.91011810302734 L 103.03384399414062 93.84821319580078 L 103.21935272216797 94.78631591796875 L 103.41970825195312 95.72440338134766 L 103.62139892578125 96.66250610351562 L 103.8127670288086 97.60060119628906 L 103.98851776123047 98.53870391845703 L 104.15306854248047 99.47679901123047 L 104.3214340209961 100.41490173339844 L 104.5170669555664 101.35299682617188 L 104.76651000976562 102.29109954833984 L 105.09178161621094 103.22919464111328 L 105.5020751953125 104.16729736328125 L 105.98719787597656 105.10538482666016 L 106.51530456542969 106.04349517822266 L 107.03680419921875 106.98158264160156 L 107.4947509765625 107.91968536376953 L 107.83987426757812 108.85778045654297 L 108.04653930664062 109.79588317871094 L 108.12519836425781 110.7339859008789 L 108.12776947021484 111.67208099365234 L 108.1446762084961 112.61018371582031 L 108.29505157470703 113.54827880859375 L 108.7132339477539 114.48638153076172 L 109.53436279296875 115.42447662353516 L 110.8796615600586 116.36257934570312 L 112.84007263183594 117.30066680908203 L 115.4572525024414 118.23876953125 L 118.70391845703125 119.17687225341797 L 122.46990203857422 120.1149673461914 L 126.56227111816406 121.05307006835938 L 130.7254638671875 121.99116516113281 L 134.681396484375 122.92926025390625 L 138.1815643310547 123.86736297607422 L 141.05755615234375 124.80545806884766 L 143.25521850585938 125.74356079101562 L 144.84100341796875 126.68165588378906 L 145.97714233398438 127.6197509765625 L 146.87240600585938 128.55784606933594 L 147.72308349609375 129.49595642089844 L 148.66236877441406 130.43405151367188 L 149.73228454589844 131.3721466064453 L 150.88369750976562 132.31024169921875 L 151.99969482421875 133.2483367919922 L 152.93154907226562 134.1864471435547 L 153.53521728515625 135.12454223632812 L 153.6999969482422 136.06263732910156 L 153.36631774902344 137.00074768066406 L 152.53286743164062 137.9388427734375 L 151.25389099121094 138.87693786621094 L 149.62631225585938 139.81503295898438 L 147.76585388183594 140.7531280517578 L 145.7747344970703 141.6912384033203 L 143.708984375 142.62933349609375 L 141.55911254882812 143.5674285888672 L 139.25604248046875 144.50552368164062 L 136.70535278320312 145.44361877441406 L 133.8380584716797 146.38172912597656 L 130.65586853027344 147.31982421875 L 127.24944305419922 148.25791931152344 L 123.77987670898438 149.19601440429688 L 120.43205261230469 150.1341094970703 L 117.36164855957031 151.0722198486328 L 114.65884399414062 152.01031494140625 L 112.34146881103516 152.9484100341797 L 110.37472534179688 153.8865203857422 L 108.70301818847656 154.82461547851562 L 107.2775650024414 155.76271057128906 L 106.06925964355469 156.7008056640625 L 105.06649780273438 157.63890075683594 L 104.26429748535156 158.57701110839844 L 103.65327453613281 159.51510620117188 L 103.21390533447266 160.4532012939453 L 102.91722106933594 161.39129638671875 L 102.72968292236328 162.3293914794922 L 102.61890411376953 163.2675018310547 L 102.55781555175781 164.20559692382812 L 102.52637481689453 165.14369201660156 L 102.51128387451172 166.081787109375 L 102.50452423095703 167.0198974609375 L 102.50169372558594 167.95799255371094 L 102.50059509277344 168.89608764648438 L 102.50019836425781 169.8341827392578 L 102.50006103515625 170.77227783203125 L 102.50001525878906 171.71038818359375 L 102.50000762939453 172.6484832763672" stroke-opacity="1" stroke-linejoin="bevel" stroke-miterlimit="10" stroke-dasharray="" clip-path="url(#DaSmQAVXlvAy)"/><path fill="none" stroke="none"/><path fill="none" stroke="rgb(0,0,0)" paint-order="fill" d="M 102.5 154.88739013671875 L 102.5 105.16941833496094" stroke-opacity="1" stroke-linejoin="bevel" stroke-miterlimit="10" stroke-dasharray="" clip-path="url(#SQrlCgyiotbc)"/><path fill="none" stroke="none"/><path fill="rgb(0,0,0)" stroke="none" paint-order="stroke" d="M 96.0999984741211 126.47862243652344 L 108.9000015258789 126.47862243652344 L 108.9000015258789 140.7343292236328 L 96.0999984741211 140.7343292236328 L 96.0999984741211 126.47862243652344" fill-opacity="1" clip-path="url(#utdWOABRGUrB)"/><path fill="none" stroke="rgb(0,0,0)" paint-order="fill" d="M 96.0999984741211 126.47862243652344 L 108.9000015258789 126.47862243652344 L 108.9000015258789 140.7343292236328 L 96.0999984741211 140.7343292236328 L 96.0999984741211 126.47862243652344" stroke-opacity="1" stroke-linejoin="bevel" stroke-miterlimit="10" stroke-dasharray="" clip-path="url(#utdWOABRGUrB)"/><path fill="none" stroke="none"/><path fill="rgb(255,255,255)" stroke="rgb(255,255,255)" paint-order="fill" d="M 104.5 134.5158233642578 A 2 2 0 1 1 104.49999900000009 134.51382336459113" fill-opacity="1" clip-path="url(#FCkfBDOaDJEo)" stroke-opacity="1" stroke-linejoin="bevel" stroke-miterlimit="10" stroke-dasharray=""/><path fill="none" stroke="none"/><path fill="rgb(252,79,48)" stroke="none" paint-order="stroke" d="M 230.49996948242188 118.7413330078125 L 230.4999237060547 117.7439193725586 L 230.49984741210938 116.74651336669922 L 230.49969482421875 115.74909210205078 L 230.4993896484375 114.7516860961914 L 230.49880981445312 113.7542724609375 L 230.49774169921875 112.75686645507812 L 230.4958038330078 111.75944519042969 L 230.4923858642578 110.76203918457031 L 230.4865264892578 109.7646255493164 L 230.4766845703125 108.76720428466797 L 230.46060180664062 107.7697982788086 L 230.4349365234375 106.77238464355469 L 230.39500427246094 105.77497863769531 L 230.33438110351562 104.7775650024414 L 230.24461364746094 103.78015899658203 L 230.1149139404297 102.7827377319336 L 229.93202209472656 101.78533172607422 L 229.68020629882812 100.78791809082031 L 229.34156799316406 99.79049682617188 L 228.896484375 98.7930908203125 L 228.32427978515625 97.7956771850586 L 227.60409545898438 96.79827117919922 L 226.71556091308594 95.80084991455078 L 225.6395721435547 94.8034439086914 L 224.35862731933594 93.8060302734375 L 222.8570098876953 92.80862426757812 L 221.12086486816406 91.81121063232422 L 219.13833618164062 90.81378936767578 L 216.90016174316406 89.8163833618164 L 214.4010772705078 88.8189697265625 L 211.6423797607422 87.82156372070312 L 208.63546752929688 86.82414245605469 L 205.4061279296875 85.82673645019531 L 201.99888610839844 84.8293228149414 L 198.48023986816406 83.8319091796875 L 194.9397430419922 82.83450317382812 L 191.4877471923828 81.83708190917969 L 188.24945068359375 80.83967590332031 L 185.35520935058594 79.8422622680664 L 182.92807006835938 78.84485626220703 L 181.07046508789062 77.8474349975586 L 179.85189819335938 76.85002899169922 L 179.3000030517578 75.85261535644531 L 179.396728515625 74.85519409179688 L 180.08056640625 73.8577880859375 L 181.25454711914062 72.8603744506836 L 182.79876708984375 71.86296844482422 L 184.58544921875 70.86555480957031 L 186.49374389648438 69.86814880371094 L 188.42227172851562 68.8707275390625 L 190.29725646972656 67.87332153320312 L 192.07557678222656 66.87590789794922 L 193.74295043945312 65.87848663330078 L 195.30819702148438 64.8810806274414 L 196.7952117919922 63.8836669921875 L 198.23458862304688 62.886260986328125 L 199.65618896484375 61.88884353637695 L 201.0841827392578 60.89143753051758 L 202.534423828125 59.894020080566406 L 204.01443481445312 58.896602630615234 L 205.5250701904297 57.89919662475586 L 207.0629119873047 56.90177917480469 L 208.6226806640625 55.90437316894531 L 210.1989288330078 54.906959533691406 L 211.7865447998047 53.90955352783203 L 213.38040161132812 52.91213607788086 L 214.97415161132812 51.914730072021484 L 216.55906677246094 50.91731262207031 L 218.12298583984375 49.91989517211914 L 219.65013122558594 48.922489166259766 L 221.12168884277344 47.925071716308594 L 222.51730346679688 46.92766571044922 L 223.81690979003906 45.93024826049805 L 225.00286865234375 44.93284225463867 L 226.06178283691406 43.935428619384766 L 226.9857635498047 42.93802261352539 L 227.77294921875 41.94060516357422 L 228.42735290527344 40.94318771362305 L 228.95791625976562 39.94578170776367 L 229.37734985351562 38.9483642578125 L 229.7005615234375 37.950958251953125 L 229.94332885742188 36.95354080200195 L 230.1210479736328 35.95613479614258 L 230.24786376953125 34.958717346191406 L 230.3360595703125 33.961299896240234 L 230.39585876464844 32.96389389038086 L 230.43536376953125 31.96647834777832 L 230.46080017089844 30.969072341918945 L 230.47679138183594 29.971656799316406 L 230.486572265625 28.97425079345703 L 230.49241638183594 27.97683334350586 L 230.49581909179688 26.979427337646484 L 230.49774169921875 25.982009887695312 L 230.49880981445312 24.984603881835938 L 230.4993896484375 23.9871768951416 L 230.49969482421875 22.989770889282227 L 230.49984741210938 21.99236488342285 L 230.4999237060547 20.994958877563477 L 230.49996948242188 19.997529983520508 L 230.50003051757812 19.997529983520508 L 230.5000762939453 20.994958877563477 L 230.50015258789062 21.99236488342285 L 230.50030517578125 22.989770889282227 L 230.5006103515625 23.9871768951416 L 230.50119018554688 24.984603881835938 L 230.50225830078125 25.982009887695312 L 230.50418090820312 26.979427337646484 L 230.50758361816406 27.97683334350586 L 230.513427734375 28.97425079345703 L 230.52320861816406 29.971656799316406 L 230.53919982910156 30.969072341918945 L 230.56463623046875 31.96647834777832 L 230.60414123535156 32.96389389038086 L 230.6639404296875 33.961299896240234 L 230.75213623046875 34.958717346191406 L 230.8789520263672 35.95613479614258 L 231.05667114257812 36.95354080200195 L 231.2994384765625 37.950958251953125 L 231.62265014648438 38.9483642578125 L 232.04208374023438 39.94578170776367 L 232.57264709472656 40.94318771362305 L 233.22705078125 41.94060516357422 L 234.0142364501953 42.93802261352539 L 234.93821716308594 43.935428619384766 L 235.99713134765625 44.93284225463867 L 237.18309020996094 45.93024826049805 L 238.48269653320312 46.92766571044922 L 239.87831115722656 47.925071716308594 L 241.34986877441406 48.922489166259766 L 242.87701416015625 49.91989517211914 L 244.44093322753906 50.91731262207031 L 246.02584838867188 51.914730072021484 L 247.61959838867188 52.91213607788086 L 249.2134552001953 53.90955352783203 L 250.8010711669922 54.906959533691406 L 252.3773193359375 55.90437316894531 L 253.9370880126953 56.90177917480469 L 255.4749298095703 57.89919662475586 L 256.9855651855469 58.896602630615234 L 258.465576171875 59.894020080566406 L 259.91583251953125 60.89143753051758 L 261.34381103515625 61.88884353637695 L 262.7654113769531 62.886260986328125 L 264.20477294921875 63.8836669921875 L 265.6918029785156 64.8810806274414 L 267.2570495605469 65.87848663330078 L 268.9244384765625 66.87590789794922 L 270.7027587890625 67.87332153320312 L 272.5777282714844 68.8707275390625 L 274.5062561035156 69.86814880371094 L 276.41455078125 70.86555480957031 L 278.20123291015625 71.86296844482422 L 279.7454528808594 72.8603744506836 L 280.91943359375 73.8577880859375 L 281.603271484375 74.85519409179688 L 281.70001220703125 75.85261535644531 L 281.1481018066406 76.85002899169922 L 279.9295349121094 77.8474349975586 L 278.0719299316406 78.84485626220703 L 275.644775390625 79.8422622680664 L 272.75054931640625 80.83967590332031 L 269.51226806640625 81.83708190917969 L 266.06024169921875 82.83450317382812 L 262.519775390625 83.8319091796875 L 259.0010986328125 84.8293228149414 L 255.5938720703125 85.82673645019531 L 252.36453247070312 86.82414245605469 L 249.3576202392578 87.82156372070312 L 246.5989227294922 88.8189697265625 L 244.09983825683594 89.8163833618164 L 241.86166381835938 90.81378936767578 L 239.87913513183594 91.81121063232422 L 238.1429901123047 92.80862426757812 L 236.64137268066406 93.8060302734375 L 235.3604278564453 94.8034439086914 L 234.28443908691406 95.80084991455078 L 233.39590454101562 96.79827117919922 L 232.67572021484375 97.7956771850586 L 232.103515625 98.7930908203125 L 231.65843200683594 99.79049682617188 L 231.31979370117188 100.78791809082031 L 231.06797790527344 101.78533172607422 L 230.8850860595703 102.7827377319336 L 230.75538635253906 103.78015899658203 L 230.66561889648438 104.7775650024414 L 230.60499572753906 105.77497863769531 L 230.5650634765625 106.77238464355469 L 230.53939819335938 107.7697982788086 L 230.5233154296875 108.76720428466797 L 230.5134735107422 109.7646255493164 L 230.5076141357422 110.76203918457031 L 230.5041961669922 111.75944519042969 L 230.50225830078125 112.75686645507812 L 230.50119018554688 113.7542724609375 L 230.5006103515625 114.7516860961914 L 230.50030517578125 115.74909210205078 L 230.50015258789062 116.74651336669922 L 230.5000762939453 117.7439193725586 L 230.50003051757812 118.7413330078125 Z" fill-opacity="0.5" clip-path="url(#dIrJfHVglMIk)"/><path fill="none" stroke="none"/><path fill="none" stroke="rgb(0,0,0)" paint-order="fill" d="M 230.49996948242188 118.7413330078125 L 230.4999237060547 117.7439193725586 L 230.49984741210938 116.74651336669922 L 230.49969482421875 115.74909210205078 L 230.4993896484375 114.7516860961914 L 230.49880981445312 113.7542724609375 L 230.49774169921875 112.75686645507812 L 230.4958038330078 111.75944519042969 L 230.4923858642578 110.76203918457031 L 230.4865264892578 109.7646255493164 L 230.4766845703125 108.76720428466797 L 230.46060180664062 107.7697982788086 L 230.4349365234375 106.77238464355469 L 230.39500427246094 105.77497863769531 L 230.33438110351562 104.7775650024414 L 230.24461364746094 103.78015899658203 L 230.1149139404297 102.7827377319336 L 229.93202209472656 101.78533172607422 L 229.68020629882812 100.78791809082031 L 229.34156799316406 99.79049682617188 L 228.896484375 98.7930908203125 L 228.32427978515625 97.7956771850586 L 227.60409545898438 96.79827117919922 L 226.71556091308594 95.80084991455078 L 225.6395721435547 94.8034439086914 L 224.35862731933594 93.8060302734375 L 222.8570098876953 92.80862426757812 L 221.12086486816406 91.81121063232422 L 219.13833618164062 90.81378936767578 L 216.90016174316406 89.8163833618164 L 214.4010772705078 88.8189697265625 L 211.6423797607422 87.82156372070312 L 208.63546752929688 86.82414245605469 L 205.4061279296875 85.82673645019531 L 201.99888610839844 84.8293228149414 L 198.48023986816406 83.8319091796875 L 194.9397430419922 82.83450317382812 L 191.4877471923828 81.83708190917969 L 188.24945068359375 80.83967590332031 L 185.35520935058594 79.8422622680664 L 182.92807006835938 78.84485626220703 L 181.07046508789062 77.8474349975586 L 179.85189819335938 76.85002899169922 L 179.3000030517578 75.85261535644531 L 179.396728515625 74.85519409179688 L 180.08056640625 73.8577880859375 L 181.25454711914062 72.8603744506836 L 182.79876708984375 71.86296844482422 L 184.58544921875 70.86555480957031 L 186.49374389648438 69.86814880371094 L 188.42227172851562 68.8707275390625 L 190.29725646972656 67.87332153320312 L 192.07557678222656 66.87590789794922 L 193.74295043945312 65.87848663330078 L 195.30819702148438 64.8810806274414 L 196.7952117919922 63.8836669921875 L 198.23458862304688 62.886260986328125 L 199.65618896484375 61.88884353637695 L 201.0841827392578 60.89143753051758 L 202.534423828125 59.894020080566406 L 204.01443481445312 58.896602630615234 L 205.5250701904297 57.89919662475586 L 207.0629119873047 56.90177917480469 L 208.6226806640625 55.90437316894531 L 210.1989288330078 54.906959533691406 L 211.7865447998047 53.90955352783203 L 213.38040161132812 52.91213607788086 L 214.97415161132812 51.914730072021484 L 216.55906677246094 50.91731262207031 L 218.12298583984375 49.91989517211914 L 219.65013122558594 48.922489166259766 L 221.12168884277344 47.925071716308594 L 222.51730346679688 46.92766571044922 L 223.81690979003906 45.93024826049805 L 225.00286865234375 44.93284225463867 L 226.06178283691406 43.935428619384766 L 226.9857635498047 42.93802261352539 L 227.77294921875 41.94060516357422 L 228.42735290527344 40.94318771362305 L 228.95791625976562 39.94578170776367 L 229.37734985351562 38.9483642578125 L 229.7005615234375 37.950958251953125 L 229.94332885742188 36.95354080200195 L 230.1210479736328 35.95613479614258 L 230.24786376953125 34.958717346191406 L 230.3360595703125 33.961299896240234 L 230.39585876464844 32.96389389038086 L 230.43536376953125 31.96647834777832 L 230.46080017089844 30.969072341918945 L 230.47679138183594 29.971656799316406 L 230.486572265625 28.97425079345703 L 230.49241638183594 27.97683334350586 L 230.49581909179688 26.979427337646484 L 230.49774169921875 25.982009887695312 L 230.49880981445312 24.984603881835938 L 230.4993896484375 23.9871768951416 L 230.49969482421875 22.989770889282227 L 230.49984741210938 21.99236488342285 L 230.4999237060547 20.994958877563477 L 230.49996948242188 19.997529983520508 L 230.50003051757812 19.997529983520508 L 230.5000762939453 20.994958877563477 L 230.50015258789062 21.99236488342285 L 230.50030517578125 22.989770889282227 L 230.5006103515625 23.9871768951416 L 230.50119018554688 24.984603881835938 L 230.50225830078125 25.982009887695312 L 230.50418090820312 26.979427337646484 L 230.50758361816406 27.97683334350586 L 230.513427734375 28.97425079345703 L 230.52320861816406 29.971656799316406 L 230.53919982910156 30.969072341918945 L 230.56463623046875 31.96647834777832 L 230.60414123535156 32.96389389038086 L 230.6639404296875 33.961299896240234 L 230.75213623046875 34.958717346191406 L 230.8789520263672 35.95613479614258 L 231.05667114257812 36.95354080200195 L 231.2994384765625 37.950958251953125 L 231.62265014648438 38.9483642578125 L 232.04208374023438 39.94578170776367 L 232.57264709472656 40.94318771362305 L 233.22705078125 41.94060516357422 L 234.0142364501953 42.93802261352539 L 234.93821716308594 43.935428619384766 L 235.99713134765625 44.93284225463867 L 237.18309020996094 45.93024826049805 L 238.48269653320312 46.92766571044922 L 239.87831115722656 47.925071716308594 L 241.34986877441406 48.922489166259766 L 242.87701416015625 49.91989517211914 L 244.44093322753906 50.91731262207031 L 246.02584838867188 51.914730072021484 L 247.61959838867188 52.91213607788086 L 249.2134552001953 53.90955352783203 L 250.8010711669922 54.906959533691406 L 252.3773193359375 55.90437316894531 L 253.9370880126953 56.90177917480469 L 255.4749298095703 57.89919662475586 L 256.9855651855469 58.896602630615234 L 258.465576171875 59.894020080566406 L 259.91583251953125 60.89143753051758 L 261.34381103515625 61.88884353637695 L 262.7654113769531 62.886260986328125 L 264.20477294921875 63.8836669921875 L 265.6918029785156 64.8810806274414 L 267.2570495605469 65.87848663330078 L 268.9244384765625 66.87590789794922 L 270.7027587890625 67.87332153320312 L 272.5777282714844 68.8707275390625 L 274.5062561035156 69.86814880371094 L 276.41455078125 70.86555480957031 L 278.20123291015625 71.86296844482422 L 279.7454528808594 72.8603744506836 L 280.91943359375 73.8577880859375 L 281.603271484375 74.85519409179688 L 281.70001220703125 75.85261535644531 L 281.1481018066406 76.85002899169922 L 279.9295349121094 77.8474349975586 L 278.0719299316406 78.84485626220703 L 275.644775390625 79.8422622680664 L 272.75054931640625 80.83967590332031 L 269.51226806640625 81.83708190917969 L 266.06024169921875 82.83450317382812 L 262.519775390625 83.8319091796875 L 259.0010986328125 84.8293228149414 L 255.5938720703125 85.82673645019531 L 252.36453247070312 86.82414245605469 L 249.3576202392578 87.82156372070312 L 246.5989227294922 88.8189697265625 L 244.09983825683594 89.8163833618164 L 241.86166381835938 90.81378936767578 L 239.87913513183594 91.81121063232422 L 238.1429901123047 92.80862426757812 L 236.64137268066406 93.8060302734375 L 235.3604278564453 94.8034439086914 L 234.28443908691406 95.80084991455078 L 233.39590454101562 96.79827117919922 L 232.67572021484375 97.7956771850586 L 232.103515625 98.7930908203125 L 231.65843200683594 99.79049682617188 L 231.31979370117188 100.78791809082031 L 231.06797790527344 101.78533172607422 L 230.8850860595703 102.7827377319336 L 230.75538635253906 103.78015899658203 L 230.66561889648438 104.7775650024414 L 230.60499572753906 105.77497863769531 L 230.5650634765625 106.77238464355469 L 230.53939819335938 107.7697982788086 L 230.5233154296875 108.76720428466797 L 230.5134735107422 109.7646255493164 L 230.5076141357422 110.76203918457031 L 230.5041961669922 111.75944519042969 L 230.50225830078125 112.75686645507812 L 230.50119018554688 113.7542724609375 L 230.5006103515625 114.7516860961914 L 230.50030517578125 115.74909210205078 L 230.50015258789062 116.74651336669922 L 230.5000762939453 117.7439193725586 L 230.50003051757812 118.7413330078125" stroke-opacity="1" stroke-linejoin="bevel" stroke-miterlimit="10" stroke-dasharray="" clip-path="url(#wdibQOVQGhFZ)"/><path fill="none" stroke="none"/><path fill="none" stroke="rgb(0,0,0)" paint-order="fill" d="M 230.5 86.4599838256836 L 230.5 52.27888488769531" stroke-opacity="1" stroke-linejoin="bevel" stroke-miterlimit="10" stroke-dasharray="" clip-path="url(#TZPPMBvCChBG)"/><path fill="none" stroke="none"/><path fill="rgb(0,0,0)" stroke="none" paint-order="stroke" d="M 224.10000610351562 64.77291107177734 L 236.89999389648438 64.77291107177734 L 236.89999389648438 76.61126708984375 L 224.10000610351562 76.61126708984375 L 224.10000610351562 64.77291107177734" fill-opacity="1" clip-path="url(#waEQXhQevJav)"/><path fill="none" stroke="rgb(0,0,0)" paint-order="fill" d="M 224.10000610351562 64.77291107177734 L 236.89999389648438 64.77291107177734 L 236.89999389648438 76.61126708984375 L 224.10000610351562 76.61126708984375 L 224.10000610351562 64.77291107177734" stroke-opacity="1" stroke-linejoin="bevel" stroke-miterlimit="10" stroke-dasharray="" clip-path="url(#waEQXhQevJav)"/><path fill="none" stroke="none"/><path fill="rgb(255,255,255)" stroke="rgb(255,255,255)" paint-order="fill" d="M 232.5 75.0683822631836 A 2 2 0 1 1 232.4999990000001 75.06638226351693" fill-opacity="1" clip-path="url(#OPulrPBRZgcf)" stroke-opacity="1" stroke-linejoin="bevel" stroke-miterlimit="10" stroke-dasharray=""/><path fill="none" stroke="none"/><path fill="rgb(229,174,56)" stroke="none" paint-order="stroke" d="M 358.5 131.13784790039062 L 358.5 129.76858520507812 L 358.4999694824219 128.39933013916016 L 358.4999084472656 127.03006744384766 L 358.499755859375 125.66081237792969 L 358.4993591308594 124.29155731201172 L 358.4984436035156 122.92230224609375 L 358.4964599609375 121.55303955078125 L 358.4923095703125 120.18378448486328 L 358.4841613769531 118.81452178955078 L 358.46893310546875 117.44526672363281 L 358.44207763671875 116.07600402832031 L 358.39691162109375 114.70675659179688 L 358.3243103027344 113.33749389648438 L 358.2120361328125 111.96823120117188 L 358.0438537597656 110.5989761352539 L 357.79791259765625 109.2297134399414 L 357.4442443847656 107.8604507446289 L 356.9417724609375 106.49120330810547 L 356.2358703613281 105.12194061279297 L 355.25799560546875 103.752685546875 L 353.9298095703125 102.3834228515625 L 352.1728820800781 101.01416015625 L 349.92376708984375 99.64491271972656 L 347.1517639160156 98.27565002441406 L 343.8743896484375 96.90638732910156 L 340.16571044921875 95.5371322631836 L 336.152587890625 94.1678695678711 L 331.9991760253906 92.79862213134766 L 327.88262939453125 91.42935943603516 L 323.9670715332031 90.06009674072266 L 320.3829650878906 88.69084167480469 L 317.21722412109375 87.32157897949219 L 314.51385498046875 85.95231628417969 L 312.28240966796875 84.58306884765625 L 310.50823974609375 83.21380615234375 L 309.16156005859375 81.84455108642578 L 308.20391845703125 80.47528839111328 L 307.5948181152344 79.10602569580078 L 307.29998779296875 77.73677825927734 L 307.3016662597656 76.36751556396484 L 307.6072998046875 74.99825286865234 L 308.25244140625 73.62899780273438 L 309.2936706542969 72.25973510742188 L 310.7922058105469 70.89048767089844 L 312.791748046875 69.52122497558594 L 315.2972412109375 68.15196228027344 L 318.260986328125 66.78270721435547 L 321.5799560546875 65.41344451904297 L 325.1041564941406 64.04418563842773 L 328.65380859375 62.67493438720703 L 332.0410461425781 61.30567169189453 L 335.0931396484375 59.93642044067383 L 337.67474365234375 58.56715774536133 L 339.70684814453125 57.19789505004883 L 341.1801452636719 55.828643798828125 L 342.1587829589844 54.459381103515625 L 342.7717590332031 53.090118408203125 L 343.19091796875 51.72086715698242 L 343.5984802246094 50.35160446166992 L 344.151611328125 48.98235321044922 L 344.9523620605469 47.61309051513672 L 346.0307922363281 46.24382781982422 L 347.3451843261719 44.874576568603516 L 348.7973937988281 43.505313873291016 L 350.2589416503906 42.136051177978516 L 351.59954833984375 40.76679992675781 L 352.71221923828125 39.39753723144531 L 353.53021240234375 38.02828598022461 L 354.0340881347656 36.65902328491211 L 354.2498779296875 35.28976058959961 L 354.24017333984375 33.920509338378906 L 354.0909423828125 32.551246643066406 L 353.8966369628906 31.18198585510254 L 353.7455139160156 29.812734603881836 L 353.7073974609375 28.443471908569336 L 353.82489013671875 27.074220657348633 L 354.10968017578125 25.704957962036133 L 354.54400634765625 24.335695266723633 L 355.0872497558594 22.966432571411133 L 355.68597412109375 21.597192764282227 L 356.2850341796875 20.227930068969727 L 356.83758544921875 18.858667373657227 L 357.3114013671875 17.489404678344727 L 357.6911315917969 16.120142936706543 L 357.9764709472656 14.750880241394043 L 358.1779479980469 13.381640434265137 L 358.3117980957031 12.012377738952637 L 358.3955993652344 10.643115043640137 L 358.4450378417969 9.273852348327637 L 358.4725646972656 7.904590129852295 L 358.48699951171875 6.5353498458862305 L 358.4941711425781 5.1660871505737305 L 358.4975280761719 3.7968249320983887 L 358.4989929199219 2.4275623559951782 L 358.4996337890625 1.058299958705902 L 358.4998474121094 -0.3109404444694519 L 358.49993896484375 -1.6802029609680176 L 358.5 -3.0494654178619385 L 358.5 -4.418727874755859 L 358.5 -4.418727874755859 L 358.5 -3.0494654178619385 L 358.50006103515625 -1.6802029609680176 L 358.5001525878906 -0.3109404444694519 L 358.5003662109375 1.058299958705902 L 358.5010070800781 2.4275623559951782 L 358.5024719238281 3.7968249320983887 L 358.5058288574219 5.1660871505737305 L 358.51300048828125 6.5353498458862305 L 358.5274353027344 7.904590129852295 L 358.5549621582031 9.273852348327637 L 358.6044006347656 10.643115043640137 L 358.6882019042969 12.012377738952637 L 358.8220520019531 13.381640434265137 L 359.0235290527344 14.750880241394043 L 359.3088684082031 16.120142936706543 L 359.6885986328125 17.489404678344727 L 360.16241455078125 18.858667373657227 L 360.7149658203125 20.227930068969727 L 361.31402587890625 21.597192764282227 L 361.9127502441406 22.966432571411133 L 362.45599365234375 24.335695266723633 L 362.89031982421875 25.704957962036133 L 363.17510986328125 27.074220657348633 L 363.2926025390625 28.443471908569336 L 363.2544860839844 29.812734603881836 L 363.1033630371094 31.18198585510254 L 362.9090576171875 32.551246643066406 L 362.75982666015625 33.920509338378906 L 362.7501220703125 35.28976058959961 L 362.9659118652344 36.65902328491211 L 363.46978759765625 38.02828598022461 L 364.28778076171875 39.39753723144531 L 365.40045166015625 40.76679992675781 L 366.7410583496094 42.136051177978516 L 368.2026062011719 43.505313873291016 L 369.6548156738281 44.874576568603516 L 370.9692077636719 46.24382781982422 L 372.0476379394531 47.61309051513672 L 372.848388671875 48.98235321044922 L 373.4015197753906 50.35160446166992 L 373.80908203125 51.72086715698242 L 374.2282409667969 53.090118408203125 L 374.8412170410156 54.459381103515625 L 375.8198547363281 55.828643798828125 L 377.29315185546875 57.19789505004883 L 379.32525634765625 58.56715774536133 L 381.9068603515625 59.93642044067383 L 384.9589538574219 61.30567169189453 L 388.34619140625 62.67493438720703 L 391.8958435058594 64.04418563842773 L 395.4200439453125 65.41344451904297 L 398.739013671875 66.78270721435547 L 401.7027587890625 68.15196228027344 L 404.208251953125 69.52122497558594 L 406.2077941894531 70.89048767089844 L 407.7063293457031 72.25973510742188 L 408.74755859375 73.62899780273438 L 409.3927001953125 74.99825286865234 L 409.6983337402344 76.36751556396484 L 409.70001220703125 77.73677825927734 L 409.4051818847656 79.10602569580078 L 408.79608154296875 80.47528839111328 L 407.83843994140625 81.84455108642578 L 406.49176025390625 83.21380615234375 L 404.71759033203125 84.58306884765625 L 402.48614501953125 85.95231628417969 L 399.78277587890625 87.32157897949219 L 396.6170349121094 88.69084167480469 L 393.0329284667969 90.06009674072266 L 389.11737060546875 91.42935943603516 L 385.0008239746094 92.79862213134766 L 380.847412109375 94.1678695678711 L 376.83428955078125 95.5371322631836 L 373.1256103515625 96.90638732910156 L 369.8482360839844 98.27565002441406 L 367.07623291015625 99.64491271972656 L 364.8271179199219 101.01416015625 L 363.0701904296875 102.3834228515625 L 361.74200439453125 103.752685546875 L 360.7641296386719 105.12194061279297 L 360.0582275390625 106.49120330810547 L 359.5557556152344 107.8604507446289 L 359.20208740234375 109.2297134399414 L 358.9561462402344 110.5989761352539 L 358.7879638671875 111.96823120117188 L 358.6756896972656 113.33749389648438 L 358.60308837890625 114.70675659179688 L 358.55792236328125 116.07600402832031 L 358.53106689453125 117.44526672363281 L 358.5158386230469 118.81452178955078 L 358.5076904296875 120.18378448486328 L 358.5035400390625 121.55303955078125 L 358.5015563964844 122.92230224609375 L 358.5006408691406 124.29155731201172 L 358.500244140625 125.66081237792969 L 358.5000915527344 127.03006744384766 L 358.5000305175781 128.39933013916016 L 358.5 129.76858520507812 L 358.5 131.13784790039062 Z" fill-opacity="0.5" clip-path="url(#WuhnvHOkAwUu)"/><path fill="none" stroke="none"/><path fill="none" stroke="rgb(0,0,0)" paint-order="fill" d="M 358.5 131.13784790039062 L 358.5 129.76858520507812 L 358.4999694824219 128.39933013916016 L 358.4999084472656 127.03006744384766 L 358.499755859375 125.66081237792969 L 358.4993591308594 124.29155731201172 L 358.4984436035156 122.92230224609375 L 358.4964599609375 121.55303955078125 L 358.4923095703125 120.18378448486328 L 358.4841613769531 118.81452178955078 L 358.46893310546875 117.44526672363281 L 358.44207763671875 116.07600402832031 L 358.39691162109375 114.70675659179688 L 358.3243103027344 113.33749389648438 L 358.2120361328125 111.96823120117188 L 358.0438537597656 110.5989761352539 L 357.79791259765625 109.2297134399414 L 357.4442443847656 107.8604507446289 L 356.9417724609375 106.49120330810547 L 356.2358703613281 105.12194061279297 L 355.25799560546875 103.752685546875 L 353.9298095703125 102.3834228515625 L 352.1728820800781 101.01416015625 L 349.92376708984375 99.64491271972656 L 347.1517639160156 98.27565002441406 L 343.8743896484375 96.90638732910156 L 340.16571044921875 95.5371322631836 L 336.152587890625 94.1678695678711 L 331.9991760253906 92.79862213134766 L 327.88262939453125 91.42935943603516 L 323.9670715332031 90.06009674072266 L 320.3829650878906 88.69084167480469 L 317.21722412109375 87.32157897949219 L 314.51385498046875 85.95231628417969 L 312.28240966796875 84.58306884765625 L 310.50823974609375 83.21380615234375 L 309.16156005859375 81.84455108642578 L 308.20391845703125 80.47528839111328 L 307.5948181152344 79.10602569580078 L 307.29998779296875 77.73677825927734 L 307.3016662597656 76.36751556396484 L 307.6072998046875 74.99825286865234 L 308.25244140625 73.62899780273438 L 309.2936706542969 72.25973510742188 L 310.7922058105469 70.89048767089844 L 312.791748046875 69.52122497558594 L 315.2972412109375 68.15196228027344 L 318.260986328125 66.78270721435547 L 321.5799560546875 65.41344451904297 L 325.1041564941406 64.04418563842773 L 328.65380859375 62.67493438720703 L 332.0410461425781 61.30567169189453 L 335.0931396484375 59.93642044067383 L 337.67474365234375 58.56715774536133 L 339.70684814453125 57.19789505004883 L 341.1801452636719 55.828643798828125 L 342.1587829589844 54.459381103515625 L 342.7717590332031 53.090118408203125 L 343.19091796875 51.72086715698242 L 343.5984802246094 50.35160446166992 L 344.151611328125 48.98235321044922 L 344.9523620605469 47.61309051513672 L 346.0307922363281 46.24382781982422 L 347.3451843261719 44.874576568603516 L 348.7973937988281 43.505313873291016 L 350.2589416503906 42.136051177978516 L 351.59954833984375 40.76679992675781 L 352.71221923828125 39.39753723144531 L 353.53021240234375 38.02828598022461 L 354.0340881347656 36.65902328491211 L 354.2498779296875 35.28976058959961 L 354.24017333984375 33.920509338378906 L 354.0909423828125 32.551246643066406 L 353.8966369628906 31.18198585510254 L 353.7455139160156 29.812734603881836 L 353.7073974609375 28.443471908569336 L 353.82489013671875 27.074220657348633 L 354.10968017578125 25.704957962036133 L 354.54400634765625 24.335695266723633 L 355.0872497558594 22.966432571411133 L 355.68597412109375 21.597192764282227 L 356.2850341796875 20.227930068969727 L 356.83758544921875 18.858667373657227 L 357.3114013671875 17.489404678344727 L 357.6911315917969 16.120142936706543 L 357.9764709472656 14.750880241394043 L 358.1779479980469 13.381640434265137 L 358.3117980957031 12.012377738952637 L 358.3955993652344 10.643115043640137 L 358.4450378417969 9.273852348327637 L 358.4725646972656 7.904590129852295 L 358.48699951171875 6.5353498458862305 L 358.4941711425781 5.1660871505737305 L 358.4975280761719 3.7968249320983887 L 358.4989929199219 2.4275623559951782 L 358.4996337890625 1.058299958705902 L 358.4998474121094 -0.3109404444694519 L 358.49993896484375 -1.6802029609680176 L 358.5 -3.0494654178619385 L 358.5 -4.418727874755859 L 358.5 -4.418727874755859 L 358.5 -3.0494654178619385 L 358.50006103515625 -1.6802029609680176 L 358.5001525878906 -0.3109404444694519 L 358.5003662109375 1.058299958705902 L 358.5010070800781 2.4275623559951782 L 358.5024719238281 3.7968249320983887 L 358.5058288574219 5.1660871505737305 L 358.51300048828125 6.5353498458862305 L 358.5274353027344 7.904590129852295 L 358.5549621582031 9.273852348327637 L 358.6044006347656 10.643115043640137 L 358.6882019042969 12.012377738952637 L 358.8220520019531 13.381640434265137 L 359.0235290527344 14.750880241394043 L 359.3088684082031 16.120142936706543 L 359.6885986328125 17.489404678344727 L 360.16241455078125 18.858667373657227 L 360.7149658203125 20.227930068969727 L 361.31402587890625 21.597192764282227 L 361.9127502441406 22.966432571411133 L 362.45599365234375 24.335695266723633 L 362.89031982421875 25.704957962036133 L 363.17510986328125 27.074220657348633 L 363.2926025390625 28.443471908569336 L 363.2544860839844 29.812734603881836 L 363.1033630371094 31.18198585510254 L 362.9090576171875 32.551246643066406 L 362.75982666015625 33.920509338378906 L 362.7501220703125 35.28976058959961 L 362.9659118652344 36.65902328491211 L 363.46978759765625 38.02828598022461 L 364.28778076171875 39.39753723144531 L 365.40045166015625 40.76679992675781 L 366.7410583496094 42.136051177978516 L 368.2026062011719 43.505313873291016 L 369.6548156738281 44.874576568603516 L 370.9692077636719 46.24382781982422 L 372.0476379394531 47.61309051513672 L 372.848388671875 48.98235321044922 L 373.4015197753906 50.35160446166992 L 373.80908203125 51.72086715698242 L 374.2282409667969 53.090118408203125 L 374.8412170410156 54.459381103515625 L 375.8198547363281 55.828643798828125 L 377.29315185546875 57.19789505004883 L 379.32525634765625 58.56715774536133 L 381.9068603515625 59.93642044067383 L 384.9589538574219 61.30567169189453 L 388.34619140625 62.67493438720703 L 391.8958435058594 64.04418563842773 L 395.4200439453125 65.41344451904297 L 398.739013671875 66.78270721435547 L 401.7027587890625 68.15196228027344 L 404.208251953125 69.52122497558594 L 406.2077941894531 70.89048767089844 L 407.7063293457031 72.25973510742188 L 408.74755859375 73.62899780273438 L 409.3927001953125 74.99825286865234 L 409.6983337402344 76.36751556396484 L 409.70001220703125 77.73677825927734 L 409.4051818847656 79.10602569580078 L 408.79608154296875 80.47528839111328 L 407.83843994140625 81.84455108642578 L 406.49176025390625 83.21380615234375 L 404.71759033203125 84.58306884765625 L 402.48614501953125 85.95231628417969 L 399.78277587890625 87.32157897949219 L 396.6170349121094 88.69084167480469 L 393.0329284667969 90.06009674072266 L 389.11737060546875 91.42935943603516 L 385.0008239746094 92.79862213134766 L 380.847412109375 94.1678695678711 L 376.83428955078125 95.5371322631836 L 373.1256103515625 96.90638732910156 L 369.8482360839844 98.27565002441406 L 367.07623291015625 99.64491271972656 L 364.8271179199219 101.01416015625 L 363.0701904296875 102.3834228515625 L 361.74200439453125 103.752685546875 L 360.7641296386719 105.12194061279297 L 360.0582275390625 106.49120330810547 L 359.5557556152344 107.8604507446289 L 359.20208740234375 109.2297134399414 L 358.9561462402344 110.5989761352539 L 358.7879638671875 111.96823120117188 L 358.6756896972656 113.33749389648438 L 358.60308837890625 114.70675659179688 L 358.55792236328125 116.07600402832031 L 358.53106689453125 117.44526672363281 L 358.5158386230469 118.81452178955078 L 358.5076904296875 120.18378448486328 L 358.5035400390625 121.55303955078125 L 358.5015563964844 122.92230224609375 L 358.5006408691406 124.29155731201172 L 358.500244140625 125.66081237792969 L 358.5000915527344 127.03006744384766 L 358.5000305175781 128.39933013916016 L 358.5 129.76858520507812 L 358.5 131.13784790039062" stroke-opacity="1" stroke-linejoin="bevel" stroke-miterlimit="10" stroke-dasharray="" clip-path="url(#FIHqkJVyncVN)"/><path fill="none" stroke="none"/><path fill="none" stroke="rgb(0,0,0)" paint-order="fill" d="M 358.5 102.38578796386719 L 358.5 41.810062408447266" stroke-opacity="1" stroke-linejoin="bevel" stroke-miterlimit="10" stroke-dasharray="" clip-path="url(#zCcIKAXIWOHp)"/><path fill="none" stroke="none"/><path fill="rgb(0,0,0)" stroke="none" paint-order="stroke" d="M 352.1000061035156 66.03512573242188 L 364.8999938964844 66.03512573242188 L 364.8999938964844 82.50209045410156 L 352.1000061035156 82.50209045410156 L 352.1000061035156 66.03512573242188" fill-opacity="1" clip-path="url(#nlhdFXPnGTCc)"/><path fill="none" stroke="rgb(0,0,0)" paint-order="fill" d="M 352.1000061035156 66.03512573242188 L 364.8999938964844 66.03512573242188 L 364.8999938964844 82.50209045410156 L 352.1000061035156 82.50209045410156 L 352.1000061035156 66.03512573242188" stroke-opacity="1" stroke-linejoin="bevel" stroke-miterlimit="10" stroke-dasharray="" clip-path="url(#nlhdFXPnGTCc)"/><path fill="none" stroke="none"/><path fill="rgb(255,255,255)" stroke="rgb(255,255,255)" paint-order="fill" d="M 360.5 74.23045349121094 A 2 2 0 1 1 360.49999900000006 74.22845349154427" fill-opacity="1" clip-path="url(#aKqxiCcGVDsf)" stroke-opacity="1" stroke-linejoin="bevel" stroke-miterlimit="10" stroke-dasharray=""/><path fill="none" stroke="none"/><path fill="rgb(109,144,79)" stroke="none" paint-order="stroke" d="M 486.5 186.605224609375 L 486.5 185.52732849121094 L 486.4999694824219 184.4494171142578 L 486.4998779296875 183.37152099609375 L 486.49969482421875 182.29360961914062 L 486.4992370605469 181.21571350097656 L 486.4981994628906 180.13780212402344 L 486.4958801269531 179.0598907470703 L 486.4910583496094 177.98199462890625 L 486.4814147949219 176.90408325195312 L 486.4632263183594 175.82618713378906 L 486.4303894042969 174.74827575683594 L 486.3740234375 173.67037963867188 L 486.2818603515625 172.59246826171875 L 486.1382141113281 171.51455688476562 L 485.9247741699219 170.43666076660156 L 485.6220397949219 169.35874938964844 L 485.2119140625 168.28085327148438 L 484.6805114746094 167.20294189453125 L 484.0208740234375 166.1250457763672 L 483.2347106933594 165.04713439941406 L 482.3322448730469 163.96922302246094 L 481.33001708984375 162.89132690429688 L 480.24700927734375 161.81341552734375 L 479.09893798828125 160.7355194091797 L 477.89306640625 159.65760803222656 L 476.6238098144531 158.5797119140625 L 475.2709655761719 157.50180053710938 L 473.8008728027344 156.42388916015625 L 472.17144775390625 155.3459930419922 L 470.33917236328125 154.26808166503906 L 468.2677917480469 153.190185546875 L 465.93585205078125 152.11227416992188 L 463.34124755859375 151.0343780517578 L 460.50274658203125 149.9564666748047 L 457.45794677734375 148.87857055664062 L 454.2606201171875 147.8006591796875 L 450.9793395996094 146.72274780273438 L 447.69879150390625 145.6448516845703 L 444.5235595703125 144.5669403076172 L 441.5816955566406 143.48904418945312 L 439.02447509765625 142.4111328125 L 437.018798828125 141.33323669433594 L 435.7304992675781 140.2553253173828 L 435.29998779296875 139.1774139404297 L 435.8143005371094 138.09951782226562 L 437.282470703125 137.0216064453125 L 439.6214599609375 135.94371032714844 L 442.6588134765625 134.8657989501953 L 446.1531677246094 133.78790283203125 L 449.8295593261719 132.70999145507812 L 453.4216613769531 131.632080078125 L 456.71014404296875 130.55418395996094 L 459.54931640625 129.4762725830078 L 461.8766784667969 128.39837646484375 L 463.70672607421875 127.32046508789062 L 465.11328125 126.24256134033203 L 466.2068786621094 125.16465759277344 L 467.11224365234375 124.08675384521484 L 467.9491271972656 123.00884246826172 L 468.8175354003906 121.93094635009766 L 469.78759765625 120.85304260253906 L 470.8936767578125 119.77513122558594 L 472.13323974609375 118.69722747802734 L 473.4706115722656 117.61933135986328 L 474.8451232910156 116.54141998291016 L 476.1835021972656 115.46350860595703 L 477.4136047363281 114.38561248779297 L 478.4782409667969 113.30770874023438 L 479.3455505371094 112.22979736328125 L 480.014404296875 111.15189361572266 L 480.5132141113281 110.0739974975586 L 480.8926086425781 108.99608612060547 L 481.213623046875 107.91817474365234 L 481.5343933105469 106.84027862548828 L 481.8987121582031 105.76237487792969 L 482.32904052734375 104.68446350097656 L 482.8250427246094 103.60655975341797 L 483.3673400878906 102.5286636352539 L 483.9248962402344 101.45075225830078 L 484.4635009765625 100.37284088134766 L 484.9530944824219 99.2949447631836 L 485.3728332519531 98.217041015625 L 485.7129211425781 97.13912963867188 L 485.9737548828125 96.06123352050781 L 486.1633605957031 94.98332977294922 L 486.2940673828125 93.9054183959961 L 486.3796081542969 92.82750701904297 L 486.43280029296875 91.7496109008789 L 486.46417236328125 90.67170715332031 L 486.4817810058594 89.59379577636719 L 486.49114990234375 88.51589965820312 L 486.49591064453125 87.43799591064453 L 486.4981994628906 86.3600845336914 L 486.4992370605469 85.28217315673828 L 486.49969482421875 84.20427703857422 L 486.4998779296875 83.12637329101562 L 486.4999694824219 82.0484619140625 L 486.5 80.97056579589844 L 486.5 79.89266204833984 L 486.5 79.89266204833984 L 486.5 80.97056579589844 L 486.5000305175781 82.0484619140625 L 486.5001220703125 83.12637329101562 L 486.50030517578125 84.20427703857422 L 486.5007629394531 85.28217315673828 L 486.5018005371094 86.3600845336914 L 486.50408935546875 87.43799591064453 L 486.50885009765625 88.51589965820312 L 486.5182189941406 89.59379577636719 L 486.53582763671875 90.67170715332031 L 486.56719970703125 91.7496109008789 L 486.6203918457031 92.82750701904297 L 486.7059326171875 93.9054183959961 L 486.8366394042969 94.98332977294922 L 487.0262451171875 96.06123352050781 L 487.2870788574219 97.13912963867188 L 487.6271667480469 98.217041015625 L 488.0469055175781 99.2949447631836 L 488.5364990234375 100.37284088134766 L 489.0751037597656 101.45075225830078 L 489.6326599121094 102.5286636352539 L 490.1749572753906 103.60655975341797 L 490.67095947265625 104.68446350097656 L 491.1012878417969 105.76237487792969 L 491.4656066894531 106.84027862548828 L 491.786376953125 107.91817474365234 L 492.1073913574219 108.99608612060547 L 492.4867858886719 110.0739974975586 L 492.985595703125 111.15189361572266 L 493.6544494628906 112.22979736328125 L 494.5217590332031 113.30770874023438 L 495.5863952636719 114.38561248779297 L 496.8164978027344 115.46350860595703 L 498.1548767089844 116.54141998291016 L 499.5293884277344 117.61933135986328 L 500.86676025390625 118.69722747802734 L 502.1063232421875 119.77513122558594 L 503.21240234375 120.85304260253906 L 504.1824645996094 121.93094635009766 L 505.0508728027344 123.00884246826172 L 505.88775634765625 124.08675384521484 L 506.7931213378906 125.16465759277344 L 507.88671875 126.24256134033203 L 509.29327392578125 127.32046508789062 L 511.1233215332031 128.39837646484375 L 513.45068359375 129.4762725830078 L 516.2898559570312 130.55418395996094 L 519.578369140625 131.632080078125 L 523.17041015625 132.70999145507812 L 526.8468017578125 133.78790283203125 L 530.3411865234375 134.8657989501953 L 533.3785400390625 135.94371032714844 L 535.717529296875 137.0216064453125 L 537.1856689453125 138.09951782226562 L 537.7000122070312 139.1774139404297 L 537.26953125 140.2553253173828 L 535.981201171875 141.33323669433594 L 533.9755249023438 142.4111328125 L 531.4183349609375 143.48904418945312 L 528.4764404296875 144.5669403076172 L 525.3012084960938 145.6448516845703 L 522.0206298828125 146.72274780273438 L 518.7393798828125 147.8006591796875 L 515.5420532226562 148.87857055664062 L 512.4972534179688 149.9564666748047 L 509.65875244140625 151.0343780517578 L 507.06414794921875 152.11227416992188 L 504.7322082519531 153.190185546875 L 502.66082763671875 154.26808166503906 L 500.82855224609375 155.3459930419922 L 499.1991271972656 156.42388916015625 L 497.7290344238281 157.50180053710938 L 496.3761901855469 158.5797119140625 L 495.10693359375 159.65760803222656 L 493.90106201171875 160.7355194091797 L 492.75299072265625 161.81341552734375 L 491.66998291015625 162.89132690429688 L 490.6677551269531 163.96922302246094 L 489.7652893066406 165.04713439941406 L 488.9791259765625 166.1250457763672 L 488.3194885253906 167.20294189453125 L 487.7880859375 168.28085327148438 L 487.3779602050781 169.35874938964844 L 487.0752258300781 170.43666076660156 L 486.8617858886719 171.51455688476562 L 486.7181396484375 172.59246826171875 L 486.6259765625 173.67037963867188 L 486.5696105957031 174.74827575683594 L 486.5367736816406 175.82618713378906 L 486.5185852050781 176.90408325195312 L 486.5089416503906 177.98199462890625 L 486.5041198730469 179.0598907470703 L 486.5018005371094 180.13780212402344 L 486.5007629394531 181.21571350097656 L 486.50030517578125 182.29360961914062 L 486.5001220703125 183.37152099609375 L 486.5000305175781 184.4494171142578 L 486.5 185.52732849121094 L 486.5 186.605224609375 Z" fill-opacity="0.5" clip-path="url(#IAiRrAQwGIqX)"/><path fill="none" stroke="none"/><path fill="none" stroke="rgb(0,0,0)" paint-order="fill" d="M 486.5 186.605224609375 L 486.5 185.52732849121094 L 486.4999694824219 184.4494171142578 L 486.4998779296875 183.37152099609375 L 486.49969482421875 182.29360961914062 L 486.4992370605469 181.21571350097656 L 486.4981994628906 180.13780212402344 L 486.4958801269531 179.0598907470703 L 486.4910583496094 177.98199462890625 L 486.4814147949219 176.90408325195312 L 486.4632263183594 175.82618713378906 L 486.4303894042969 174.74827575683594 L 486.3740234375 173.67037963867188 L 486.2818603515625 172.59246826171875 L 486.1382141113281 171.51455688476562 L 485.9247741699219 170.43666076660156 L 485.6220397949219 169.35874938964844 L 485.2119140625 168.28085327148438 L 484.6805114746094 167.20294189453125 L 484.0208740234375 166.1250457763672 L 483.2347106933594 165.04713439941406 L 482.3322448730469 163.96922302246094 L 481.33001708984375 162.89132690429688 L 480.24700927734375 161.81341552734375 L 479.09893798828125 160.7355194091797 L 477.89306640625 159.65760803222656 L 476.6238098144531 158.5797119140625 L 475.2709655761719 157.50180053710938 L 473.8008728027344 156.42388916015625 L 472.17144775390625 155.3459930419922 L 470.33917236328125 154.26808166503906 L 468.2677917480469 153.190185546875 L 465.93585205078125 152.11227416992188 L 463.34124755859375 151.0343780517578 L 460.50274658203125 149.9564666748047 L 457.45794677734375 148.87857055664062 L 454.2606201171875 147.8006591796875 L 450.9793395996094 146.72274780273438 L 447.69879150390625 145.6448516845703 L 444.5235595703125 144.5669403076172 L 441.5816955566406 143.48904418945312 L 439.02447509765625 142.4111328125 L 437.018798828125 141.33323669433594 L 435.7304992675781 140.2553253173828 L 435.29998779296875 139.1774139404297 L 435.8143005371094 138.09951782226562 L 437.282470703125 137.0216064453125 L 439.6214599609375 135.94371032714844 L 442.6588134765625 134.8657989501953 L 446.1531677246094 133.78790283203125 L 449.8295593261719 132.70999145507812 L 453.4216613769531 131.632080078125 L 456.71014404296875 130.55418395996094 L 459.54931640625 129.4762725830078 L 461.8766784667969 128.39837646484375 L 463.70672607421875 127.32046508789062 L 465.11328125 126.24256134033203 L 466.2068786621094 125.16465759277344 L 467.11224365234375 124.08675384521484 L 467.9491271972656 123.00884246826172 L 468.8175354003906 121.93094635009766 L 469.78759765625 120.85304260253906 L 470.8936767578125 119.77513122558594 L 472.13323974609375 118.69722747802734 L 473.4706115722656 117.61933135986328 L 474.8451232910156 116.54141998291016 L 476.1835021972656 115.46350860595703 L 477.4136047363281 114.38561248779297 L 478.4782409667969 113.30770874023438 L 479.3455505371094 112.22979736328125 L 480.014404296875 111.15189361572266 L 480.5132141113281 110.0739974975586 L 480.8926086425781 108.99608612060547 L 481.213623046875 107.91817474365234 L 481.5343933105469 106.84027862548828 L 481.8987121582031 105.76237487792969 L 482.32904052734375 104.68446350097656 L 482.8250427246094 103.60655975341797 L 483.3673400878906 102.5286636352539 L 483.9248962402344 101.45075225830078 L 484.4635009765625 100.37284088134766 L 484.9530944824219 99.2949447631836 L 485.3728332519531 98.217041015625 L 485.7129211425781 97.13912963867188 L 485.9737548828125 96.06123352050781 L 486.1633605957031 94.98332977294922 L 486.2940673828125 93.9054183959961 L 486.3796081542969 92.82750701904297 L 486.43280029296875 91.7496109008789 L 486.46417236328125 90.67170715332031 L 486.4817810058594 89.59379577636719 L 486.49114990234375 88.51589965820312 L 486.49591064453125 87.43799591064453 L 486.4981994628906 86.3600845336914 L 486.4992370605469 85.28217315673828 L 486.49969482421875 84.20427703857422 L 486.4998779296875 83.12637329101562 L 486.4999694824219 82.0484619140625 L 486.5 80.97056579589844 L 486.5 79.89266204833984 L 486.5 79.89266204833984 L 486.5 80.97056579589844 L 486.5000305175781 82.0484619140625 L 486.5001220703125 83.12637329101562 L 486.50030517578125 84.20427703857422 L 486.5007629394531 85.28217315673828 L 486.5018005371094 86.3600845336914 L 486.50408935546875 87.43799591064453 L 486.50885009765625 88.51589965820312 L 486.5182189941406 89.59379577636719 L 486.53582763671875 90.67170715332031 L 486.56719970703125 91.7496109008789 L 486.6203918457031 92.82750701904297 L 486.7059326171875 93.9054183959961 L 486.8366394042969 94.98332977294922 L 487.0262451171875 96.06123352050781 L 487.2870788574219 97.13912963867188 L 487.6271667480469 98.217041015625 L 488.0469055175781 99.2949447631836 L 488.5364990234375 100.37284088134766 L 489.0751037597656 101.45075225830078 L 489.6326599121094 102.5286636352539 L 490.1749572753906 103.60655975341797 L 490.67095947265625 104.68446350097656 L 491.1012878417969 105.76237487792969 L 491.4656066894531 106.84027862548828 L 491.786376953125 107.91817474365234 L 492.1073913574219 108.99608612060547 L 492.4867858886719 110.0739974975586 L 492.985595703125 111.15189361572266 L 493.6544494628906 112.22979736328125 L 494.5217590332031 113.30770874023438 L 495.5863952636719 114.38561248779297 L 496.8164978027344 115.46350860595703 L 498.1548767089844 116.54141998291016 L 499.5293884277344 117.61933135986328 L 500.86676025390625 118.69722747802734 L 502.1063232421875 119.77513122558594 L 503.21240234375 120.85304260253906 L 504.1824645996094 121.93094635009766 L 505.0508728027344 123.00884246826172 L 505.88775634765625 124.08675384521484 L 506.7931213378906 125.16465759277344 L 507.88671875 126.24256134033203 L 509.29327392578125 127.32046508789062 L 511.1233215332031 128.39837646484375 L 513.45068359375 129.4762725830078 L 516.2898559570312 130.55418395996094 L 519.578369140625 131.632080078125 L 523.17041015625 132.70999145507812 L 526.8468017578125 133.78790283203125 L 530.3411865234375 134.8657989501953 L 533.3785400390625 135.94371032714844 L 535.717529296875 137.0216064453125 L 537.1856689453125 138.09951782226562 L 537.7000122070312 139.1774139404297 L 537.26953125 140.2553253173828 L 535.981201171875 141.33323669433594 L 533.9755249023438 142.4111328125 L 531.4183349609375 143.48904418945312 L 528.4764404296875 144.5669403076172 L 525.3012084960938 145.6448516845703 L 522.0206298828125 146.72274780273438 L 518.7393798828125 147.8006591796875 L 515.5420532226562 148.87857055664062 L 512.4972534179688 149.9564666748047 L 509.65875244140625 151.0343780517578 L 507.06414794921875 152.11227416992188 L 504.7322082519531 153.190185546875 L 502.66082763671875 154.26808166503906 L 500.82855224609375 155.3459930419922 L 499.1991271972656 156.42388916015625 L 497.7290344238281 157.50180053710938 L 496.3761901855469 158.5797119140625 L 495.10693359375 159.65760803222656 L 493.90106201171875 160.7355194091797 L 492.75299072265625 161.81341552734375 L 491.66998291015625 162.89132690429688 L 490.6677551269531 163.96922302246094 L 489.7652893066406 165.04713439941406 L 488.9791259765625 166.1250457763672 L 488.3194885253906 167.20294189453125 L 487.7880859375 168.28085327148438 L 487.3779602050781 169.35874938964844 L 487.0752258300781 170.43666076660156 L 486.8617858886719 171.51455688476562 L 486.7181396484375 172.59246826171875 L 486.6259765625 173.67037963867188 L 486.5696105957031 174.74827575683594 L 486.5367736816406 175.82618713378906 L 486.5185852050781 176.90408325195312 L 486.5089416503906 177.98199462890625 L 486.5041198730469 179.0598907470703 L 486.5018005371094 180.13780212402344 L 486.5007629394531 181.21571350097656 L 486.50030517578125 182.29360961914062 L 486.5001220703125 183.37152099609375 L 486.5000305175781 184.4494171142578 L 486.5 185.52732849121094 L 486.5 186.605224609375" stroke-opacity="1" stroke-linejoin="bevel" stroke-miterlimit="10" stroke-dasharray="" clip-path="url(#aIWyzLWrtPOr)"/><path fill="none" stroke="none"/><path fill="none" stroke="rgb(0,0,0)" paint-order="fill" d="M 486.5 162.6666717529297 L 486.5 115.55476379394531" stroke-opacity="1" stroke-linejoin="bevel" stroke-miterlimit="10" stroke-dasharray="" clip-path="url(#QuQyIWgwPyPQ)"/><path fill="none" stroke="none"/><path fill="rgb(0,0,0)" stroke="none" paint-order="stroke" d="M 480.1000061035156 130.4970703125 L 492.8999938964844 130.4970703125 L 492.8999938964844 144.66903686523438 L 480.1000061035156 144.66903686523438 L 480.1000061035156 130.4970703125" fill-opacity="1" clip-path="url(#ZPJbtMegXncB)"/><path fill="none" stroke="rgb(0,0,0)" paint-order="fill" d="M 480.1000061035156 130.4970703125 L 492.8999938964844 130.4970703125 L 492.8999938964844 144.66903686523438 L 480.1000061035156 144.66903686523438 L 480.1000061035156 130.4970703125" stroke-opacity="1" stroke-linejoin="bevel" stroke-miterlimit="10" stroke-dasharray="" clip-path="url(#ZPJbtMegXncB)"/><path fill="none" stroke="none"/><path fill="rgb(255,255,255)" stroke="rgb(255,255,255)" paint-order="fill" d="M 488.5 137.8557891845703 A 2 2 0 1 1 488.49999900000006 137.85378918490363" fill-opacity="1" clip-path="url(#rCPiOKzXswLD)" stroke-opacity="1" stroke-linejoin="bevel" stroke-miterlimit="10" stroke-dasharray=""/><path fill="none" stroke="rgb(0,0,0)" paint-order="fill" d="M 38.5 176.5 L 550.5 176.5" stroke-opacity="1" stroke-linejoin="bevel" stroke-miterlimit="10" stroke-dasharray=""/><path fill="none" stroke="rgb(0,0,0)" paint-order="fill" d="M 102.5 182.5 L 102.5 174.5 M 230.5 182.5 L 230.5 174.5 M 358.5 182.5 L 358.5 174.5 M 486.5 182.5 L 486.5 174.5" stroke-opacity="1" stroke-linejoin="bevel" stroke-miterlimit="10" stroke-dasharray=""/><path fill="none" stroke="rgb(0,0,0)" paint-order="fill" d="" stroke-opacity="1" stroke-linejoin="bevel" stroke-miterlimit="10" stroke-dasharray=""/><text fill="rgb(68,68,68)" stroke="none" font-family="helvetica" font-size="11px" font-style="normal" font-weight="normal" text-decoration="normal" x="0" y="0" text-anchor="middle" dominant-baseline="hanging" transform="matrix(1, 0, 0, 1, 102.5, 187.5)" fill-opacity="1">our results (v1.0.2)</text><text fill="rgb(68,68,68)" stroke="none" font-family="helvetica" font-size="11px" font-style="normal" font-weight="normal" text-decoration="normal" x="0" y="0" text-anchor="middle" dominant-baseline="hanging" transform="matrix(1, 0, 0, 1, 230.5, 187.5)" fill-opacity="1">original GitHub</text><text fill="rgb(68,68,68)" stroke="none" font-family="helvetica" font-size="11px" font-style="normal" font-weight="normal" text-decoration="normal" x="0" y="0" text-anchor="middle" dominant-baseline="hanging" transform="matrix(1, 0, 0, 1, 358.5, 187.5)" fill-opacity="1">our results (v0.1.1)</text><text fill="rgb(68,68,68)" stroke="none" font-family="helvetica" font-size="11px" font-style="normal" font-weight="normal" text-decoration="normal" x="0" y="0" text-anchor="middle" dominant-baseline="hanging" transform="matrix(1, 0, 0, 1, 486.5, 187.5)" fill-opacity="1">our results (extended alphabet)</text><path fill="none" stroke="rgb(0,0,0)" paint-order="fill" d="M 38.5 176.5 L 38.5 10.5" stroke-opacity="1" stroke-linejoin="bevel" stroke-miterlimit="10" stroke-dasharray=""/><path fill="none" stroke="rgb(0,0,0)" paint-order="fill" d="M 32.5 163.5 L 40.5 163.5 M 32.5 140.5 L 40.5 140.5 M 32.5 117.5 L 40.5 117.5 M 32.5 94.5 L 40.5 94.5 M 32.5 71.5 L 40.5 71.5 M 32.5 48.5 L 40.5 48.5 M 32.5 25.5 L 40.5 25.5" stroke-opacity="1" stroke-linejoin="bevel" stroke-miterlimit="10" stroke-dasharray=""/><path fill="none" stroke="rgb(0,0,0)" paint-order="fill" d="M 34.5 168.5 L 38.5 168.5 M 34.5 173.5 L 38.5 173.5 M 34.5 163.5 L 38.5 163.5 M 34.5 159.5 L 38.5 159.5 M 34.5 154.5 L 38.5 154.5 M 34.5 150.5 L 38.5 150.5 M 34.5 145.5 L 38.5 145.5 M 34.5 140.5 L 38.5 140.5 M 34.5 136.5 L 38.5 136.5 M 34.5 131.5 L 38.5 131.5 M 34.5 126.5 L 38.5 126.5 M 34.5 122.5 L 38.5 122.5 M 34.5 117.5 L 38.5 117.5 M 34.5 113.5 L 38.5 113.5 M 34.5 108.5 L 38.5 108.5 M 34.5 103.5 L 38.5 103.5 M 34.5 99.5 L 38.5 99.5 M 34.5 94.5 L 38.5 94.5 M 34.5 89.5 L 38.5 89.5 M 34.5 85.5 L 38.5 85.5 M 34.5 80.5 L 38.5 80.5 M 34.5 76.5 L 38.5 76.5 M 34.5 71.5 L 38.5 71.5 M 34.5 66.5 L 38.5 66.5 M 34.5 62.5 L 38.5 62.5 M 34.5 57.5 L 38.5 57.5 M 34.5 52.5 L 38.5 52.5 M 34.5 48.5 L 38.5 48.5 M 34.5 43.5 L 38.5 43.5 M 34.5 39.5 L 38.5 39.5 M 34.5 34.5 L 38.5 34.5 M 34.5 29.5 L 38.5 29.5 M 34.5 25.5 L 38.5 25.5 M 34.5 20.5 L 38.5 20.5 M 34.5 16.5 L 38.5 16.5 M 34.5 11.5 L 38.5 11.5" stroke-opacity="1" stroke-linejoin="bevel" stroke-miterlimit="10" stroke-dasharray=""/><text fill="rgb(68,68,68)" stroke="none" font-family="helvetica" font-size="11px" font-style="normal" font-weight="normal" text-decoration="normal" x="0" y="0" text-anchor="end" dominant-baseline="central" transform="matrix(1, 0, 0, 1, 27.5, 163.5)" fill-opacity="1">2</text><text fill="rgb(68,68,68)" stroke="none" font-family="helvetica" font-size="11px" font-style="normal" font-weight="normal" text-decoration="normal" x="0" y="0" text-anchor="end" dominant-baseline="central" transform="matrix(1, 0, 0, 1, 27.5, 140.5)" fill-opacity="1">3</text><text fill="rgb(68,68,68)" stroke="none" font-family="helvetica" font-size="11px" font-style="normal" font-weight="normal" text-decoration="normal" x="0" y="0" text-anchor="end" dominant-baseline="central" transform="matrix(1, 0, 0, 1, 27.5, 117.5)" fill-opacity="1">4</text><text fill="rgb(68,68,68)" stroke="none" font-family="helvetica" font-size="11px" font-style="normal" font-weight="normal" text-decoration="normal" x="0" y="0" text-anchor="end" dominant-baseline="central" transform="matrix(1, 0, 0, 1, 27.5, 94.5)" fill-opacity="1">5</text><text fill="rgb(68,68,68)" stroke="none" font-family="helvetica" font-size="11px" font-style="normal" font-weight="normal" text-decoration="normal" x="0" y="0" text-anchor="end" dominant-baseline="central" transform="matrix(1, 0, 0, 1, 27.5, 71.5)" fill-opacity="1">6</text><text fill="rgb(68,68,68)" stroke="none" font-family="helvetica" font-size="11px" font-style="normal" font-weight="normal" text-decoration="normal" x="0" y="0" text-anchor="end" dominant-baseline="central" transform="matrix(1, 0, 0, 1, 27.5, 48.5)" fill-opacity="1">7</text><text fill="rgb(68,68,68)" stroke="none" font-family="helvetica" font-size="11px" font-style="normal" font-weight="normal" text-decoration="normal" x="0" y="0" text-anchor="end" dominant-baseline="central" transform="matrix(1, 0, 0, 1, 27.5, 25.5)" fill-opacity="1">8</text><text fill="rgb(68,68,68)" stroke="none" font-family="helvetica" font-size="13px" font-style="italic" font-weight="normal" text-decoration="normal" x="0" y="0" text-anchor="middle" dominant-baseline="alphabetic" transform="matrix(6.123233995736766e-17, -1, 1, 6.123233995736766e-17, 15.5, 93.5)" fill-opacity="1">J</text></svg>
