<svg xmlns="http://www.w3.org/2000/svg" xmlns:rdkit="http://www.rdkit.org/xml" xmlns:xlink="http://www.w3.org/1999/xlink" version="1.1" baseProfile="full" xml:space="preserve" width="2400px" height="160px" viewBox="0 0 2400 160">
<!-- END OF HEADER -->
<rect style="opacity:1.0;fill:#FFFFFF;stroke:none" width="2400" height="160" x="0" y="0"> </rect>
<rect style="opacity:1.0;fill:#FFFFFF;stroke:none" width="2400" height="160" x="0" y="0"> </rect>
<rect style="opacity:1.0;fill:#FFFFFF;stroke:none" width="2400" height="160" x="0" y="0"> </rect>
<rect style="opacity:1.0;fill:#FFFFFF;stroke:none" width="2400" height="160" x="0" y="0"> </rect>
<rect style="opacity:1.0;fill:#FFFFFF;stroke:none" width="2400" height="160" x="0" y="0"> </rect>
<rect style="opacity:1.0;fill:#FFFFFF;stroke:none" width="2400" height="160" x="0" y="0"> </rect>
<rect style="opacity:1.0;fill:#FFFFFF;stroke:none" width="2400" height="160" x="0" y="0"> </rect>
<rect style="opacity:1.0;fill:#FFFFFF;stroke:none" width="2400" height="160" x="0" y="0"> </rect>
<rect style="opacity:1.0;fill:#FFFFFF;stroke:none" width="2400" height="160" x="0" y="0"> </rect>
<path class="bond-0" d="M 101.47,80 L 179.5,80" style="fill:none;fill-rule:evenodd;stroke:#FF0000;stroke-width:2.0px;stroke-linecap:butt;stroke-linejoin:miter;stroke-opacity:1"/>
<path class="atom-0" d="M 48.5832 66 L 52.4232 66 L 52.4232 78.04 L 66.9032 78.04 L 66.9032 66 L 70.7432 66 L 70.7432 94.32 L 66.9032 94.32 L 66.9032 81.24 L 52.4232 81.24 L 52.4232 94.32 L 48.5832 94.32 L 48.5832 66 " fill="#FF0000"/>
<path class="atom-0" d="M 72.7432 80.08 Q 72.7432 73.28, 76.1032 69.48 Q 79.4632 65.68, 85.7432 65.68 Q 92.0232 65.68, 95.3832 69.48 Q 98.7432 73.28, 98.7432 80.08 Q 98.7432 86.96, 95.3432 90.88 Q 91.9432 94.76, 85.7432 94.76 Q 79.5032 94.76, 76.1032 90.88 Q 72.7432 87, 72.7432 80.08 M 85.7432 91.56 Q 90.0632 91.56, 92.3832 88.68 Q 94.7432 85.76, 94.7432 80.08 Q 94.7432 74.52, 92.3832 71.72 Q 90.0632 68.88, 85.7432 68.88 Q 81.4232 68.88, 79.0632 71.68 Q 76.7432 74.48, 76.7432 80.08 Q 76.7432 85.8, 79.0632 88.68 Q 81.4232 91.56, 85.7432 91.56 " fill="#FF0000"/>
<path class="atom-1" d="M 181.834 80.08 Q 181.834 73.28, 185.194 69.48 Q 188.554 65.68, 194.834 65.68 Q 201.114 65.68, 204.474 69.48 Q 207.834 73.28, 207.834 80.08 Q 207.834 86.96, 204.434 90.88 Q 201.034 94.76, 194.834 94.76 Q 188.594 94.76, 185.194 90.88 Q 181.834 87, 181.834 80.08 M 194.834 91.56 Q 199.154 91.56, 201.474 88.68 Q 203.834 85.76, 203.834 80.08 Q 203.834 74.52, 201.474 71.72 Q 199.154 68.88, 194.834 68.88 Q 190.514 68.88, 188.154 71.68 Q 185.834 74.48, 185.834 80.08 Q 185.834 85.8, 188.154 88.68 Q 190.514 91.56, 194.834 91.56 " fill="#FF0000"/>
<path class="atom-1" d="M 211.234 66 L 215.074 66 L 215.074 78.04 L 229.554 78.04 L 229.554 66 L 233.394 66 L 233.394 94.32 L 229.554 94.32 L 229.554 81.24 L 215.074 81.24 L 215.074 94.32 L 211.234 94.32 L 211.234 66 " fill="#FF0000"/>
<path class="bond-0" d="M 356.086,80.3459 L 388.953,99.3219" style="fill:none;fill-rule:evenodd;stroke:#FF0000;stroke-width:2.0px;stroke-linecap:butt;stroke-linejoin:miter;stroke-opacity:1"/>
<path class="bond-0" d="M 388.953,99.3219 L 421.821,118.298" style="fill:none;fill-rule:evenodd;stroke:#0000FF;stroke-width:2.0px;stroke-linecap:butt;stroke-linejoin:miter;stroke-opacity:1"/>
<path class="bond-0" d="M 366.995,61.4508 L 399.862,80.4268" style="fill:none;fill-rule:evenodd;stroke:#FF0000;stroke-width:2.0px;stroke-linecap:butt;stroke-linejoin:miter;stroke-opacity:1"/>
<path class="bond-0" d="M 399.862,80.4268 L 432.73,99.4029" style="fill:none;fill-rule:evenodd;stroke:#0000FF;stroke-width:2.0px;stroke-linecap:butt;stroke-linejoin:miter;stroke-opacity:1"/>
<path class="bond-1" d="M 453.756,108.588 L 486.591,89.6311" style="fill:none;fill-rule:evenodd;stroke:#0000FF;stroke-width:2.0px;stroke-linecap:butt;stroke-linejoin:miter;stroke-opacity:1"/>
<path class="bond-1" d="M 486.591,89.6311 L 519.426,70.6739" style="fill:none;fill-rule:evenodd;stroke:#FF0000;stroke-width:2.0px;stroke-linecap:butt;stroke-linejoin:miter;stroke-opacity:1"/>
<path class="atom-0" d="M 332.813 61.8982 Q 332.813 55.0982, 336.173 51.2982 Q 339.533 47.4982, 345.813 47.4982 Q 352.093 47.4982, 355.453 51.2982 Q 358.813 55.0982, 358.813 61.8982 Q 358.813 68.7782, 355.413 72.6982 Q 352.013 76.5782, 345.813 76.5782 Q 339.573 76.5782, 336.173 72.6982 Q 332.813 68.8182, 332.813 61.8982 M 345.813 73.3782 Q 350.133 73.3782, 352.453 70.4982 Q 354.813 67.5782, 354.813 61.8982 Q 354.813 56.3382, 352.453 53.5382 Q 350.133 50.6982, 345.813 50.6982 Q 341.493 50.6982, 339.133 53.4982 Q 336.813 56.2982, 336.813 61.8982 Q 336.813 67.6182, 339.133 70.4982 Q 341.493 73.3782, 345.813 73.3782 " fill="#FF0000"/>
<path class="atom-1" d="M 434.029 102.204 L 443.309 117.204 Q 444.229 118.684, 445.709 121.364 Q 447.189 124.044, 447.269 124.204 L 447.269 102.204 L 451.029 102.204 L 451.029 130.524 L 447.149 130.524 L 437.189 114.124 Q 436.029 112.204, 434.789 110.004 Q 433.589 107.804, 433.229 107.124 L 433.229 130.524 L 429.549 130.524 L 429.549 102.204 L 434.029 102.204 " fill="#0000FF"/>
<path class="atom-2" d="M 521.764 61.8982 Q 521.764 55.0982, 525.124 51.2982 Q 528.484 47.4982, 534.764 47.4982 Q 541.044 47.4982, 544.404 51.2982 Q 547.764 55.0982, 547.764 61.8982 Q 547.764 68.7782, 544.364 72.6982 Q 540.964 76.5782, 534.764 76.5782 Q 528.524 76.5782, 525.124 72.6982 Q 521.764 68.8182, 521.764 61.8982 M 534.764 73.3782 Q 539.084 73.3782, 541.404 70.4982 Q 543.764 67.5782, 543.764 61.8982 Q 543.764 56.3382, 541.404 53.5382 Q 539.084 50.6982, 534.764 50.6982 Q 530.444 50.6982, 528.084 53.4982 Q 525.764 56.2982, 525.764 61.8982 Q 525.764 67.6182, 528.084 70.4982 Q 530.444 73.3782, 534.764 73.3782 " fill="#FF0000"/>
<path class="atom-2" d="M 551.164 47.8182 L 555.004 47.8182 L 555.004 59.8582 L 569.484 59.8582 L 569.484 47.8182 L 573.324 47.8182 L 573.324 76.1382 L 569.484 76.1382 L 569.484 63.0582 L 555.004 63.0582 L 555.004 76.1382 L 551.164 76.1382 L 551.164 47.8182 " fill="#FF0000"/>
<path class="bond-0" d="M 656.086,80.3459 L 688.953,99.3219" style="fill:none;fill-rule:evenodd;stroke:#FF0000;stroke-width:2.0px;stroke-linecap:butt;stroke-linejoin:miter;stroke-opacity:1"/>
<path class="bond-0" d="M 688.953,99.3219 L 721.821,118.298" style="fill:none;fill-rule:evenodd;stroke:#0000FF;stroke-width:2.0px;stroke-linecap:butt;stroke-linejoin:miter;stroke-opacity:1"/>
<path class="bond-0" d="M 666.995,61.4508 L 699.862,80.4268" style="fill:none;fill-rule:evenodd;stroke:#FF0000;stroke-width:2.0px;stroke-linecap:butt;stroke-linejoin:miter;stroke-opacity:1"/>
<path class="bond-0" d="M 699.862,80.4268 L 732.73,99.4029" style="fill:none;fill-rule:evenodd;stroke:#0000FF;stroke-width:2.0px;stroke-linecap:butt;stroke-linejoin:miter;stroke-opacity:1"/>
<path class="bond-1" d="M 753.756,108.588 L 786.591,89.6311" style="fill:none;fill-rule:evenodd;stroke:#0000FF;stroke-width:2.0px;stroke-linecap:butt;stroke-linejoin:miter;stroke-opacity:1"/>
<path class="bond-1" d="M 786.591,89.6311 L 819.426,70.6739" style="fill:none;fill-rule:evenodd;stroke:#FF0000;stroke-width:2.0px;stroke-linecap:butt;stroke-linejoin:miter;stroke-opacity:1"/>
<path class="atom-0" d="M 632.813 61.8982 Q 632.813 55.0982, 636.173 51.2982 Q 639.533 47.4982, 645.813 47.4982 Q 652.093 47.4982, 655.453 51.2982 Q 658.813 55.0982, 658.813 61.8982 Q 658.813 68.7782, 655.413 72.6982 Q 652.013 76.5782, 645.813 76.5782 Q 639.573 76.5782, 636.173 72.6982 Q 632.813 68.8182, 632.813 61.8982 M 645.813 73.3782 Q 650.133 73.3782, 652.453 70.4982 Q 654.813 67.5782, 654.813 61.8982 Q 654.813 56.3382, 652.453 53.5382 Q 650.133 50.6982, 645.813 50.6982 Q 641.493 50.6982, 639.133 53.4982 Q 636.813 56.2982, 636.813 61.8982 Q 636.813 67.6182, 639.133 70.4982 Q 641.493 73.3782, 645.813 73.3782 " fill="#FF0000"/>
<path class="atom-1" d="M 734.029 102.204 L 743.309 117.204 Q 744.229 118.684, 745.709 121.364 Q 747.189 124.044, 747.269 124.204 L 747.269 102.204 L 751.029 102.204 L 751.029 130.524 L 747.149 130.524 L 737.189 114.124 Q 736.029 112.204, 734.789 110.004 Q 733.589 107.804, 733.229 107.124 L 733.229 130.524 L 729.549 130.524 L 729.549 102.204 L 734.029 102.204 " fill="#0000FF"/>
<path class="atom-2" d="M 821.764 61.8982 Q 821.764 55.0982, 825.124 51.2982 Q 828.484 47.4982, 834.764 47.4982 Q 841.044 47.4982, 844.404 51.2982 Q 847.764 55.0982, 847.764 61.8982 Q 847.764 68.7782, 844.364 72.6982 Q 840.964 76.5782, 834.764 76.5782 Q 828.524 76.5782, 825.124 72.6982 Q 821.764 68.8182, 821.764 61.8982 M 834.764 73.3782 Q 839.084 73.3782, 841.404 70.4982 Q 843.764 67.5782, 843.764 61.8982 Q 843.764 56.3382, 841.404 53.5382 Q 839.084 50.6982, 834.764 50.6982 Q 830.444 50.6982, 828.084 53.4982 Q 825.764 56.2982, 825.764 61.8982 Q 825.764 67.6182, 828.084 70.4982 Q 830.444 73.3782, 834.764 73.3782 " fill="#FF0000"/>
<path class="atom-2" d="M 851.164 47.8182 L 855.004 47.8182 L 855.004 59.8582 L 869.484 59.8582 L 869.484 47.8182 L 873.324 47.8182 L 873.324 76.1382 L 869.484 76.1382 L 869.484 63.0582 L 855.004 63.0582 L 855.004 76.1382 L 851.164 76.1382 L 851.164 47.8182 " fill="#FF0000"/>
<path class="bond-0" d="M 956.086,80.3459 L 988.953,99.3219" style="fill:none;fill-rule:evenodd;stroke:#FF0000;stroke-width:2.0px;stroke-linecap:butt;stroke-linejoin:miter;stroke-opacity:1"/>
<path class="bond-0" d="M 988.953,99.3219 L 1021.82,118.298" style="fill:none;fill-rule:evenodd;stroke:#0000FF;stroke-width:2.0px;stroke-linecap:butt;stroke-linejoin:miter;stroke-opacity:1"/>
<path class="bond-0" d="M 966.995,61.4508 L 999.862,80.4268" style="fill:none;fill-rule:evenodd;stroke:#FF0000;stroke-width:2.0px;stroke-linecap:butt;stroke-linejoin:miter;stroke-opacity:1"/>
<path class="bond-0" d="M 999.862,80.4268 L 1032.73,99.4029" style="fill:none;fill-rule:evenodd;stroke:#0000FF;stroke-width:2.0px;stroke-linecap:butt;stroke-linejoin:miter;stroke-opacity:1"/>
<path class="bond-1" d="M 1053.76,108.588 L 1086.59,89.6311" style="fill:none;fill-rule:evenodd;stroke:#0000FF;stroke-width:2.0px;stroke-linecap:butt;stroke-linejoin:miter;stroke-opacity:1"/>
<path class="bond-1" d="M 1086.59,89.6311 L 1119.43,70.6739" style="fill:none;fill-rule:evenodd;stroke:#FF0000;stroke-width:2.0px;stroke-linecap:butt;stroke-linejoin:miter;stroke-opacity:1"/>
<path class="atom-0" d="M 932.813 61.8982 Q 932.813 55.0982, 936.173 51.2982 Q 939.533 47.4982, 945.813 47.4982 Q 952.093 47.4982, 955.453 51.2982 Q 958.813 55.0982, 958.813 61.8982 Q 958.813 68.7782, 955.413 72.6982 Q 952.013 76.5782, 945.813 76.5782 Q 939.573 76.5782, 936.173 72.6982 Q 932.813 68.8182, 932.813 61.8982 M 945.813 73.3782 Q 950.133 73.3782, 952.453 70.4982 Q 954.813 67.5782, 954.813 61.8982 Q 954.813 56.3382, 952.453 53.5382 Q 950.133 50.6982, 945.813 50.6982 Q 941.493 50.6982, 939.133 53.4982 Q 936.813 56.2982, 936.813 61.8982 Q 936.813 67.6182, 939.133 70.4982 Q 941.493 73.3782, 945.813 73.3782 " fill="#FF0000"/>
<path class="atom-1" d="M 1034.03 102.204 L 1043.31 117.204 Q 1044.23 118.684, 1045.71 121.364 Q 1047.19 124.044, 1047.27 124.204 L 1047.27 102.204 L 1051.03 102.204 L 1051.03 130.524 L 1047.15 130.524 L 1037.19 114.124 Q 1036.03 112.204, 1034.79 110.004 Q 1033.59 107.804, 1033.23 107.124 L 1033.23 130.524 L 1029.55 130.524 L 1029.55 102.204 L 1034.03 102.204 " fill="#0000FF"/>
<path class="atom-2" d="M 1121.76 61.8982 Q 1121.76 55.0982, 1125.12 51.2982 Q 1128.48 47.4982, 1134.76 47.4982 Q 1141.04 47.4982, 1144.4 51.2982 Q 1147.76 55.0982, 1147.76 61.8982 Q 1147.76 68.7782, 1144.36 72.6982 Q 1140.96 76.5782, 1134.76 76.5782 Q 1128.52 76.5782, 1125.12 72.6982 Q 1121.76 68.8182, 1121.76 61.8982 M 1134.76 73.3782 Q 1139.08 73.3782, 1141.4 70.4982 Q 1143.76 67.5782, 1143.76 61.8982 Q 1143.76 56.3382, 1141.4 53.5382 Q 1139.08 50.6982, 1134.76 50.6982 Q 1130.44 50.6982, 1128.08 53.4982 Q 1125.76 56.2982, 1125.76 61.8982 Q 1125.76 67.6182, 1128.08 70.4982 Q 1130.44 73.3782, 1134.76 73.3782 " fill="#FF0000"/>
<path class="atom-2" d="M 1151.16 47.8182 L 1155 47.8182 L 1155 59.8582 L 1169.48 59.8582 L 1169.48 47.8182 L 1173.32 47.8182 L 1173.32 76.1382 L 1169.48 76.1382 L 1169.48 63.0582 L 1155 63.0582 L 1155 76.1382 L 1151.16 76.1382 L 1151.16 47.8182 " fill="#FF0000"/>
<path class="bond-0" d="M 1256.09,80.3459 L 1288.95,99.3219" style="fill:none;fill-rule:evenodd;stroke:#FF0000;stroke-width:2.0px;stroke-linecap:butt;stroke-linejoin:miter;stroke-opacity:1"/>
<path class="bond-0" d="M 1288.95,99.3219 L 1321.82,118.298" style="fill:none;fill-rule:evenodd;stroke:#0000FF;stroke-width:2.0px;stroke-linecap:butt;stroke-linejoin:miter;stroke-opacity:1"/>
<path class="bond-0" d="M 1266.99,61.4508 L 1299.86,80.4268" style="fill:none;fill-rule:evenodd;stroke:#FF0000;stroke-width:2.0px;stroke-linecap:butt;stroke-linejoin:miter;stroke-opacity:1"/>
<path class="bond-0" d="M 1299.86,80.4268 L 1332.73,99.4029" style="fill:none;fill-rule:evenodd;stroke:#0000FF;stroke-width:2.0px;stroke-linecap:butt;stroke-linejoin:miter;stroke-opacity:1"/>
<path class="bond-1" d="M 1353.76,108.588 L 1386.59,89.6311" style="fill:none;fill-rule:evenodd;stroke:#0000FF;stroke-width:2.0px;stroke-linecap:butt;stroke-linejoin:miter;stroke-opacity:1"/>
<path class="bond-1" d="M 1386.59,89.6311 L 1419.43,70.6739" style="fill:none;fill-rule:evenodd;stroke:#FF0000;stroke-width:2.0px;stroke-linecap:butt;stroke-linejoin:miter;stroke-opacity:1"/>
<path class="atom-0" d="M 1232.81 61.8982 Q 1232.81 55.0982, 1236.17 51.2982 Q 1239.53 47.4982, 1245.81 47.4982 Q 1252.09 47.4982, 1255.45 51.2982 Q 1258.81 55.0982, 1258.81 61.8982 Q 1258.81 68.7782, 1255.41 72.6982 Q 1252.01 76.5782, 1245.81 76.5782 Q 1239.57 76.5782, 1236.17 72.6982 Q 1232.81 68.8182, 1232.81 61.8982 M 1245.81 73.3782 Q 1250.13 73.3782, 1252.45 70.4982 Q 1254.81 67.5782, 1254.81 61.8982 Q 1254.81 56.3382, 1252.45 53.5382 Q 1250.13 50.6982, 1245.81 50.6982 Q 1241.49 50.6982, 1239.13 53.4982 Q 1236.81 56.2982, 1236.81 61.8982 Q 1236.81 67.6182, 1239.13 70.4982 Q 1241.49 73.3782, 1245.81 73.3782 " fill="#FF0000"/>
<path class="atom-1" d="M 1334.03 102.204 L 1343.31 117.204 Q 1344.23 118.684, 1345.71 121.364 Q 1347.19 124.044, 1347.27 124.204 L 1347.27 102.204 L 1351.03 102.204 L 1351.03 130.524 L 1347.15 130.524 L 1337.19 114.124 Q 1336.03 112.204, 1334.79 110.004 Q 1333.59 107.804, 1333.23 107.124 L 1333.23 130.524 L 1329.55 130.524 L 1329.55 102.204 L 1334.03 102.204 " fill="#0000FF"/>
<path class="atom-2" d="M 1421.76 61.8982 Q 1421.76 55.0982, 1425.12 51.2982 Q 1428.48 47.4982, 1434.76 47.4982 Q 1441.04 47.4982, 1444.4 51.2982 Q 1447.76 55.0982, 1447.76 61.8982 Q 1447.76 68.7782, 1444.36 72.6982 Q 1440.96 76.5782, 1434.76 76.5782 Q 1428.52 76.5782, 1425.12 72.6982 Q 1421.76 68.8182, 1421.76 61.8982 M 1434.76 73.3782 Q 1439.08 73.3782, 1441.4 70.4982 Q 1443.76 67.5782, 1443.76 61.8982 Q 1443.76 56.3382, 1441.4 53.5382 Q 1439.08 50.6982, 1434.76 50.6982 Q 1430.44 50.6982, 1428.08 53.4982 Q 1425.76 56.2982, 1425.76 61.8982 Q 1425.76 67.6182, 1428.08 70.4982 Q 1430.44 73.3782, 1434.76 73.3782 " fill="#FF0000"/>
<path class="atom-2" d="M 1451.16 47.8182 L 1455 47.8182 L 1455 59.8582 L 1469.48 59.8582 L 1469.48 47.8182 L 1473.32 47.8182 L 1473.32 76.1382 L 1469.48 76.1382 L 1469.48 63.0582 L 1455 63.0582 L 1455 76.1382 L 1451.16 76.1382 L 1451.16 47.8182 " fill="#FF0000"/>
<path class="bond-0" d="M 1556.09,80.3459 L 1588.95,99.3219" style="fill:none;fill-rule:evenodd;stroke:#FF0000;stroke-width:2.0px;stroke-linecap:butt;stroke-linejoin:miter;stroke-opacity:1"/>
<path class="bond-0" d="M 1588.95,99.3219 L 1621.82,118.298" style="fill:none;fill-rule:evenodd;stroke:#0000FF;stroke-width:2.0px;stroke-linecap:butt;stroke-linejoin:miter;stroke-opacity:1"/>
<path class="bond-0" d="M 1566.99,61.4508 L 1599.86,80.4268" style="fill:none;fill-rule:evenodd;stroke:#FF0000;stroke-width:2.0px;stroke-linecap:butt;stroke-linejoin:miter;stroke-opacity:1"/>
<path class="bond-0" d="M 1599.86,80.4268 L 1632.73,99.4029" style="fill:none;fill-rule:evenodd;stroke:#0000FF;stroke-width:2.0px;stroke-linecap:butt;stroke-linejoin:miter;stroke-opacity:1"/>
<path class="bond-1" d="M 1653.76,108.588 L 1686.59,89.6311" style="fill:none;fill-rule:evenodd;stroke:#0000FF;stroke-width:2.0px;stroke-linecap:butt;stroke-linejoin:miter;stroke-opacity:1"/>
<path class="bond-1" d="M 1686.59,89.6311 L 1719.43,70.6739" style="fill:none;fill-rule:evenodd;stroke:#FF0000;stroke-width:2.0px;stroke-linecap:butt;stroke-linejoin:miter;stroke-opacity:1"/>
<path class="atom-0" d="M 1532.81 61.8982 Q 1532.81 55.0982, 1536.17 51.2982 Q 1539.53 47.4982, 1545.81 47.4982 Q 1552.09 47.4982, 1555.45 51.2982 Q 1558.81 55.0982, 1558.81 61.8982 Q 1558.81 68.7782, 1555.41 72.6982 Q 1552.01 76.5782, 1545.81 76.5782 Q 1539.57 76.5782, 1536.17 72.6982 Q 1532.81 68.8182, 1532.81 61.8982 M 1545.81 73.3782 Q 1550.13 73.3782, 1552.45 70.4982 Q 1554.81 67.5782, 1554.81 61.8982 Q 1554.81 56.3382, 1552.45 53.5382 Q 1550.13 50.6982, 1545.81 50.6982 Q 1541.49 50.6982, 1539.13 53.4982 Q 1536.81 56.2982, 1536.81 61.8982 Q 1536.81 67.6182, 1539.13 70.4982 Q 1541.49 73.3782, 1545.81 73.3782 " fill="#FF0000"/>
<path class="atom-1" d="M 1634.03 102.204 L 1643.31 117.204 Q 1644.23 118.684, 1645.71 121.364 Q 1647.19 124.044, 1647.27 124.204 L 1647.27 102.204 L 1651.03 102.204 L 1651.03 130.524 L 1647.15 130.524 L 1637.19 114.124 Q 1636.03 112.204, 1634.79 110.004 Q 1633.59 107.804, 1633.23 107.124 L 1633.23 130.524 L 1629.55 130.524 L 1629.55 102.204 L 1634.03 102.204 " fill="#0000FF"/>
<path class="atom-2" d="M 1721.76 61.8982 Q 1721.76 55.0982, 1725.12 51.2982 Q 1728.48 47.4982, 1734.76 47.4982 Q 1741.04 47.4982, 1744.4 51.2982 Q 1747.76 55.0982, 1747.76 61.8982 Q 1747.76 68.7782, 1744.36 72.6982 Q 1740.96 76.5782, 1734.76 76.5782 Q 1728.52 76.5782, 1725.12 72.6982 Q 1721.76 68.8182, 1721.76 61.8982 M 1734.76 73.3782 Q 1739.08 73.3782, 1741.4 70.4982 Q 1743.76 67.5782, 1743.76 61.8982 Q 1743.76 56.3382, 1741.4 53.5382 Q 1739.08 50.6982, 1734.76 50.6982 Q 1730.44 50.6982, 1728.08 53.4982 Q 1725.76 56.2982, 1725.76 61.8982 Q 1725.76 67.6182, 1728.08 70.4982 Q 1730.44 73.3782, 1734.76 73.3782 " fill="#FF0000"/>
<path class="atom-2" d="M 1751.16 47.8182 L 1755 47.8182 L 1755 59.8582 L 1769.48 59.8582 L 1769.48 47.8182 L 1773.32 47.8182 L 1773.32 76.1382 L 1769.48 76.1382 L 1769.48 63.0582 L 1755 63.0582 L 1755 76.1382 L 1751.16 76.1382 L 1751.16 47.8182 " fill="#FF0000"/>
<path class="bond-0" d="M 1856.09,80.3459 L 1888.95,99.3219" style="fill:none;fill-rule:evenodd;stroke:#FF0000;stroke-width:2.0px;stroke-linecap:butt;stroke-linejoin:miter;stroke-opacity:1"/>
<path class="bond-0" d="M 1888.95,99.3219 L 1921.82,118.298" style="fill:none;fill-rule:evenodd;stroke:#0000FF;stroke-width:2.0px;stroke-linecap:butt;stroke-linejoin:miter;stroke-opacity:1"/>
<path class="bond-0" d="M 1866.99,61.4508 L 1899.86,80.4268" style="fill:none;fill-rule:evenodd;stroke:#FF0000;stroke-width:2.0px;stroke-linecap:butt;stroke-linejoin:miter;stroke-opacity:1"/>
<path class="bond-0" d="M 1899.86,80.4268 L 1932.73,99.4029" style="fill:none;fill-rule:evenodd;stroke:#0000FF;stroke-width:2.0px;stroke-linecap:butt;stroke-linejoin:miter;stroke-opacity:1"/>
<path class="bond-1" d="M 1953.76,108.588 L 1986.59,89.6311" style="fill:none;fill-rule:evenodd;stroke:#0000FF;stroke-width:2.0px;stroke-linecap:butt;stroke-linejoin:miter;stroke-opacity:1"/>
<path class="bond-1" d="M 1986.59,89.6311 L 2019.43,70.6739" style="fill:none;fill-rule:evenodd;stroke:#FF0000;stroke-width:2.0px;stroke-linecap:butt;stroke-linejoin:miter;stroke-opacity:1"/>
<path class="atom-0" d="M 1832.81 61.8982 Q 1832.81 55.0982, 1836.17 51.2982 Q 1839.53 47.4982, 1845.81 47.4982 Q 1852.09 47.4982, 1855.45 51.2982 Q 1858.81 55.0982, 1858.81 61.8982 Q 1858.81 68.7782, 1855.41 72.6982 Q 1852.01 76.5782, 1845.81 76.5782 Q 1839.57 76.5782, 1836.17 72.6982 Q 1832.81 68.8182, 1832.81 61.8982 M 1845.81 73.3782 Q 1850.13 73.3782, 1852.45 70.4982 Q 1854.81 67.5782, 1854.81 61.8982 Q 1854.81 56.3382, 1852.45 53.5382 Q 1850.13 50.6982, 1845.81 50.6982 Q 1841.49 50.6982, 1839.13 53.4982 Q 1836.81 56.2982, 1836.81 61.8982 Q 1836.81 67.6182, 1839.13 70.4982 Q 1841.49 73.3782, 1845.81 73.3782 " fill="#FF0000"/>
<path class="atom-1" d="M 1934.03 102.204 L 1943.31 117.204 Q 1944.23 118.684, 1945.71 121.364 Q 1947.19 124.044, 1947.27 124.204 L 1947.27 102.204 L 1951.03 102.204 L 1951.03 130.524 L 1947.15 130.524 L 1937.19 114.124 Q 1936.03 112.204, 1934.79 110.004 Q 1933.59 107.804, 1933.23 107.124 L 1933.23 130.524 L 1929.55 130.524 L 1929.55 102.204 L 1934.03 102.204 " fill="#0000FF"/>
<path class="atom-2" d="M 2021.76 61.8982 Q 2021.76 55.0982, 2025.12 51.2982 Q 2028.48 47.4982, 2034.76 47.4982 Q 2041.04 47.4982, 2044.4 51.2982 Q 2047.76 55.0982, 2047.76 61.8982 Q 2047.76 68.7782, 2044.36 72.6982 Q 2040.96 76.5782, 2034.76 76.5782 Q 2028.52 76.5782, 2025.12 72.6982 Q 2021.76 68.8182, 2021.76 61.8982 M 2034.76 73.3782 Q 2039.08 73.3782, 2041.4 70.4982 Q 2043.76 67.5782, 2043.76 61.8982 Q 2043.76 56.3382, 2041.4 53.5382 Q 2039.08 50.6982, 2034.76 50.6982 Q 2030.44 50.6982, 2028.08 53.4982 Q 2025.76 56.2982, 2025.76 61.8982 Q 2025.76 67.6182, 2028.08 70.4982 Q 2030.44 73.3782, 2034.76 73.3782 " fill="#FF0000"/>
<path class="atom-2" d="M 2051.16 47.8182 L 2055 47.8182 L 2055 59.8582 L 2069.48 59.8582 L 2069.48 47.8182 L 2073.32 47.8182 L 2073.32 76.1382 L 2069.48 76.1382 L 2069.48 63.0582 L 2055 63.0582 L 2055 76.1382 L 2051.16 76.1382 L 2051.16 47.8182 " fill="#FF0000"/>
<path class="bond-0" d="M 2156.09,80.3459 L 2188.95,99.3219" style="fill:none;fill-rule:evenodd;stroke:#FF0000;stroke-width:2.0px;stroke-linecap:butt;stroke-linejoin:miter;stroke-opacity:1"/>
<path class="bond-0" d="M 2188.95,99.3219 L 2221.82,118.298" style="fill:none;fill-rule:evenodd;stroke:#0000FF;stroke-width:2.0px;stroke-linecap:butt;stroke-linejoin:miter;stroke-opacity:1"/>
<path class="bond-0" d="M 2166.99,61.4508 L 2199.86,80.4268" style="fill:none;fill-rule:evenodd;stroke:#FF0000;stroke-width:2.0px;stroke-linecap:butt;stroke-linejoin:miter;stroke-opacity:1"/>
<path class="bond-0" d="M 2199.86,80.4268 L 2232.73,99.4029" style="fill:none;fill-rule:evenodd;stroke:#0000FF;stroke-width:2.0px;stroke-linecap:butt;stroke-linejoin:miter;stroke-opacity:1"/>
<path class="bond-1" d="M 2253.76,108.588 L 2286.59,89.6311" style="fill:none;fill-rule:evenodd;stroke:#0000FF;stroke-width:2.0px;stroke-linecap:butt;stroke-linejoin:miter;stroke-opacity:1"/>
<path class="bond-1" d="M 2286.59,89.6311 L 2319.43,70.6739" style="fill:none;fill-rule:evenodd;stroke:#FF0000;stroke-width:2.0px;stroke-linecap:butt;stroke-linejoin:miter;stroke-opacity:1"/>
<path class="atom-0" d="M 2132.81 61.8982 Q 2132.81 55.0982, 2136.17 51.2982 Q 2139.53 47.4982, 2145.81 47.4982 Q 2152.09 47.4982, 2155.45 51.2982 Q 2158.81 55.0982, 2158.81 61.8982 Q 2158.81 68.7782, 2155.41 72.6982 Q 2152.01 76.5782, 2145.81 76.5782 Q 2139.57 76.5782, 2136.17 72.6982 Q 2132.81 68.8182, 2132.81 61.8982 M 2145.81 73.3782 Q 2150.13 73.3782, 2152.45 70.4982 Q 2154.81 67.5782, 2154.81 61.8982 Q 2154.81 56.3382, 2152.45 53.5382 Q 2150.13 50.6982, 2145.81 50.6982 Q 2141.49 50.6982, 2139.13 53.4982 Q 2136.81 56.2982, 2136.81 61.8982 Q 2136.81 67.6182, 2139.13 70.4982 Q 2141.49 73.3782, 2145.81 73.3782 " fill="#FF0000"/>
<path class="atom-1" d="M 2234.03 102.204 L 2243.31 117.204 Q 2244.23 118.684, 2245.71 121.364 Q 2247.19 124.044, 2247.27 124.204 L 2247.27 102.204 L 2251.03 102.204 L 2251.03 130.524 L 2247.15 130.524 L 2237.19 114.124 Q 2236.03 112.204, 2234.79 110.004 Q 2233.59 107.804, 2233.23 107.124 L 2233.23 130.524 L 2229.55 130.524 L 2229.55 102.204 L 2234.03 102.204 " fill="#0000FF"/>
<path class="atom-2" d="M 2321.76 61.8982 Q 2321.76 55.0982, 2325.12 51.2982 Q 2328.48 47.4982, 2334.76 47.4982 Q 2341.04 47.4982, 2344.4 51.2982 Q 2347.76 55.0982, 2347.76 61.8982 Q 2347.76 68.7782, 2344.36 72.6982 Q 2340.96 76.5782, 2334.76 76.5782 Q 2328.52 76.5782, 2325.12 72.6982 Q 2321.76 68.8182, 2321.76 61.8982 M 2334.76 73.3782 Q 2339.08 73.3782, 2341.4 70.4982 Q 2343.76 67.5782, 2343.76 61.8982 Q 2343.76 56.3382, 2341.4 53.5382 Q 2339.08 50.6982, 2334.76 50.6982 Q 2330.44 50.6982, 2328.08 53.4982 Q 2325.76 56.2982, 2325.76 61.8982 Q 2325.76 67.6182, 2328.08 70.4982 Q 2330.44 73.3782, 2334.76 73.3782 " fill="#FF0000"/>
<path class="atom-2" d="M 2351.16 47.8182 L 2355 47.8182 L 2355 59.8582 L 2369.48 59.8582 L 2369.48 47.8182 L 2373.32 47.8182 L 2373.32 76.1382 L 2369.48 76.1382 L 2369.48 63.0582 L 2355 63.0582 L 2355 76.1382 L 2351.16 76.1382 L 2351.16 47.8182 " fill="#FF0000"/>
</svg>
