<?xml version="1.0" encoding="utf-8"?>
<!-- Generator: Adobe Illustrator 24.1.0, SVG Export Plug-In . SVG Version: 6.00 Build 0)  -->
<svg version="1.1" id="Layer_1" xmlns:rdkit="http://www.rdkit.org/xml"
	 xmlns="http://www.w3.org/2000/svg" xmlns:xlink="http://www.w3.org/1999/xlink" x="0px" y="0px" viewBox="0 0 554 459"
	 style="enable-background:new 0 0 554 459;" xml:space="preserve">
<style type="text/css">
	.st0{fill:#FFFFFF;}
	.st1{fill:none;stroke:#000000;stroke-width:2;}
	.st2{fill:none;stroke:#FF7F00;stroke-width:2;}
	.st3{fill:none;stroke:#FF0000;stroke-width:2;}
	.st4{fill:none;stroke:#CCCC00;stroke-width:2;}
	.st5{fill:none;stroke:#7F4C19;stroke-width:2;}
	.st6{fill:#FF7F00;}
	.st7{fill:#FF0000;}
	.st8{fill:#CCCC00;}
	.st9{fill:#7F4C19;}
	.st10{fill-rule:evenodd;clip-rule:evenodd;}
	.st11{fill:none;stroke:#0000FF;stroke-width:2;}
	.st12{fill:#0000FF;}
	.st13{fill:none;stroke:#A01EEF;stroke-width:2;}
	.st14{fill:#A01EEF;}
	.st15{fill:none;stroke:#33CCCC;stroke-width:2;}
	.st16{fill:#33CCCC;}
	.st17{fill:none;stroke:#00CC00;stroke-width:2;}
	.st18{fill:#00CC00;}
</style>
<rect x="-46" y="-57" class="st0" width="600" height="600"/>
<rect x="-46" y="-57" class="st0" width="600" height="600"/>
<rect x="-46" y="-57" class="st0" width="600" height="600"/>
<rect x="-46" y="-57" class="st0" width="600" height="600"/>
<rect x="-46" y="-57" class="st0" width="600" height="600"/>
<rect x="-46" y="-57" class="st0" width="600" height="600"/>
<rect x="-46" y="-57" class="st0" width="600" height="600"/>
<rect x="-46" y="-57" class="st0" width="600" height="600"/>
<rect x="-46" y="-57" class="st0" width="600" height="600"/>
<rect x="-46" y="-57" class="st0" width="600" height="600"/>
<path class="st1" d="M90.8,15.3l-4.1,2.9"/>
<path class="st2" d="M86.7,18.1L82.6,21"/>
<path class="st1" d="M89.1,12.9l-3.5,2.4"/>
<path class="st2" d="M85.6,15.3l-3.5,2.4"/>
<path class="st1" d="M92.4,17.6l-3.5,2.4"/>
<path class="st2" d="M88.9,20.1l-3.5,2.4"/>
<path class="st2" d="M81.2,24.6l0.8,9.4"/>
<path class="st2" d="M79.2,21.4l-4.5-2.1"/>
<path class="st3" d="M74.7,19.2l-4.5-2.1"/>
<path class="st3" d="M65.6,17.7l-3.9,2.7"/>
<path class="st4" d="M61.7,20.5l-3.9,2.7"/>
<path class="st4" d="M54.4,23.6l-9.7-4.5"/>
<path class="st4" d="M54.2,20.3l-6.8-3.1"/>
<path class="st4" d="M51.7,25.5L45,22.4"/>
<path class="st4" d="M41.3,19.5l-7.5,5.3"/>
<path class="st4" d="M29.5,25.8l-5.1-2.4"/>
<path class="st5" d="M24.5,23.4l-5.1-2.4"/>
<path d="M91.1,13.9c0-0.7,0.2-1.2,0.5-1.6c0.3-0.4,0.8-0.6,1.4-0.6c0.6,0,1,0.2,1.3,0.6L94,12.7c-0.2-0.3-0.5-0.4-0.9-0.4
	c-0.4,0-0.8,0.1-1,0.4c-0.2,0.3-0.3,0.7-0.3,1.2c0,0.6,0.1,1,0.3,1.3c0.2,0.3,0.6,0.4,1,0.4c0.3,0,0.6-0.1,1-0.3l0.2,0.4
	c-0.1,0.1-0.3,0.2-0.6,0.2s-0.5,0.1-0.7,0.1c-0.6,0-1.1-0.2-1.4-0.6C91.3,15.1,91.1,14.6,91.1,13.9"/>
<path d="M94.6,12.4H96v0.3h-1.5V12.4"/>
<path class="st6" d="M80.9,20c0.5,0,0.8,0.1,1.1,0.3c0.2,0.2,0.4,0.5,0.4,0.9c0,0.4-0.1,0.7-0.4,0.9c-0.2,0.2-0.6,0.3-1.1,0.3h-0.7
	v1.7h-0.6V20H80.9 M80.9,22c0.3,0,0.5-0.1,0.6-0.2c0.1-0.1,0.2-0.3,0.2-0.6c0-0.3-0.1-0.4-0.2-0.6c-0.1-0.1-0.4-0.2-0.6-0.2h-0.7V22
	H80.9"/>
<path class="st6" d="M82.1,34.4c0.5,0,0.8,0.1,1.1,0.3c0.2,0.2,0.4,0.5,0.4,0.9c0,0.4-0.1,0.7-0.4,0.9c-0.2,0.2-0.6,0.3-1.1,0.3
	h-0.7v1.7h-0.6v-4.2H82.1 M82.1,36.4c0.3,0,0.5-0.1,0.6-0.2c0.1-0.1,0.2-0.3,0.2-0.6s-0.1-0.4-0.2-0.6c-0.1-0.1-0.4-0.2-0.6-0.2
	h-0.7v1.5H82.1"/>
<path class="st6" d="M83.9,35.1h0.7v-0.8H85v0.8h0.8v0.3H85v0.8h-0.3v-0.8h-0.7V35.1"/>
<path class="st7" d="M65.9,16.1c0-0.7,0.2-1.2,0.5-1.6c0.3-0.4,0.8-0.6,1.4-0.6c0.6,0,1.1,0.2,1.4,0.6c0.3,0.4,0.5,0.9,0.5,1.6
	c0,0.7-0.2,1.2-0.5,1.6c-0.3,0.4-0.8,0.6-1.4,0.6c-0.6,0-1.1-0.2-1.4-0.6C66.1,17.3,65.9,16.8,65.9,16.1 M67.9,17.8
	c0.4,0,0.8-0.1,1-0.4c0.2-0.3,0.4-0.7,0.4-1.3c0-0.6-0.1-1-0.4-1.3c-0.2-0.3-0.6-0.4-1-0.4c-0.4,0-0.8,0.1-1,0.4
	c-0.2,0.3-0.3,0.7-0.3,1.3c0,0.6,0.1,1,0.3,1.3C67.1,17.7,67.5,17.8,67.9,17.8"/>
<path class="st8" d="M54.9,25.8c0,0,0.1,0,0.2,0.1c0.1,0.1,0.3,0.1,0.4,0.1c0.1,0,0.3,0,0.4,0c0.3,0,0.5-0.1,0.6-0.2
	c0.2-0.1,0.2-0.3,0.2-0.5c0-0.2,0-0.3-0.1-0.4c-0.1-0.1-0.2-0.2-0.3-0.2c-0.1-0.1-0.3-0.1-0.5-0.2c-0.3-0.1-0.5-0.2-0.6-0.2
	c-0.1-0.1-0.3-0.2-0.4-0.3c-0.1-0.2-0.2-0.4-0.2-0.6c0-0.4,0.1-0.6,0.4-0.9c0.2-0.2,0.6-0.3,1.1-0.3c0.3,0,0.7,0.1,1.1,0.2l-0.1,0.5
	c-0.3-0.1-0.6-0.2-0.9-0.2c-0.3,0-0.5,0.1-0.6,0.2c-0.2,0.1-0.2,0.3-0.2,0.5c0,0.2,0,0.3,0.1,0.4c0.1,0.1,0.2,0.2,0.3,0.2
	c0.1,0.1,0.3,0.1,0.5,0.2c0.3,0.1,0.5,0.2,0.6,0.2s0.3,0.2,0.4,0.4c0.1,0.2,0.2,0.4,0.2,0.7c0,0.4-0.1,0.7-0.4,0.9
	c-0.3,0.2-0.6,0.3-1,0.3c-0.3,0-0.5,0-0.7-0.1c-0.2-0.1-0.4-0.1-0.6-0.2L54.9,25.8"/>
<path class="st8" d="M41.8,19.7c0,0,0.1,0,0.2,0.1s0.3,0.1,0.4,0.1c0.1,0,0.3,0,0.4,0c0.3,0,0.5-0.1,0.6-0.2
	c0.2-0.1,0.2-0.3,0.2-0.5c0-0.2,0-0.3-0.1-0.4c-0.1-0.1-0.2-0.2-0.3-0.2c-0.1-0.1-0.3-0.1-0.5-0.2c-0.3-0.1-0.5-0.2-0.6-0.2
	c-0.1-0.1-0.3-0.2-0.4-0.3c-0.1-0.2-0.2-0.4-0.2-0.6c0-0.4,0.1-0.6,0.4-0.9c0.2-0.2,0.6-0.3,1.1-0.3c0.3,0,0.7,0.1,1,0.2l-0.1,0.5
	c-0.3-0.1-0.6-0.2-0.9-0.2c-0.3,0-0.5,0.1-0.6,0.2c-0.2,0.1-0.2,0.3-0.2,0.5c0,0.2,0,0.3,0.1,0.4c0.1,0.1,0.2,0.2,0.3,0.2
	c0.1,0.1,0.3,0.1,0.5,0.2c0.3,0.1,0.5,0.2,0.6,0.2c0.2,0.1,0.3,0.2,0.4,0.4c0.1,0.2,0.2,0.4,0.2,0.7c0,0.4-0.1,0.7-0.4,0.9
	c-0.3,0.2-0.6,0.3-1,0.3c-0.3,0-0.5,0-0.7-0.1c-0.2-0.1-0.4-0.1-0.6-0.2L41.8,19.7"/>
<path class="st8" d="M30.1,28c0,0,0.1,0,0.2,0.1c0.1,0.1,0.3,0.1,0.4,0.1c0.1,0,0.3,0,0.4,0c0.3,0,0.5-0.1,0.6-0.2
	c0.2-0.1,0.2-0.3,0.2-0.5c0-0.2,0-0.3-0.1-0.4c-0.1-0.1-0.2-0.2-0.3-0.2c-0.1-0.1-0.3-0.1-0.5-0.2c-0.3-0.1-0.5-0.2-0.6-0.2
	c-0.1-0.1-0.3-0.2-0.4-0.3C30,26.1,30,25.9,30,25.6c0-0.4,0.1-0.6,0.4-0.9c0.2-0.2,0.6-0.3,1.1-0.3c0.3,0,0.7,0.1,1.1,0.2l-0.1,0.5
	c-0.3-0.1-0.6-0.2-0.9-0.2c-0.3,0-0.5,0.1-0.6,0.2c-0.2,0.1-0.2,0.3-0.2,0.5c0,0.2,0,0.3,0.1,0.4c0.1,0.1,0.2,0.2,0.3,0.2
	c0.1,0.1,0.3,0.1,0.5,0.2c0.3,0.1,0.5,0.2,0.6,0.2c0.2,0.1,0.3,0.2,0.4,0.4c0.1,0.2,0.2,0.4,0.2,0.7c0,0.4-0.1,0.7-0.4,0.9
	c-0.3,0.2-0.6,0.3-1,0.3c-0.3,0-0.5,0-0.7-0.1c-0.2-0.1-0.4-0.1-0.6-0.2L30.1,28"/>
<path class="st8" d="M32.8,25.1h1.5v0.3h-1.5V25.1"/>
<path class="st9" d="M16,20.4c0.3,0.1,0.5,0.2,0.6,0.4c0.1,0.2,0.2,0.4,0.2,0.6c0,0.4-0.1,0.7-0.4,0.9c-0.2,0.2-0.6,0.3-1.1,0.3
	h-1.4v-4.2h1.3c0.5,0,0.8,0.1,1.1,0.3c0.2,0.2,0.4,0.5,0.4,0.8C16.6,19.9,16.4,20.2,16,20.4 M14.5,18.9v1.3h0.7
	c0.3,0,0.5-0.1,0.6-0.2c0.1-0.1,0.2-0.3,0.2-0.5c0-0.4-0.3-0.6-0.9-0.6H14.5 M15.3,22.1c0.3,0,0.5-0.1,0.6-0.2
	c0.1-0.1,0.2-0.3,0.2-0.6c0-0.2-0.1-0.4-0.2-0.5c-0.2-0.1-0.4-0.2-0.7-0.2h-0.8v1.5H15.3"/>
<path class="st9" d="M17.8,19.5l0.1,0.4c0.2-0.3,0.5-0.5,0.9-0.5c0.1,0,0.2,0,0.4,0.1L19,20c-0.2,0-0.3-0.1-0.4-0.1
	c-0.2,0-0.3,0-0.4,0.1c-0.1,0.1-0.2,0.2-0.3,0.3v2.2h-0.6v-3.1H17.8"/>
<path class="st10" d="M87,36.5L87,36.5L87,36.5L87,36.5l0-0.1l0,0l0,0l0,0l0,0l0,0l0,0l0,0l0,0l0,0l0,0l0,0l0,0l0,0l0,0l0,0l0,0l0,0
	l0,0l0,0l0,0l0,0l0,0l0,0l0,0l0,0l0,0l0,0l0,0l0,0l0,0l0,0l0,0v0l0,0l0,0l0,0l0,0l0,0l0,0l0,0l0,0l0,0l0,0l0,0l0,0l0,0l0,0l0,0l0,0
	l0,0l0,0l0,0l0,0l0,0l0,0l0,0l0,0l0,0l0,0l0,0l0,0l0,0l0,0l0,0l0,0L87,36.5L87,36.5L87,36.5L87,36.5h-0.3H87z"/>
<path class="st10" d="M87,37.6L87,37.6L87,37.6L87,37.6l0-0.1l0,0l0,0l0,0l0,0l0,0l0,0l0,0l0,0l0,0l0,0l0,0l0,0l0,0l0,0l0,0l0,0l0,0
	l0,0l0,0l0,0l0,0l0,0l0,0l0,0l0,0l0,0l0,0l0,0l0,0l0,0l0,0l0,0v0l0,0l0,0l0,0l0,0l0,0l0,0l0,0l0,0l0,0l0,0l0,0l0,0l0,0l0,0l0,0l0,0
	l0,0l0,0l0,0l0,0l0,0l0,0l0,0l0,0l0,0l0,0l0,0l0,0l0,0l0,0l0,0l0,0L87,37.6L87,37.6L87,37.6L87,37.6h-0.3H87z"/>
<path class="st10" d="M87,35.4L87,35.4L87,35.4L87,35.4l0-0.1l0,0l0,0l0,0l0,0l0,0l0,0l0,0l0,0l0,0l0,0l0,0l0,0l0,0l0,0l0,0l0,0l0,0
	l0,0l0,0l0,0l0,0l0,0l0,0l0,0l0,0l0,0l0,0l0,0l0,0l0,0l0,0l0,0v0l0,0l0,0l0,0l0,0l0,0l0,0l0,0l0,0l0,0l0,0l0,0l0,0l0,0l0,0l0,0l0,0
	l0,0l0,0l0,0l0,0l0,0l0,0l0,0l0,0l0,0l0,0l0,0l0,0l0,0l0,0l0,0l0,0L87,35.4L87,35.4L87,35.4L87,35.4h-0.3H87z"/>
<path class="st10" d="M87,36.5L87,36.5L87,36.5L87,36.5l0-0.1l0,0l0,0l0,0l0,0l0,0l0,0l0,0l0,0l0,0l0,0l0,0l0,0l0,0l0,0l0,0l0,0l0,0
	l0,0l0,0l0,0l0,0l0,0l0,0l0,0l0,0l0,0l0,0l0,0l0,0l0,0l0,0l0,0v0l0,0l0,0l0,0l0,0l0,0l0,0l0,0l0,0l0,0l0,0l0,0l0,0l0,0l0,0l0,0l0,0
	l0,0l0,0l0,0l0,0l0,0l0,0l0,0l0,0l0,0l0,0l0,0l0,0l0,0l0,0l0,0l0,0L87,36.5L87,36.5L87,36.5L87,36.5h-0.3H87z"/>
<path class="st10" d="M31.6,29.2L31.6,29.2L31.6,29.2L31.6,29.2l0-0.1l0,0l0,0l0,0l0,0l0,0l0,0l0,0l0,0l0,0l0,0l0,0l0,0l0,0l0,0l0,0
	l0,0l0,0l0,0l0,0l0,0l0,0l0,0l0,0l0,0l0,0l0,0l0,0l0,0l0,0l0,0l0,0l0,0v0l0,0l0,0l0,0l0,0l0,0l0,0l0,0l0,0l0,0l0,0l0,0l0,0l0,0l0,0
	l0,0l0,0l0,0l0,0l0,0l0,0l0,0l0,0l0,0l0,0l0,0l0,0l0,0l0,0l0,0l0,0l0,0l0,0L31.6,29.2L31.6,29.2L31.6,29.2L31.6,29.2h-0.3H31.6z"/>
<path class="st3" d="M191.2,28.6l4.7-1.7"/>
<path class="st11" d="M195.8,26.9l4.7-1.7"/>
<path class="st3" d="M190.2,25.9l4.7-1.7"/>
<path class="st11" d="M194.8,24.2l4.7-1.7"/>
<path class="st11" d="M206.6,23l7.5-2.7"/>
<path class="st11" d="M205.6,20.3l7.5-2.7"/>
<path class="st11" d="M217.4,19.9l3.7,3.1"/>
<path class="st4" d="M221.1,23l3.7,3.1"/>
<path class="st4" d="M230.4,26.1l3.9-1.4"/>
<path class="st11" d="M234.3,24.7l3.9-1.4"/>
<path class="st11" d="M244.2,21.1l7.5-2.7"/>
<path class="st11" d="M246.3,23.4l5.2-1.9"/>
<path class="st11" d="M244.3,18l5.2-1.9"/>
<path class="st11" d="M257.7,16.1l7.5-2.7"/>
<path class="st11" d="M269,14.4l3.7,3.1"/>
<path class="st2" d="M272.8,17.5l3.7,3.1"/>
<path class="st11" d="M268.3,17.5l2.6,2.2"/>
<path class="st2" d="M270.9,19.7l2.6,2.2"/>
<path class="st2" d="M281.5,20.8l4.3-1.6"/>
<path class="st4" d="M285.7,19.2l4.3-1.6"/>
<path class="st2" d="M281.8,17.6l3-1.1"/>
<path class="st4" d="M284.8,16.5l3-1.1"/>
<path class="st4" d="M293.4,18.5l3.5,3"/>
<path class="st3" d="M296.9,21.5l3.5,3"/>
<path class="st3" d="M307.2,24.7l3.7-1.4"/>
<path class="st2" d="M310.9,23.3l3.7-1.4"/>
<path class="st3" d="M307.3,21.6l2.6-0.9"/>
<path class="st2" d="M309.9,20.6l2.6-0.9"/>
<path class="st2" d="M317.9,22.8l3.8,3.2"/>
<path class="st5" d="M321.7,26l3.8,3.2"/>
<path class="st7" d="M186.4,28.1c0-0.7,0.2-1.2,0.5-1.6c0.3-0.4,0.8-0.6,1.4-0.6c0.6,0,1.1,0.2,1.4,0.6s0.5,0.9,0.5,1.6
	c0,0.7-0.2,1.2-0.5,1.6c-0.3,0.4-0.8,0.6-1.4,0.6c-0.6,0-1.1-0.2-1.4-0.6C186.6,29.4,186.4,28.8,186.4,28.1 M188.4,29.9
	c0.4,0,0.8-0.1,1-0.4c0.2-0.3,0.4-0.7,0.4-1.3c0-0.6-0.1-1-0.4-1.3c-0.2-0.3-0.6-0.4-1-0.4c-0.4,0-0.8,0.1-1,0.4
	c-0.2,0.3-0.3,0.7-0.3,1.3c0,0.6,0.1,1,0.3,1.3C187.6,29.7,187.9,29.9,188.4,29.9"/>
<path class="st12" d="M201,21.1l1.4,2.2c0.1,0.1,0.2,0.4,0.4,0.6c0.1,0.3,0.2,0.4,0.2,0.4v-3.3h0.6v4.2h-0.6l-1.5-2.5
	c-0.1-0.2-0.2-0.4-0.4-0.6c-0.1-0.2-0.2-0.4-0.2-0.4v3.5h-0.6v-4.2H201"/>
<path class="st12" d="M203.9,21.8h0.7v-0.8h0.3v0.8h0.8v0.3h-0.8v0.8h-0.3v-0.8h-0.7V21.8"/>
<path class="st12" d="M214.5,16.1l1.4,2.2c0.1,0.1,0.2,0.4,0.4,0.6c0.1,0.3,0.2,0.4,0.2,0.4v-3.3h0.6v4.2h-0.6l-1.5-2.5
	c-0.1-0.2-0.2-0.4-0.4-0.6c-0.1-0.2-0.2-0.4-0.2-0.4v3.5h-0.6v-4.2H214.5"/>
<path class="st8" d="M225.3,29c0,0,0.1,0,0.2,0.1c0.1,0.1,0.3,0.1,0.4,0.1c0.1,0,0.3,0,0.4,0c0.3,0,0.5-0.1,0.6-0.2
	c0.2-0.1,0.2-0.3,0.2-0.5c0-0.2,0-0.3-0.1-0.4c-0.1-0.1-0.2-0.2-0.3-0.2c-0.1-0.1-0.3-0.1-0.5-0.2c-0.3-0.1-0.5-0.2-0.6-0.2
	c-0.1-0.1-0.3-0.2-0.4-0.3c-0.1-0.2-0.2-0.4-0.2-0.6c0-0.4,0.1-0.6,0.4-0.9c0.2-0.2,0.6-0.3,1.1-0.3c0.3,0,0.7,0.1,1,0.2l-0.1,0.5
	c-0.3-0.1-0.6-0.2-0.9-0.2c-0.3,0-0.5,0.1-0.6,0.2c-0.2,0.1-0.2,0.3-0.2,0.5c0,0.2,0,0.3,0.1,0.4c0.1,0.1,0.2,0.2,0.3,0.2
	c0.1,0.1,0.3,0.1,0.5,0.2c0.3,0.1,0.5,0.2,0.6,0.2s0.3,0.2,0.4,0.4c0.1,0.2,0.2,0.4,0.2,0.7c0,0.4-0.1,0.7-0.4,0.9
	c-0.3,0.2-0.6,0.3-1,0.3c-0.3,0-0.5,0-0.7-0.1c-0.2-0.1-0.4-0.1-0.6-0.2L225.3,29"/>
<path class="st8" d="M228.2,26.1h0.7v-0.8h0.3v0.8h0.8v0.3h-0.8v0.8h-0.3v-0.8h-0.7V26.1"/>
<path class="st12" d="M239.1,20.5l1.4,2.2c0.1,0.1,0.2,0.4,0.4,0.6s0.2,0.4,0.2,0.4v-3.3h0.6v4.2H241l-1.5-2.5
	c-0.1-0.2-0.2-0.4-0.4-0.6c-0.1-0.2-0.2-0.4-0.2-0.4v3.5h-0.6v-4.2H239.1"/>
<path class="st12" d="M242,21.2h0.7v-0.8h0.3v0.8h0.8v0.3h-0.8v0.8h-0.3v-0.8H242V21.2"/>
<path class="st12" d="M252.6,15.5l1.4,2.2c0.1,0.1,0.2,0.4,0.4,0.6c0.1,0.3,0.2,0.4,0.2,0.4v-3.3h0.6v4.2h-0.6l-1.5-2.5
	c-0.1-0.2-0.2-0.4-0.4-0.6c-0.1-0.2-0.2-0.4-0.2-0.4v3.5h-0.6v-4.2H252.6"/>
<path class="st12" d="M255.5,16.3h0.7v-0.8h0.3v0.8h0.8v0.3h-0.8v0.8h-0.3v-0.8h-0.7V16.3"/>
<path class="st12" d="M266.1,10.6l1.4,2.2c0.1,0.1,0.2,0.4,0.4,0.6c0.1,0.3,0.2,0.4,0.2,0.4v-3.3h0.6v4.2h-0.6l-1.5-2.5
	c-0.1-0.2-0.2-0.4-0.4-0.6c-0.1-0.2-0.2-0.4-0.2-0.4v3.5h-0.6v-4.2H266.1"/>
<path class="st6" d="M278,19.9c0.5,0,0.8,0.1,1.1,0.3c0.2,0.2,0.4,0.5,0.4,0.9c0,0.4-0.1,0.7-0.4,0.9c-0.2,0.2-0.6,0.3-1.1,0.3h-0.7
	v1.7h-0.6v-4.2H278 M278,21.9c0.3,0,0.5-0.1,0.6-0.2c0.1-0.1,0.2-0.3,0.2-0.6s-0.1-0.4-0.2-0.6c-0.1-0.1-0.4-0.2-0.6-0.2h-0.7v1.5
	H278"/>
<path class="st6" d="M279.7,20.6h1.5v0.3h-1.5V20.6"/>
<path class="st8" d="M290.4,18.5c0,0,0.1,0,0.2,0.1s0.3,0.1,0.4,0.1c0.1,0,0.3,0,0.4,0c0.3,0,0.5-0.1,0.6-0.2
	c0.2-0.1,0.2-0.3,0.2-0.5c0-0.2,0-0.3-0.1-0.4c-0.1-0.1-0.2-0.2-0.3-0.2c-0.1-0.1-0.3-0.1-0.5-0.2c-0.3-0.1-0.5-0.2-0.6-0.2
	c-0.1-0.1-0.3-0.2-0.4-0.3c-0.1-0.2-0.2-0.4-0.2-0.6c0-0.4,0.1-0.6,0.4-0.9c0.2-0.2,0.6-0.3,1.1-0.3c0.3,0,0.7,0.1,1.1,0.2l-0.1,0.5
	c-0.3-0.1-0.6-0.2-0.9-0.2c-0.3,0-0.5,0.1-0.6,0.2c-0.2,0.1-0.2,0.3-0.2,0.5c0,0.2,0,0.3,0.1,0.4c0.1,0.1,0.2,0.2,0.3,0.2
	c0.1,0.1,0.3,0.1,0.5,0.2c0.3,0.1,0.5,0.2,0.6,0.2c0.2,0.1,0.3,0.2,0.4,0.4c0.1,0.2,0.2,0.4,0.2,0.7c0,0.4-0.1,0.7-0.4,0.9
	c-0.3,0.2-0.6,0.3-1,0.3c-0.3,0-0.5,0-0.7-0.1c-0.2-0.1-0.4-0.1-0.6-0.2L290.4,18.5"/>
<path class="st8" d="M293.2,15.6h1.5v0.3h-1.5V15.6"/>
<path class="st7" d="M300.7,26.3c0-0.7,0.2-1.2,0.5-1.6c0.3-0.4,0.8-0.6,1.4-0.6s1.1,0.2,1.4,0.6s0.5,0.9,0.5,1.6
	c0,0.7-0.2,1.2-0.5,1.6c-0.3,0.4-0.8,0.6-1.4,0.6c-0.6,0-1.1-0.2-1.4-0.6C300.9,27.6,300.7,27,300.7,26.3 M302.7,28
	c0.4,0,0.8-0.1,1-0.4c0.2-0.3,0.4-0.7,0.4-1.3c0-0.6-0.1-1-0.4-1.3c-0.2-0.3-0.6-0.4-1-0.4s-0.8,0.1-1,0.4c-0.2,0.3-0.3,0.7-0.3,1.3
	c0,0.6,0.1,1,0.3,1.3C301.9,27.9,302.2,28,302.7,28"/>
<path class="st7" d="M305,24.9h0.7v-0.8h0.3v0.8h0.8v0.3h-0.8V26h-0.3v-0.8H305V24.9"/>
<path class="st6" d="M316.1,19.3c0.5,0,0.8,0.1,1.1,0.3c0.2,0.2,0.4,0.5,0.4,0.9c0,0.4-0.1,0.7-0.4,0.9c-0.2,0.2-0.6,0.3-1.1,0.3
	h-0.7v1.7h-0.6v-4.2H316.1 M316.1,21.3c0.3,0,0.5-0.1,0.6-0.2c0.1-0.1,0.2-0.3,0.2-0.6c0-0.3-0.1-0.4-0.2-0.6
	c-0.1-0.1-0.4-0.2-0.6-0.2h-0.7v1.5H316.1"/>
<path class="st9" d="M327.9,30.5c0.3,0.1,0.5,0.2,0.6,0.4c0.1,0.2,0.2,0.4,0.2,0.6c0,0.4-0.1,0.7-0.4,0.9c-0.2,0.2-0.6,0.3-1.1,0.3
	h-1.4v-4.2h1.3c0.5,0,0.8,0.1,1.1,0.3c0.2,0.2,0.4,0.5,0.4,0.8C328.5,30.1,328.3,30.4,327.9,30.5 M326.4,29v1.3h0.7
	c0.3,0,0.5-0.1,0.6-0.2c0.1-0.1,0.2-0.3,0.2-0.5c0-0.4-0.3-0.6-0.9-0.6H326.4 M327.2,32.3c0.3,0,0.5-0.1,0.6-0.2
	c0.1-0.1,0.2-0.3,0.2-0.6c0-0.2-0.1-0.4-0.2-0.5c-0.2-0.1-0.4-0.2-0.7-0.2h-0.8v1.5H327.2"/>
<path class="st9" d="M329.7,29.7l0.1,0.4c0.2-0.3,0.5-0.5,0.9-0.5c0.1,0,0.2,0,0.4,0.1l-0.1,0.5c-0.2,0-0.3-0.1-0.4-0.1
	c-0.2,0-0.3,0-0.4,0.1c-0.1,0.1-0.2,0.2-0.3,0.3v2.2h-0.6v-3.1H329.7"/>
<path class="st10" d="M226.8,30.2L226.8,30.2L226.8,30.2L226.8,30.2l0-0.1l0,0l0,0l0,0l0,0l0,0l0,0l0,0l0,0l0,0l0,0l0,0l0,0l0,0l0,0
	l0,0l0,0l0,0l0,0l0,0l0,0l0,0l0,0l0,0l0,0l0,0l0,0l0,0l0,0l0,0l0,0l0,0l0,0v0l0,0l0,0l0,0l0,0l0,0l0,0l0,0l0,0l0,0l0,0l0,0l0,0l0,0
	l0,0l0,0l0,0l0,0l0,0l0,0l0,0l0,0l0,0l0,0l0,0l0,0l0,0l0,0l0,0l0,0l0,0l0,0l0,0L226.8,30.2L226.8,30.2L226.8,30.2L226.8,30.2h-0.3
	H226.8z"/>
<path class="st11" d="M391.9,36.9l-0.3-4.7"/>
<path class="st4" d="M391.5,32.2l-0.3-4.7"/>
<path class="st11" d="M389,37.1l-0.3-4.7"/>
<path class="st4" d="M388.7,32.4l-0.3-4.7"/>
<path class="st4" d="M393.1,24.5l3.6-2.5"/>
<path class="st1" d="M396.8,22l3.6-2.5"/>
<path class="st4" d="M391.5,22.1l3.6-2.5"/>
<path class="st1" d="M395.1,19.6l3.6-2.5"/>
<path class="st1" d="M404.3,16.9l4.1-2.8"/>
<path class="st2" d="M408.5,14.1l4.1-2.8"/>
<path class="st1" d="M402.7,14.5l4.1-2.8"/>
<path class="st2" d="M406.9,11.7l4.1-2.8"/>
<path class="st2" d="M415.2,9.8l5.6,2.7"/>
<path class="st1" d="M420.8,12.6l5.6,2.7"/>
<path class="st1" d="M426.4,15.3L432,18"/>
<path class="st2" d="M432,18l5.6,2.7"/>
<path class="st1" d="M426.8,18.7l3.9,1.9"/>
<path class="st2" d="M430.8,20.6l3.9,1.9"/>
<path class="st1" d="M429.4,13.5l3.9,1.9"/>
<path class="st2" d="M433.3,15.5l3.9,1.9"/>
<path class="st2" d="M441.1,22.4l4.5,2.2"/>
<path class="st3" d="M445.6,24.6l4.5,2.2"/>
<path class="st3" d="M454.6,26.4l4.8-3.3"/>
<path class="st1" d="M459.4,23.1l4.8-3.3"/>
<path class="st1" d="M464.2,19.9l5.5,2.7"/>
<path class="st11" d="M469.7,22.5l5.5,2.7"/>
<path class="st11" d="M479.2,24.8l4.2-2.8"/>
<path class="st2" d="M483.3,22l4.2-2.8"/>
<path class="st11" d="M478.8,21.6l2.9-2"/>
<path class="st2" d="M481.7,19.6l2.9-2"/>
<path class="st2" d="M490.8,18.9l9.6,4.7"/>
<path class="st2" d="M491,22.2l6.7,3.3"/>
<path class="st2" d="M504.7,22.6l3.8-2.6"/>
<path class="st4" d="M508.5,20.1l3.8-2.6"/>
<path class="st4" d="M515.7,17.2l5.6,2.7"/>
<path class="st1" d="M521.4,19.9l5.6,2.7"/>
<path class="st4" d="M516.2,20.6l3.9,1.9"/>
<path class="st1" d="M520.1,22.5l3.9,1.9"/>
<path class="st4" d="M518.7,15.4l3.9,1.9"/>
<path class="st1" d="M522.6,17.3l3.9,1.9"/>
<path class="st1" d="M527,22.7l5.6,2.7"/>
<path class="st4" d="M532.6,25.4l5.6,2.7"/>
<path class="st12" d="M389.7,37.4l1.4,2.2c0.1,0.1,0.2,0.4,0.4,0.6c0.1,0.3,0.2,0.4,0.2,0.4v-3.3h0.6v4.2h-0.6l-1.5-2.5
	c-0.1-0.2-0.2-0.4-0.4-0.6c-0.1-0.2-0.2-0.4-0.2-0.4v3.5H389v-4.2H389.7"/>
<path class="st12" d="M392.4,38.1h1.5v0.3h-1.5V38.1"/>
<path class="st8" d="M388.4,26.6c0,0,0.1,0,0.2,0.1c0.1,0.1,0.3,0.1,0.4,0.1c0.1,0,0.3,0,0.4,0c0.3,0,0.5-0.1,0.6-0.2
	c0.2-0.1,0.2-0.3,0.2-0.5c0-0.2,0-0.3-0.1-0.4c-0.1-0.1-0.2-0.2-0.3-0.2c-0.1-0.1-0.3-0.1-0.5-0.2c-0.3-0.1-0.5-0.1-0.6-0.2
	c-0.1-0.1-0.3-0.2-0.4-0.3c-0.1-0.2-0.2-0.4-0.2-0.6c0-0.4,0.1-0.6,0.4-0.9c0.2-0.2,0.6-0.3,1.1-0.3c0.3,0,0.7,0.1,1.1,0.2l-0.1,0.5
	c-0.3-0.1-0.6-0.2-0.9-0.2c-0.3,0-0.5,0.1-0.6,0.2c-0.2,0.1-0.2,0.3-0.2,0.5c0,0.2,0,0.3,0.1,0.4c0.1,0.1,0.2,0.2,0.3,0.2
	c0.1,0.1,0.3,0.1,0.5,0.2c0.3,0.1,0.5,0.2,0.6,0.2c0.2,0.1,0.3,0.2,0.4,0.4c0.1,0.2,0.2,0.4,0.2,0.7c0,0.4-0.1,0.7-0.4,0.9
	c-0.3,0.2-0.6,0.3-1,0.3c-0.3,0-0.5,0-0.7-0.1c-0.2-0.1-0.4-0.1-0.6-0.2L388.4,26.6"/>
<path class="st8" d="M391.1,23.6h1.5V24h-1.5V23.6"/>
<path d="M399.9,17.1c0-0.7,0.2-1.2,0.5-1.6c0.3-0.4,0.8-0.6,1.4-0.6c0.6,0,1,0.2,1.3,0.6l-0.4,0.3c-0.2-0.3-0.5-0.4-0.9-0.4
	c-0.4,0-0.8,0.1-1,0.4c-0.2,0.3-0.3,0.7-0.3,1.2c0,0.6,0.1,1,0.3,1.3c0.2,0.3,0.6,0.4,1,0.4c0.3,0,0.6-0.1,1-0.3l0.2,0.4
	c-0.1,0.1-0.3,0.2-0.6,0.2s-0.5,0.1-0.7,0.1c-0.6,0-1.1-0.2-1.4-0.6C400,18.3,399.9,17.8,399.9,17.1"/>
<path class="st6" d="M413.4,6.9c0.5,0,0.8,0.1,1.1,0.3c0.2,0.2,0.4,0.5,0.4,0.9c0,0.4-0.1,0.7-0.4,0.9c-0.2,0.2-0.6,0.3-1.1,0.3
	h-0.7v1.7h-0.6V6.9H413.4 M413.4,8.9c0.3,0,0.5-0.1,0.6-0.2c0.1-0.1,0.2-0.3,0.2-0.6s-0.1-0.4-0.2-0.6c-0.1-0.1-0.4-0.2-0.6-0.2
	h-0.7v1.5H413.4"/>
<path class="st6" d="M415.2,7.6h0.7V6.9h0.3v0.8h0.8v0.3h-0.8v0.8h-0.3V7.9h-0.7V7.6"/>
<path class="st6" d="M439.3,19.5c0.5,0,0.8,0.1,1.1,0.3c0.2,0.2,0.4,0.5,0.4,0.9c0,0.4-0.1,0.7-0.4,0.9c-0.2,0.2-0.6,0.3-1.1,0.3
	h-0.7v1.7H438v-4.2H439.3 M439.3,21.5c0.3,0,0.5-0.1,0.6-0.2c0.1-0.1,0.2-0.3,0.2-0.6s-0.1-0.4-0.2-0.6c-0.1-0.1-0.4-0.2-0.6-0.2
	h-0.7v1.5H439.3"/>
<path class="st6" d="M441.1,20.3h0.7v-0.8h0.3v0.8h0.8v0.3h-0.8v0.8h-0.3v-0.8h-0.7V20.3"/>
<path class="st7" d="M450.4,27.9c0-0.7,0.2-1.2,0.5-1.6c0.3-0.4,0.8-0.6,1.4-0.6s1.1,0.2,1.4,0.6c0.3,0.4,0.5,0.9,0.5,1.6
	c0,0.7-0.2,1.2-0.5,1.6c-0.3,0.4-0.8,0.6-1.4,0.6c-0.6,0-1.1-0.2-1.4-0.6C450.5,29.2,450.4,28.6,450.4,27.9 M452.3,29.7
	c0.4,0,0.8-0.1,1-0.4c0.2-0.3,0.4-0.7,0.4-1.3c0-0.6-0.1-1-0.4-1.3c-0.2-0.3-0.6-0.4-1-0.4c-0.4,0-0.8,0.1-1,0.4
	c-0.2,0.3-0.3,0.7-0.3,1.3c0,0.6,0.1,1,0.3,1.3C451.5,29.5,451.9,29.7,452.3,29.7"/>
<path class="st12" d="M476.3,24l1.4,2.2c0.1,0.1,0.2,0.4,0.4,0.6c0.1,0.3,0.2,0.4,0.2,0.4V24h0.6v4.2h-0.6l-1.5-2.5
	c-0.1-0.2-0.2-0.4-0.4-0.6c-0.1-0.2-0.2-0.4-0.2-0.4v3.5h-0.6V24H476.3"/>
<path class="st6" d="M489,16c0.5,0,0.8,0.1,1.1,0.3c0.2,0.2,0.4,0.5,0.4,0.9c0,0.4-0.1,0.7-0.4,0.9c-0.2,0.2-0.6,0.3-1.1,0.3h-0.7
	v1.7h-0.6V16H489 M489,18c0.3,0,0.5-0.1,0.6-0.2c0.1-0.1,0.2-0.3,0.2-0.6s-0.1-0.4-0.2-0.6c-0.1-0.1-0.4-0.2-0.6-0.2h-0.7V18H489"/>
<path class="st6" d="M490.7,16.7h1.5V17h-1.5V16.7"/>
<path class="st6" d="M502,22.3c0.5,0,0.8,0.1,1.1,0.3c0.2,0.2,0.4,0.5,0.4,0.9c0,0.4-0.1,0.7-0.4,0.9c-0.2,0.2-0.6,0.3-1.1,0.3h-0.7
	v1.7h-0.6v-4.2H502 M502,24.3c0.3,0,0.5-0.1,0.6-0.2c0.1-0.1,0.2-0.3,0.2-0.6c0-0.3-0.1-0.4-0.2-0.6c-0.1-0.1-0.4-0.2-0.6-0.2h-0.7
	v1.5H502"/>
<path class="st6" d="M503.6,23h1.5v0.3h-1.5V23"/>
<path class="st8" d="M512.8,17.8c0,0,0.1,0,0.2,0.1c0.1,0.1,0.3,0.1,0.4,0.1c0.1,0,0.3,0,0.4,0c0.3,0,0.5-0.1,0.6-0.2
	c0.2-0.1,0.2-0.3,0.2-0.5c0-0.2,0-0.3-0.1-0.4c-0.1-0.1-0.2-0.2-0.3-0.2c-0.1-0.1-0.3-0.1-0.5-0.2c-0.3-0.1-0.5-0.2-0.6-0.2
	c-0.1-0.1-0.3-0.2-0.4-0.3c-0.1-0.2-0.2-0.4-0.2-0.6c0-0.4,0.1-0.6,0.4-0.9c0.2-0.2,0.6-0.3,1.1-0.3c0.3,0,0.7,0.1,1.1,0.2l-0.1,0.5
	c-0.3-0.1-0.6-0.2-0.9-0.2c-0.3,0-0.5,0.1-0.6,0.2c-0.2,0.1-0.2,0.3-0.2,0.5c0,0.2,0,0.3,0.1,0.4c0.1,0.1,0.2,0.2,0.3,0.2
	c0.1,0.1,0.3,0.1,0.5,0.2c0.3,0.1,0.5,0.2,0.6,0.2c0.2,0.1,0.3,0.2,0.4,0.4c0.1,0.2,0.2,0.4,0.2,0.7c0,0.4-0.1,0.7-0.4,0.9
	c-0.3,0.2-0.6,0.3-1,0.3c-0.3,0-0.5,0-0.7-0.1c-0.2-0.1-0.4-0.1-0.6-0.2L512.8,17.8"/>
<path class="st8" d="M538.7,30.4c0,0,0.1,0,0.2,0.1c0.1,0.1,0.3,0.1,0.4,0.1c0.1,0,0.3,0,0.4,0c0.3,0,0.5-0.1,0.6-0.2
	c0.2-0.1,0.2-0.3,0.2-0.5c0-0.2,0-0.3-0.1-0.4c-0.1-0.1-0.2-0.2-0.3-0.2s-0.3-0.1-0.5-0.2c-0.3-0.1-0.5-0.1-0.6-0.2
	c-0.1-0.1-0.3-0.2-0.4-0.3c-0.1-0.2-0.2-0.4-0.2-0.6c0-0.4,0.1-0.6,0.4-0.9c0.2-0.2,0.6-0.3,1.1-0.3c0.3,0,0.7,0.1,1,0.2l-0.1,0.5
	c-0.3-0.1-0.6-0.2-0.9-0.2c-0.3,0-0.5,0.1-0.6,0.2c-0.2,0.1-0.2,0.3-0.2,0.5c0,0.2,0,0.3,0.1,0.4c0.1,0.1,0.2,0.2,0.3,0.2
	c0.1,0.1,0.3,0.1,0.5,0.2c0.3,0.1,0.5,0.2,0.6,0.2c0.2,0.1,0.3,0.2,0.4,0.4c0.1,0.2,0.2,0.4,0.2,0.7c0,0.4-0.1,0.7-0.4,0.9
	c-0.3,0.2-0.6,0.3-1,0.3c-0.3,0-0.5,0-0.7-0.1c-0.2-0.1-0.4-0.1-0.6-0.2L538.7,30.4"/>
<path class="st8" d="M541.8,26.8h0.6v1.8h2.2v-1.8h0.6v4.2h-0.6v-2h-2.2v2h-0.6V26.8"/>
<path class="st10" d="M387.6,25.1L387.6,25.1L387.6,25.1L387.6,25.1l0-0.1l0,0l0,0l0,0l0,0l0,0l0,0l0,0l0,0l0,0l0,0l0,0l0,0l0,0l0,0
	l0,0l0,0l0,0l0,0l0,0l0,0l0,0l0,0l0,0l0,0l0,0l0,0l0,0l0,0l0,0l0,0l0,0l0,0v0l0,0l0,0l0,0l0,0l0,0l0,0l0,0l0,0l0,0l0,0l0,0l0,0l0,0
	l0,0l0,0l0,0l0,0l0,0l0,0l0,0l0,0l0,0l0,0l0,0l0,0l0,0l0,0l0,0l0,0l0,0l0,0l0,0L387.6,25.1L387.6,25.1L387.6,25.1L387.6,25.1h-0.3
	H387.6z"/>
<path class="st10" d="M413.8,6.4L413.8,6.4L413.8,6.4L413.8,6.4l0-0.1l0,0l0,0l0,0l0,0l0,0l0,0l0,0l0,0l0,0l0,0l0,0l0,0l0,0l0,0l0,0
	l0,0l0,0l0,0l0,0l0,0l0,0l0,0l0,0l0,0l0,0l0,0l0,0l0,0l0,0l0,0l0,0l0,0v0l0,0l0,0l0,0l0,0l0,0l0,0l0,0l0,0l0,0l0,0l0,0l0,0l0,0l0,0
	l0,0l0,0l0,0l0,0l0,0l0,0l0,0l0,0l0,0l0,0l0,0l0,0l0,0l0,0l0,0l0,0l0,0l0,0L413.8,6.4L413.8,6.4L413.8,6.4L413.8,6.4h-0.3H413.8z"/>
<path class="st10" d="M502.4,27L502.4,27L502.4,27L502.4,27l0-0.1l0,0l0,0l0,0l0,0l0,0l0,0l0,0l0,0l0,0l0,0l0,0l0,0l0,0l0,0l0,0l0,0
	l0,0l0,0l0,0l0,0l0,0l0,0l0,0l0,0l0,0l0,0l0,0l0,0l0,0l0,0l0,0l0,0v0l0,0l0,0l0,0l0,0l0,0l0,0l0,0l0,0l0,0l0,0l0,0l0,0l0,0l0,0l0,0
	l0,0l0,0l0,0l0,0l0,0l0,0l0,0l0,0l0,0l0,0l0,0l0,0l0,0l0,0l0,0l0,0l0,0L502.4,27L502.4,27L502.4,27L502.4,27h-0.3H502.4z"/>
<path class="st4" d="M101.1,220.8l-7.6,4.1"/>
<path class="st4" d="M99.7,218.3l-6.5,3.5"/>
<path class="st4" d="M102.4,223.4l-6.5,3.5"/>
<path class="st4" d="M88.4,225.7L84,223"/>
<path class="st2" d="M84,223l-4.4-2.7"/>
<path class="st2" d="M76.1,220.1l-7.1,3.8"/>
<path class="st2" d="M63.5,225l-4.3-2.7"/>
<path class="st11" d="M59.2,222.4l-4.3-2.7"/>
<path class="st2" d="M63.7,221.8l-3-1.9"/>
<path class="st11" d="M60.7,219.9l-3-1.9"/>
<path class="st11" d="M51,219.6l-5.3,2.9"/>
<path class="st1" d="M45.6,222.5l-5.3,2.9"/>
<path class="st1" d="M40.3,225.4l-5.3-3.2"/>
<path class="st4" d="M35,222.1l-5.3-3.2"/>
<path class="st4" d="M26.3,218.8l-4.9,2.6"/>
<path class="st5" d="M21.4,221.4l-4.9,2.6"/>
<path class="st8" d="M101.6,221.4c0,0,0.1,0,0.2,0.1c0.1,0.1,0.3,0.1,0.4,0.1c0.1,0,0.3,0,0.4,0c0.3,0,0.5-0.1,0.6-0.2
	c0.2-0.1,0.2-0.3,0.2-0.5c0-0.2,0-0.3-0.1-0.4c-0.1-0.1-0.2-0.2-0.3-0.2c-0.1-0.1-0.3-0.1-0.5-0.2c-0.3-0.1-0.5-0.1-0.6-0.2
	c-0.1-0.1-0.3-0.2-0.4-0.3c-0.1-0.2-0.2-0.4-0.2-0.6c0-0.4,0.1-0.6,0.4-0.9c0.2-0.2,0.6-0.3,1.1-0.3c0.3,0,0.7,0.1,1,0.2l-0.1,0.5
	c-0.3-0.1-0.6-0.2-0.9-0.2c-0.3,0-0.5,0.1-0.6,0.2c-0.2,0.1-0.2,0.3-0.2,0.5c0,0.2,0,0.3,0.1,0.4c0.1,0.1,0.2,0.2,0.3,0.2
	c0.1,0.1,0.3,0.1,0.5,0.2c0.3,0.1,0.5,0.2,0.6,0.2c0.2,0.1,0.3,0.2,0.4,0.4c0.1,0.2,0.2,0.4,0.2,0.7c0,0.4-0.1,0.7-0.4,0.9
	c-0.3,0.2-0.6,0.3-1,0.3c-0.3,0-0.5,0-0.7-0.1c-0.2-0.1-0.4-0.1-0.6-0.2L101.6,221.4"/>
<path class="st8" d="M104.4,218.4h1.5v0.3h-1.5V218.4"/>
<path class="st8" d="M88.9,228.2c0,0,0.1,0,0.2,0.1c0.1,0.1,0.3,0.1,0.4,0.1c0.1,0,0.3,0,0.4,0c0.3,0,0.5-0.1,0.6-0.2
	c0.2-0.1,0.2-0.3,0.2-0.5c0-0.2,0-0.3-0.1-0.4c-0.1-0.1-0.2-0.2-0.3-0.2c-0.1-0.1-0.3-0.1-0.5-0.2c-0.3-0.1-0.5-0.2-0.6-0.2
	c-0.1-0.1-0.3-0.2-0.4-0.3c-0.1-0.2-0.2-0.4-0.2-0.6c0-0.4,0.1-0.6,0.4-0.9c0.2-0.2,0.6-0.3,1.1-0.3c0.3,0,0.7,0.1,1.1,0.2l-0.1,0.5
	c-0.3-0.1-0.6-0.2-0.9-0.2c-0.3,0-0.5,0.1-0.6,0.2c-0.2,0.1-0.2,0.3-0.2,0.5c0,0.2,0,0.3,0.1,0.4c0.1,0.1,0.2,0.2,0.3,0.2
	c0.1,0.1,0.3,0.1,0.5,0.2c0.3,0.1,0.5,0.2,0.6,0.2s0.3,0.2,0.4,0.4c0.1,0.2,0.2,0.4,0.2,0.7c0,0.4-0.1,0.7-0.4,0.9
	c-0.3,0.2-0.6,0.3-1,0.3c-0.3,0-0.5,0-0.7-0.1c-0.2-0.1-0.4-0.1-0.6-0.2L88.9,228.2"/>
<path class="st8" d="M91.7,225.3h1.5v0.3h-1.5V225.3"/>
<path class="st6" d="M77.8,217.1c0.5,0,0.8,0.1,1.1,0.3c0.2,0.2,0.4,0.5,0.4,0.9c0,0.4-0.1,0.7-0.4,0.9c-0.2,0.2-0.6,0.3-1.1,0.3
	h-0.7v1.7h-0.6v-4.2H77.8 M77.8,219.1c0.3,0,0.5-0.1,0.6-0.2s0.2-0.3,0.2-0.6c0-0.3-0.1-0.4-0.2-0.6c-0.1-0.1-0.4-0.2-0.6-0.2h-0.7
	v1.5H77.8"/>
<path class="st6" d="M79.4,217.8h1.5v0.3h-1.5V217.8"/>
<path class="st6" d="M65.1,223.9c0.5,0,0.8,0.1,1.1,0.3c0.2,0.2,0.4,0.5,0.4,0.9c0,0.4-0.1,0.7-0.4,0.9c-0.2,0.2-0.6,0.3-1.1,0.3
	h-0.7v1.7h-0.6v-4.2H65.1 M65.1,226c0.3,0,0.5-0.1,0.6-0.2c0.1-0.1,0.2-0.3,0.2-0.6c0-0.3-0.1-0.4-0.2-0.6c-0.1-0.1-0.4-0.2-0.6-0.2
	h-0.7v1.5H65.1"/>
<path class="st6" d="M66.9,224.7h0.7v-0.8H68v0.8h0.8v0.3H68v0.8h-0.3V225h-0.7V224.7"/>
<path class="st12" d="M52,216.4l1.4,2.2c0.1,0.1,0.2,0.4,0.4,0.6c0.1,0.3,0.2,0.4,0.2,0.4v-3.3h0.6v4.2H54l-1.5-2.5
	c-0.1-0.2-0.2-0.4-0.4-0.6c-0.1-0.2-0.2-0.4-0.2-0.4v3.5h-0.6v-4.2H52"/>
<path class="st8" d="M26.8,219.3c0,0,0.1,0,0.2,0.1c0.1,0.1,0.3,0.1,0.4,0.1c0.1,0,0.3,0,0.4,0c0.3,0,0.5-0.1,0.6-0.2
	c0.2-0.1,0.2-0.3,0.2-0.5c0-0.2,0-0.3-0.1-0.4c-0.1-0.1-0.2-0.2-0.3-0.2s-0.3-0.1-0.5-0.2c-0.3-0.1-0.5-0.1-0.6-0.2
	c-0.1-0.1-0.3-0.2-0.4-0.3c-0.1-0.2-0.2-0.4-0.2-0.6c0-0.4,0.1-0.6,0.4-0.9c0.2-0.2,0.6-0.3,1.1-0.3c0.3,0,0.7,0.1,1,0.2l-0.1,0.5
	c-0.3-0.1-0.6-0.2-0.9-0.2c-0.3,0-0.5,0.1-0.6,0.2c-0.2,0.1-0.2,0.3-0.2,0.5c0,0.2,0,0.3,0.1,0.4c0.1,0.1,0.2,0.2,0.3,0.2
	c0.1,0.1,0.3,0.1,0.5,0.2c0.3,0.1,0.5,0.2,0.6,0.2c0.2,0.1,0.3,0.2,0.4,0.4c0.1,0.2,0.2,0.4,0.2,0.7c0,0.4-0.1,0.7-0.4,0.9
	c-0.3,0.2-0.6,0.3-1,0.3c-0.3,0-0.5,0-0.7-0.1c-0.2-0.1-0.4-0.1-0.6-0.2L26.8,219.3"/>
<path class="st9" d="M13.1,224.6c0.3,0.1,0.5,0.2,0.6,0.4c0.1,0.2,0.2,0.4,0.2,0.6c0,0.4-0.1,0.7-0.4,0.9c-0.2,0.2-0.6,0.3-1.1,0.3
	H11v-4.2h1.3c0.5,0,0.8,0.1,1.1,0.3c0.2,0.2,0.4,0.5,0.4,0.8C13.7,224.1,13.5,224.4,13.1,224.6 M11.6,223v1.3h0.7
	c0.3,0,0.5-0.1,0.6-0.2c0.1-0.1,0.2-0.3,0.2-0.5c0-0.4-0.3-0.6-0.9-0.6H11.6 M12.5,226.3c0.3,0,0.5-0.1,0.6-0.2
	c0.1-0.1,0.2-0.3,0.2-0.6c0-0.2-0.1-0.4-0.2-0.5c-0.2-0.1-0.4-0.2-0.7-0.2h-0.8v1.5H12.5"/>
<path class="st9" d="M14.9,223.7l0.1,0.4c0.2-0.3,0.5-0.5,0.9-0.5c0.1,0,0.2,0,0.4,0.1l-0.1,0.5c-0.2,0-0.3-0.1-0.4-0.1
	c-0.2,0-0.3,0-0.4,0.1c-0.1,0.1-0.2,0.2-0.3,0.3v2.2h-0.6v-3.1H14.9"/>
<path class="st10" d="M90.4,229.4L90.4,229.4L90.4,229.4L90.4,229.4l0-0.1l0,0l0,0l0,0l0,0l0,0l0,0l0,0l0,0l0,0l0,0l0,0l0,0l0,0l0,0
	h0l0,0l0,0l0,0l0,0l0,0l0,0l0,0l0,0l0,0l0,0l0,0l0,0l0,0l0,0l0,0l0,0l0,0v0l0,0l0,0l0,0l0,0l0,0l0,0l0,0l0,0l0,0l0,0l0,0l0,0l0,0
	l0,0l0,0l0,0l0,0l0,0l0,0l0,0l0,0l0,0l0,0l0,0l0,0l0,0l0,0l0,0l0,0l0,0l0,0l0,0L90.4,229.4L90.4,229.4L90.4,229.4L90.4,229.4h-0.3
	H90.4z"/>
<path class="st10" d="M65.5,228.6L65.5,228.6L65.5,228.6L65.5,228.6l0-0.1l0,0l0,0l0,0l0,0l0,0l0,0l0,0l0,0l0,0l0,0l0,0l0,0l0,0l0,0
	h0l0,0l0,0l0,0l0,0l0,0l0,0l0,0l0,0l0,0l0,0l0,0l0,0l0,0l0,0l0,0l0,0l0,0v0l0,0l0,0l0,0l0,0l0,0l0,0l0,0l0,0l0,0l0,0l0,0l0,0l0,0
	l0,0l0,0l0,0l0,0l0,0l0,0l0,0l0,0l0,0l0,0l0,0l0,0l0,0l0,0l0,0l0,0l0,0l0,0l0,0L65.5,228.6L65.5,228.6L65.5,228.6L65.5,228.6h-0.3
	H65.5z"/>
<path class="st11" d="M255.7,199.4l-0.5,9.5"/>
<path class="st11" d="M258.6,199.5l-0.5,9.5"/>
<path class="st11" d="M258.5,212.6l8.2,5.3"/>
<path class="st11" d="M254.5,212.3l-7.5,3.8"/>
<path class="st11" d="M270.6,220.5l4.2,2.7"/>
<path class="st2" d="M274.8,223.2l4.2,2.7"/>
<path class="st11" d="M270.3,223.7l3,1.9"/>
<path class="st2" d="M273.2,225.6l3,1.9"/>
<path class="st11" d="M273.4,218.9l3,1.9"/>
<path class="st2" d="M276.4,220.8l3,1.9"/>
<path class="st2" d="M282.4,228.2l4.9,3.2"/>
<path class="st13" d="M287.3,231.3l4.9,3.2"/>
<path class="st11" d="M243.5,220.4l-0.3,4.7"/>
<path class="st2" d="M243.3,225.1l-0.3,4.7"/>
<path class="st2" d="M241.2,233.1l-5,2.5"/>
<path class="st5" d="M236.2,235.6l-5,2.5"/>
<path class="st12" d="M256.3,194.8l1.4,2.2c0.1,0.1,0.2,0.4,0.4,0.6c0.1,0.3,0.2,0.4,0.2,0.4v-3.3h0.6v4.2h-0.6l-1.5-2.5
	c-0.1-0.2-0.2-0.4-0.4-0.6c-0.1-0.2-0.2-0.4-0.2-0.4v3.5h-0.6v-4.2H256.3"/>
<path class="st12" d="M259.4,194.8h0.6v1.8h2.2v-1.8h0.6v4.2h-0.6v-2H260v2h-0.6V194.8"/>
<path class="st12" d="M255.6,209.2l1.4,2.2c0.1,0.1,0.2,0.4,0.4,0.6c0.1,0.3,0.2,0.4,0.2,0.4v-3.3h0.6v4.2h-0.6l-1.5-2.5
	c-0.1-0.2-0.2-0.4-0.4-0.6c-0.1-0.2-0.2-0.4-0.2-0.4v3.5h-0.6v-4.2H255.6"/>
<path class="st12" d="M258.5,210h0.7v-0.8h0.3v0.8h0.8v0.3h-0.8v0.8h-0.3v-0.8h-0.7V210"/>
<path class="st12" d="M267.7,217.1l1.4,2.2c0.1,0.1,0.2,0.4,0.4,0.6c0.1,0.3,0.2,0.4,0.2,0.4v-3.3h0.6v4.2h-0.6l-1.5-2.5
	c-0.1-0.2-0.2-0.4-0.4-0.6c-0.1-0.2-0.2-0.4-0.2-0.4v3.5H267v-4.2H267.7"/>
<path class="st12" d="M270.6,217.8h0.7V217h0.3v0.8h0.8v0.3h-0.8v0.8h-0.3v-0.8h-0.7V217.8"/>
<path class="st6" d="M280.6,224.9c0.5,0,0.8,0.1,1.1,0.3c0.2,0.2,0.4,0.5,0.4,0.9c0,0.4-0.1,0.7-0.4,0.9c-0.2,0.2-0.6,0.3-1.1,0.3
	h-0.7v1.7h-0.6v-4.2H280.6 M280.6,226.9c0.3,0,0.5-0.1,0.6-0.2c0.1-0.1,0.2-0.3,0.2-0.6c0-0.3-0.1-0.4-0.2-0.6
	c-0.1-0.1-0.4-0.2-0.6-0.2h-0.7v1.5H280.6"/>
<path class="st6" d="M282.4,225.7h0.7v-0.8h0.3v0.8h0.8v0.3h-0.8v0.8h-0.3V226h-0.7V225.7"/>
<path class="st14" d="M292.5,232.8h0.6v4.3h-0.6V232.8"/>
<path class="st12" d="M242.7,215.7l1.4,2.2c0.1,0.1,0.2,0.4,0.4,0.6c0.1,0.3,0.2,0.4,0.2,0.4v-3.3h0.6v4.2h-0.6l-1.5-2.5
	c-0.1-0.2-0.2-0.4-0.4-0.6c-0.1-0.2-0.2-0.4-0.2-0.4v3.5h-0.6v-4.2H242.7"/>
<path class="st12" d="M245.5,216.4h1.5v0.3h-1.5V216.4"/>
<path class="st6" d="M242.8,230.1c0.5,0,0.8,0.1,1.1,0.3c0.2,0.2,0.4,0.5,0.4,0.9c0,0.4-0.1,0.7-0.4,0.9c-0.2,0.2-0.6,0.3-1.1,0.3
	h-0.7v1.7h-0.6v-4.2H242.8 M242.8,232.1c0.3,0,0.5-0.1,0.6-0.2c0.1-0.1,0.2-0.3,0.2-0.6c0-0.3-0.1-0.4-0.2-0.6
	c-0.1-0.1-0.4-0.2-0.6-0.2h-0.7v1.5H242.8"/>
<path class="st6" d="M244.6,230.9h0.7v-0.8h0.3v0.8h0.8v0.3h-0.8v0.8h-0.3v-0.8h-0.7V230.9"/>
<path class="st9" d="M227.9,238.7c0.3,0.1,0.5,0.2,0.6,0.4c0.1,0.2,0.2,0.4,0.2,0.6c0,0.4-0.1,0.7-0.4,0.9c-0.2,0.2-0.6,0.3-1.1,0.3
	h-1.4v-4.2h1.3c0.5,0,0.8,0.1,1.1,0.3c0.2,0.2,0.4,0.5,0.4,0.8C228.5,238.2,228.3,238.5,227.9,238.7 M226.4,237.1v1.3h0.7
	c0.3,0,0.5-0.1,0.6-0.2c0.1-0.1,0.2-0.3,0.2-0.5c0-0.4-0.3-0.6-0.9-0.6H226.4 M227.2,240.4c0.3,0,0.5-0.1,0.6-0.2
	c0.1-0.1,0.2-0.3,0.2-0.6c0-0.2-0.1-0.4-0.2-0.5c-0.2-0.1-0.4-0.2-0.7-0.2h-0.8v1.5H227.2"/>
<path class="st9" d="M229.6,237.8l0.1,0.4c0.2-0.3,0.5-0.5,0.9-0.5c0.1,0,0.2,0,0.4,0.1l-0.1,0.5c-0.2,0-0.3-0.1-0.4-0.1
	c-0.2,0-0.3,0-0.4,0.1c-0.1,0.1-0.2,0.2-0.3,0.3v2.2h-0.6v-3.1H229.6"/>
<path class="st10" d="M247.7,231.6L247.7,231.6L247.7,231.6L247.7,231.6l0-0.1l0,0l0,0l0,0l0,0l0,0l0,0l0,0l0,0l0,0l0,0l0,0l0,0l0,0
	l0,0h0l0,0l0,0l0,0l0,0l0,0l0,0l0,0l0,0l0,0l0,0l0,0l0,0l0,0l0,0l0,0l0,0l0,0v0l0,0l0,0l0,0l0,0l0,0l0,0l0,0l0,0l0,0l0,0l0,0l0,0
	l0,0l0,0l0,0l0,0l0,0h0l0,0l0,0l0,0l0,0l0,0l0,0l0,0l0,0l0,0l0,0l0,0l0,0l0,0l0,0L247.7,231.6L247.7,231.6L247.7,231.6L247.7,231.6
	h-0.3H247.7z"/>
<path class="st10" d="M247.7,232.8L247.7,232.8L247.7,232.8L247.7,232.8l0-0.1l0,0l0,0l0,0l0,0l0,0l0,0l0,0l0,0l0,0l0,0l0,0l0,0l0,0
	l0,0h0l0,0l0,0l0,0l0,0l0,0l0,0l0,0l0,0l0,0l0,0l0,0l0,0l0,0l0,0l0,0l0,0l0,0v0l0,0l0,0l0,0l0,0l0,0l0,0l0,0l0,0l0,0l0,0l0,0l0,0
	l0,0l0,0l0,0l0,0l0,0h0l0,0l0,0l0,0l0,0l0,0l0,0l0,0l0,0l0,0l0,0l0,0l0,0l0,0l0,0L247.7,232.8L247.7,232.8L247.7,232.8L247.7,232.8
	h-0.3H247.7z"/>
<path class="st13" d="M434.8,219.8l4.8,2.8"/>
<path class="st3" d="M439.5,222.5l4.8,2.8"/>
<path class="st3" d="M451,224.1l3.2-1.9"/>
<path class="st2" d="M454.2,222.2l3.2-1.9"/>
<path class="st3" d="M450.5,221l2.3-1.3"/>
<path class="st2" d="M452.8,219.7l2.3-1.3"/>
<path class="st2" d="M460.8,220.4l9.1,5.2"/>
<path class="st2" d="M473.2,225.6l5.1-2.9"/>
<path class="st13" d="M478.3,222.7l5.1-2.9"/>
<path class="st14" d="M433.8,217.3h0.6v4.3h-0.6V217.3"/>
<path class="st7" d="M444.6,226.6c0-0.7,0.2-1.2,0.5-1.6c0.3-0.4,0.8-0.6,1.4-0.6s1.1,0.2,1.4,0.6c0.3,0.4,0.5,0.9,0.5,1.6
	c0,0.7-0.2,1.2-0.5,1.6c-0.3,0.4-0.8,0.6-1.4,0.6c-0.6,0-1.1-0.2-1.4-0.6C444.8,227.9,444.6,227.3,444.6,226.6 M446.6,228.3
	c0.4,0,0.8-0.1,1-0.4c0.2-0.3,0.4-0.7,0.4-1.3c0-0.6-0.1-1-0.4-1.3c-0.2-0.3-0.6-0.4-1-0.4s-0.8,0.1-1,0.4c-0.2,0.3-0.3,0.7-0.3,1.3
	c0,0.6,0.1,1,0.3,1.3C445.8,228.2,446.1,228.3,446.6,228.3"/>
<path class="st7" d="M448.9,225.2h0.7v-0.8h0.3v0.8h0.8v0.3H450v0.8h-0.3v-0.8h-0.7V225.2"/>
<path class="st6" d="M459,217.3c0.5,0,0.8,0.1,1.1,0.3c0.2,0.2,0.4,0.5,0.4,0.9c0,0.4-0.1,0.7-0.4,0.9c-0.2,0.2-0.6,0.3-1.1,0.3
	h-0.7v1.7h-0.6v-4.2H459 M459,219.3c0.3,0,0.5-0.1,0.6-0.2c0.1-0.1,0.2-0.3,0.2-0.6s-0.1-0.4-0.2-0.6c-0.1-0.1-0.4-0.2-0.6-0.2h-0.7
	v1.5H459"/>
<path class="st6" d="M471.4,224.5c0.5,0,0.8,0.1,1.1,0.3c0.2,0.2,0.4,0.5,0.4,0.9c0,0.4-0.1,0.7-0.4,0.9c-0.2,0.2-0.6,0.3-1.1,0.3
	h-0.7v1.7h-0.6v-4.2H471.4 M471.4,226.5c0.3,0,0.5-0.1,0.6-0.2c0.1-0.1,0.2-0.3,0.2-0.6c0-0.3-0.1-0.4-0.2-0.6
	c-0.1-0.1-0.4-0.2-0.6-0.2h-0.7v1.5H471.4"/>
<path class="st6" d="M469.9,229.2h0.6v1.8h2.2v-1.8h0.6v4.2h-0.6v-2h-2.2v2h-0.6V229.2"/>
<path class="st14" d="M483.7,217.3h0.6v4.3h-0.6V217.3"/>
<path class="st15" d="M33.1,423.7l5-2"/>
<path class="st4" d="M38.1,421.7l5-2"/>
<path class="st4" d="M46.5,420.4l4,3.1"/>
<path class="st2" d="M50.5,423.5l4,3.1"/>
<path class="st2" d="M57.9,427.2l10-4"/>
<path class="st2" d="M60.4,429.3l7-2.8"/>
<path class="st2" d="M58.3,424l7-2.8"/>
<path class="st2" d="M71.2,423.9l4,3.1"/>
<path class="st4" d="M75.2,427l4,3.1"/>
<path class="st2" d="M70.6,427.1l3.4,2.7"/>
<path class="st4" d="M74,429.8l3.4,2.7"/>
<path class="st2" d="M74.2,422.6l3.4,2.7"/>
<path class="st4" d="M77.6,425.2l3.4,2.7"/>
<path class="st2" d="M69.9,420.1l0.7-4.7"/>
<path class="st13" d="M70.5,415.4l0.7-4.7"/>
<path class="st16" d="M30.2,422.3h2.5v0.5h-2v1.3h1.7v0.5h-1.7v2h-0.6V422.3"/>
<path class="st8" d="M43.6,420.5c0,0,0.1,0,0.2,0.1c0.1,0.1,0.3,0.1,0.4,0.1c0.1,0,0.3,0,0.4,0c0.3,0,0.5-0.1,0.6-0.2
	c0.2-0.1,0.2-0.3,0.2-0.5c0-0.2,0-0.3-0.1-0.4c-0.1-0.1-0.2-0.2-0.3-0.2c-0.1-0.1-0.3-0.1-0.5-0.2c-0.3-0.1-0.5-0.1-0.6-0.2
	c-0.1-0.1-0.3-0.2-0.4-0.3c-0.1-0.2-0.2-0.4-0.2-0.6c0-0.4,0.1-0.6,0.4-0.9c0.2-0.2,0.6-0.3,1.1-0.3c0.3,0,0.7,0.1,1.1,0.2l-0.1,0.5
	c-0.3-0.1-0.6-0.2-0.9-0.2c-0.3,0-0.5,0.1-0.6,0.2c-0.2,0.1-0.2,0.3-0.2,0.5c0,0.2,0,0.3,0.1,0.4c0.1,0.1,0.2,0.2,0.3,0.2
	c0.1,0.1,0.3,0.1,0.5,0.2c0.3,0.1,0.5,0.2,0.6,0.2s0.3,0.2,0.4,0.4c0.1,0.2,0.2,0.4,0.2,0.7c0,0.4-0.1,0.7-0.4,0.9
	c-0.3,0.2-0.6,0.3-1,0.3c-0.3,0-0.5,0-0.7-0.1c-0.2-0.1-0.4-0.1-0.6-0.2L43.6,420.5"/>
<path class="st6" d="M56,425.8c0.5,0,0.8,0.1,1.1,0.3c0.2,0.2,0.4,0.5,0.4,0.9c0,0.4-0.1,0.7-0.4,0.9c-0.2,0.2-0.6,0.3-1.1,0.3h-0.7
	v1.7h-0.6v-4.2H56 M56,427.8c0.3,0,0.5-0.1,0.6-0.2c0.1-0.1,0.2-0.3,0.2-0.6c0-0.3-0.1-0.4-0.2-0.6c-0.1-0.1-0.4-0.2-0.6-0.2h-0.7
	v1.5H56"/>
<path class="st6" d="M54.5,430.5h0.6v1.8h2.2v-1.8h0.6v4.2h-0.6v-2h-2.2v2h-0.6V430.5"/>
<path class="st6" d="M69.4,420.5c0.5,0,0.8,0.1,1.1,0.3c0.2,0.2,0.4,0.5,0.4,0.9c0,0.4-0.1,0.7-0.4,0.9c-0.2,0.2-0.6,0.3-1.1,0.3
	h-0.7v1.7h-0.6v-4.2H69.4 M69.4,422.5c0.3,0,0.5-0.1,0.6-0.2c0.1-0.1,0.2-0.3,0.2-0.6c0-0.3-0.1-0.4-0.2-0.6
	c-0.1-0.1-0.4-0.2-0.6-0.2h-0.7v1.5H69.4"/>
<path class="st6" d="M71.2,421.2H72v-0.8h0.3v0.8h0.8v0.3h-0.8v0.8H72v-0.8h-0.7V421.2"/>
<path class="st8" d="M79.6,432.9c0,0,0.1,0,0.2,0.1c0.1,0.1,0.3,0.1,0.4,0.1c0.1,0,0.3,0,0.4,0c0.3,0,0.5-0.1,0.6-0.2
	c0.2-0.1,0.2-0.3,0.2-0.5c0-0.2,0-0.3-0.1-0.4c-0.1-0.1-0.2-0.2-0.3-0.2c-0.1-0.1-0.3-0.1-0.5-0.2c-0.3-0.1-0.5-0.1-0.6-0.2
	c-0.1-0.1-0.3-0.2-0.4-0.3c-0.1-0.2-0.2-0.4-0.2-0.6c0-0.4,0.1-0.6,0.4-0.9c0.2-0.2,0.6-0.3,1.1-0.3c0.3,0,0.7,0.1,1.1,0.2l-0.1,0.5
	c-0.3-0.1-0.6-0.2-0.9-0.2c-0.3,0-0.5,0.1-0.6,0.2c-0.2,0.1-0.2,0.3-0.2,0.5c0,0.2,0,0.3,0.1,0.4c0.1,0.1,0.2,0.2,0.3,0.2
	c0.1,0.1,0.3,0.1,0.5,0.2c0.3,0.1,0.5,0.2,0.6,0.2c0.2,0.1,0.3,0.2,0.4,0.4c0.1,0.2,0.2,0.4,0.2,0.7c0,0.4-0.1,0.7-0.4,0.9
	c-0.3,0.2-0.6,0.3-1,0.3c-0.3,0-0.5,0-0.7-0.1c-0.2-0.1-0.4-0.1-0.6-0.2L79.6,432.9"/>
<path class="st8" d="M82.4,430h1.5v0.3h-1.5V430"/>
<path class="st14" d="M71.3,406.2h0.6v4.3h-0.6V406.2"/>
<path class="st10" d="M69.8,425.1L69.8,425.1L69.8,425.1L69.8,425.1l0-0.1l0,0l0,0l0,0l0,0l0,0l0,0l0,0l0,0l0,0l0,0l0,0l0,0l0,0l0,0
	h0l0,0l0,0l0,0l0,0l0,0l0,0l0,0l0,0l0,0l0,0l0,0l0,0l0,0l0,0l0,0l0,0l0,0v0l0,0l0,0l0,0l0,0l0,0l0,0l0,0l0,0l0,0l0,0l0,0l0,0l0,0
	l0,0l0,0l0,0l0,0h0l0,0l0,0l0,0l0,0l0,0l0,0l0,0l0,0l0,0l0,0l0,0l0,0l0,0l0,0L69.8,425.1L69.8,425.1L69.8,425.1L69.8,425.1h-0.3
	H69.8z"/>
<path class="st11" d="M252.8,444.5l-0.9-9.4"/>
<path class="st11" d="M253.7,431.2l3.9-2.8"/>
<path class="st1" d="M257.6,428.4l3.9-2.8"/>
<path class="st11" d="M249.7,431.7l-4.7-2.2"/>
<path class="st4" d="M245,429.6l-4.7-2.2"/>
<path class="st1" d="M267,421.8l3.2-2.2"/>
<path class="st11" d="M270.1,419.5l3.2-2.2"/>
<path class="st1" d="M266.3,418.7l2.2-1.6"/>
<path class="st11" d="M268.5,417.2l2.2-1.6"/>
<path class="st11" d="M277.1,416.8l4.6,2.1"/>
<path class="st1" d="M281.7,418.9l4.6,2.1"/>
<path class="st1" d="M291.8,419.4l3.1-2.2"/>
<path class="st17" d="M295,417.1l3.1-2.2"/>
<path class="st4" d="M238.4,424.2l-0.5-4.7"/>
<path class="st2" d="M237.9,419.5l-0.5-4.7"/>
<path class="st4" d="M241.1,422.5l-0.3-3.3"/>
<path class="st2" d="M240.8,419.2l-0.3-3.3"/>
<path class="st4" d="M235.3,423l-0.3-3.3"/>
<path class="st2" d="M235,419.7l-0.3-3.3"/>
<path class="st2" d="M235.5,411.5l-5.1-2.3"/>
<path class="st5" d="M230.4,409.2l-5.1-2.3"/>
<path class="st12" d="M252.1,444.9l1.4,2.2c0.1,0.1,0.2,0.4,0.4,0.6c0.1,0.3,0.2,0.4,0.2,0.4v-3.3h0.6v4.2h-0.6l-1.5-2.5
	c-0.1-0.2-0.2-0.4-0.4-0.6c-0.1-0.2-0.2-0.4-0.2-0.4v3.5h-0.6v-4.2H252.1"/>
<path class="st12" d="M254.9,445.6h1.5v0.3h-1.5V445.6"/>
<path class="st12" d="M250.8,430.5l1.4,2.2c0.1,0.1,0.2,0.4,0.4,0.6c0.1,0.3,0.2,0.4,0.2,0.4v-3.3h0.6v4.2h-0.6l-1.5-2.5
	c-0.1-0.2-0.2-0.4-0.4-0.6c-0.1-0.2-0.2-0.4-0.2-0.4v3.5h-0.6v-4.2H250.8"/>
<path d="M261.8,424.3c0-0.7,0.2-1.2,0.5-1.6c0.3-0.4,0.8-0.6,1.4-0.6c0.6,0,1,0.2,1.3,0.6l-0.4,0.3c-0.2-0.3-0.5-0.4-0.9-0.5
	c-0.4,0-0.8,0.1-1,0.4c-0.2,0.3-0.3,0.7-0.3,1.2c0,0.6,0.1,1,0.3,1.3c0.2,0.3,0.6,0.4,1,0.4c0.3,0,0.6-0.1,1-0.3l0.2,0.5
	c-0.1,0.1-0.3,0.2-0.6,0.2c-0.2,0.1-0.5,0.1-0.7,0.1c-0.6,0-1.1-0.2-1.4-0.6C262,425.5,261.8,425,261.8,424.3"/>
<path d="M265.4,422.9h0.7v-0.8h0.3v0.8h0.8v0.3h-0.8v0.8h-0.3v-0.8h-0.7V422.9"/>
<path class="st12" d="M274.2,413.8l1.4,2.2c0.1,0.1,0.2,0.4,0.4,0.6c0.1,0.3,0.2,0.4,0.2,0.4v-3.3h0.6v4.2h-0.6l-1.5-2.5
	c-0.1-0.2-0.2-0.4-0.4-0.6c-0.1-0.2-0.2-0.4-0.2-0.4v3.5h-0.6v-4.2H274.2"/>
<path d="M286.6,421.9c0-0.7,0.2-1.2,0.5-1.6c0.3-0.4,0.8-0.6,1.4-0.6c0.6,0,1,0.2,1.3,0.6l-0.4,0.3c-0.2-0.3-0.5-0.4-0.9-0.4
	c-0.4,0-0.8,0.1-1,0.4c-0.2,0.3-0.3,0.7-0.3,1.2c0,0.6,0.1,1,0.3,1.3c0.2,0.3,0.6,0.4,1,0.4c0.3,0,0.6-0.1,1-0.3l0.2,0.5
	c-0.1,0.1-0.3,0.2-0.6,0.2c-0.2,0.1-0.5,0.1-0.7,0.1c-0.6,0-1.1-0.2-1.4-0.6C286.8,423.2,286.6,422.6,286.6,421.9"/>
<path d="M290.3,420.5h0.7v-0.8h0.3v0.8h0.8v0.3h-0.8v0.8H291v-0.8h-0.7V420.5"/>
<path class="st18" d="M298.4,413.7c0-0.7,0.2-1.2,0.5-1.6c0.3-0.4,0.8-0.6,1.4-0.6c0.6,0,1,0.2,1.3,0.6l-0.4,0.3
	c-0.2-0.3-0.5-0.4-0.9-0.4c-0.4,0-0.8,0.1-1,0.4c-0.2,0.3-0.3,0.7-0.3,1.2c0,0.6,0.1,1,0.3,1.3c0.2,0.3,0.6,0.4,1,0.4
	c0.3,0,0.6-0.1,1-0.3l0.2,0.4c-0.1,0.1-0.3,0.2-0.6,0.2c-0.2,0.1-0.5,0.1-0.7,0.1c-0.6,0-1.1-0.2-1.4-0.6
	C298.5,415,298.4,414.4,298.4,413.7"/>
<path class="st18" d="M302.1,411.3h0.6v4.6h-0.6V411.3"/>
<path class="st8" d="M237.4,428.1c0,0,0.1,0,0.2,0.1c0.1,0.1,0.3,0.1,0.4,0.1c0.1,0,0.3,0,0.4,0c0.3,0,0.5-0.1,0.6-0.2
	c0.2-0.1,0.2-0.3,0.2-0.5c0-0.2,0-0.3-0.1-0.4c-0.1-0.1-0.2-0.2-0.3-0.2c-0.1-0.1-0.3-0.1-0.5-0.2c-0.3-0.1-0.5-0.1-0.6-0.2
	c-0.1-0.1-0.3-0.2-0.4-0.3c-0.1-0.2-0.2-0.4-0.2-0.6c0-0.4,0.1-0.6,0.4-0.9c0.2-0.2,0.6-0.3,1.1-0.3c0.3,0,0.7,0.1,1.1,0.2l-0.1,0.5
	c-0.3-0.1-0.6-0.2-0.9-0.2c-0.3,0-0.5,0.1-0.6,0.2c-0.2,0.1-0.2,0.3-0.2,0.5c0,0.2,0,0.3,0.1,0.4c0.1,0.1,0.2,0.2,0.3,0.2
	c0.1,0.1,0.3,0.1,0.5,0.2c0.3,0.1,0.5,0.2,0.6,0.2c0.2,0.1,0.3,0.2,0.4,0.4c0.1,0.2,0.2,0.4,0.2,0.7c0,0.4-0.1,0.7-0.4,0.9
	c-0.3,0.2-0.6,0.3-1,0.3c-0.3,0-0.5,0-0.7-0.1c-0.2-0.1-0.4-0.1-0.6-0.2L237.4,428.1"/>
<path class="st6" d="M237.1,410.2c0.5,0,0.8,0.1,1.1,0.3c0.2,0.2,0.4,0.5,0.4,0.9c0,0.4-0.1,0.7-0.4,0.9c-0.2,0.2-0.6,0.3-1.1,0.3
	h-0.7v1.7h-0.6v-4.2H237.1 M237.1,412.2c0.3,0,0.5-0.1,0.6-0.2c0.1-0.1,0.2-0.3,0.2-0.6c0-0.3-0.1-0.4-0.2-0.6
	c-0.1-0.1-0.4-0.2-0.6-0.2h-0.7v1.5H237.1"/>
<path class="st6" d="M239.1,410.2h0.6v1.8h2.2v-1.8h0.6v4.2h-0.6v-2h-2.2v2h-0.6V410.2"/>
<path class="st9" d="M221.9,406.2c0.3,0.1,0.5,0.2,0.6,0.4c0.1,0.2,0.2,0.4,0.2,0.6c0,0.4-0.1,0.7-0.4,0.9c-0.2,0.2-0.6,0.3-1.1,0.3
	h-1.4v-4.2h1.3c0.5,0,0.8,0.1,1.1,0.3c0.2,0.2,0.4,0.5,0.4,0.8C222.5,405.8,222.3,406.1,221.9,406.2 M220.4,404.7v1.3h0.7
	c0.3,0,0.5-0.1,0.6-0.2c0.1-0.1,0.2-0.3,0.2-0.5c0-0.4-0.3-0.6-0.9-0.6H220.4 M221.3,408c0.3,0,0.5-0.1,0.6-0.2
	c0.1-0.1,0.2-0.3,0.2-0.6c0-0.2-0.1-0.4-0.2-0.5c-0.2-0.1-0.4-0.2-0.7-0.2h-0.8v1.5H221.3"/>
<path class="st9" d="M223.7,405.4l0.1,0.4c0.2-0.3,0.5-0.5,0.9-0.5c0.1,0,0.2,0,0.4,0.1l-0.1,0.5c-0.2,0-0.3-0.1-0.4-0.1
	c-0.2,0-0.3,0-0.4,0.1c-0.1,0.1-0.2,0.2-0.3,0.3v2.2h-0.6v-3.1H223.7"/>
<path class="st10" d="M257.5,447L257.5,447L257.5,447L257.5,447l0-0.1l0,0l0,0l0,0l0,0l0,0l0,0l0,0l0,0l0,0l0,0l0,0l0,0l0,0l0,0l0,0
	l0,0l0,0l0,0l0,0l0,0l0,0l0,0l0,0l0,0l0,0l0,0l0,0l0,0l0,0l0,0l0,0l0,0v0l0,0l0,0l0,0l0,0l0,0l0,0l0,0l0,0l0,0l0,0l0,0l0,0l0,0l0,0
	l0,0l0,0l0,0h0l0,0l0,0l0,0l0,0l0,0l0,0l0,0l0,0l0,0l0,0l0,0l0,0l0,0l0,0L257.5,447L257.5,447L257.5,447L257.5,447h-0.3H257.5z"/>
<path class="st10" d="M288.6,424.6L288.6,424.6L288.6,424.6L288.6,424.6l0-0.1l0,0l0,0l0,0l0,0l0,0l0,0l0,0l0,0l0,0l0,0l0,0l0,0l0,0
	l0,0l0,0l0,0l0,0l0,0l0,0l0,0l0,0l0,0l0,0l0,0l0,0l0,0l0,0l0,0l0,0l0,0l0,0l0,0v0l0,0l0,0l0,0l0,0l0,0l0,0l0,0l0,0l0,0l0,0l0,0l0,0
	l0,0l0,0l0,0l0,0l0,0l0,0l0,0l0,0l0,0l0,0l0,0l0,0l0,0l0,0l0,0l0,0l0,0l0,0l0,0l0,0L288.6,424.6L288.6,424.6L288.6,424.6
	L288.6,424.6h-0.3H288.6z"/>
<path class="st4" d="M418.9,427.7l3.6-3"/>
<path class="st2" d="M422.5,424.6l3.6-3"/>
<path class="st4" d="M417,425.5l3.6-3"/>
<path class="st2" d="M420.6,422.4l3.6-3"/>
<path class="st2" d="M428.5,419.7l10.2,3.6"/>
<path class="st2" d="M442,422.4l3.7-3.1"/>
<path class="st11" d="M445.7,419.3l3.7-3.1"/>
<path class="st2" d="M441.3,419.3l2.6-2.2"/>
<path class="st11" d="M443.8,417.1l2.6-2.2"/>
<path class="st11" d="M453.3,415.3l5,1.8"/>
<path class="st4" d="M458.2,417l5,1.8"/>
<path class="st4" d="M466.6,420l5.1,1.8"/>
<path class="st2" d="M471.7,421.8l5.1,1.8"/>
<path class="st4" d="M467.1,423.3l3.6,1.3"/>
<path class="st2" d="M470.7,424.5l3.6,1.3"/>
<path class="st4" d="M469.1,417.8l3.6,1.3"/>
<path class="st2" d="M472.6,419.1l3.6,1.3"/>
<path class="st2" d="M480.2,424.8l5,1.8"/>
<path class="st11" d="M485.1,426.6l5,1.8"/>
<path class="st2" d="M482.6,422.6l3.5,1.2"/>
<path class="st11" d="M486.1,423.9l3.5,1.2"/>
<path class="st11" d="M494,427.4l4.2-3.6"/>
<path class="st13" d="M498.2,423.8l4.2-3.6"/>
<path class="st8" d="M414.6,429.9c0,0,0.1,0,0.2,0.1c0.1,0.1,0.3,0.1,0.4,0.1c0.1,0,0.3,0,0.4,0c0.3,0,0.5-0.1,0.6-0.2
	c0.2-0.1,0.2-0.3,0.2-0.5c0-0.2,0-0.3-0.1-0.4c-0.1-0.1-0.2-0.2-0.3-0.2c-0.1-0.1-0.3-0.1-0.5-0.2c-0.3-0.1-0.5-0.1-0.6-0.2
	c-0.1-0.1-0.3-0.2-0.4-0.3c-0.1-0.2-0.2-0.4-0.2-0.6c0-0.4,0.1-0.6,0.4-0.9c0.2-0.2,0.6-0.3,1.1-0.3c0.3,0,0.7,0.1,1,0.2l-0.1,0.5
	c-0.3-0.1-0.6-0.2-0.9-0.2c-0.3,0-0.5,0.1-0.6,0.2c-0.2,0.1-0.2,0.3-0.2,0.5c0,0.2,0,0.3,0.1,0.4c0.1,0.1,0.2,0.2,0.3,0.2
	c0.1,0.1,0.3,0.1,0.5,0.2c0.3,0.1,0.5,0.2,0.6,0.2c0.2,0.1,0.3,0.2,0.4,0.4c0.1,0.2,0.2,0.4,0.2,0.7c0,0.4-0.1,0.7-0.4,0.9
	c-0.3,0.2-0.6,0.3-1,0.3c-0.3,0-0.5,0-0.7-0.1c-0.2-0.1-0.4-0.1-0.6-0.2L414.6,429.9"/>
<path class="st8" d="M417.3,426.9h1.5v0.3h-1.5V426.9"/>
<path class="st6" d="M426.7,416.9c0.5,0,0.8,0.1,1.1,0.3c0.2,0.2,0.4,0.5,0.4,0.9c0,0.4-0.1,0.7-0.4,0.9c-0.2,0.2-0.6,0.3-1.1,0.3
	H426v1.7h-0.6v-4.2H426.7 M426.7,419c0.3,0,0.5-0.1,0.6-0.2c0.1-0.1,0.2-0.3,0.2-0.6c0-0.3-0.1-0.4-0.2-0.6
	c-0.1-0.1-0.4-0.2-0.6-0.2H426v1.5H426.7"/>
<path class="st6" d="M440.2,421.8c0.5,0,0.8,0.1,1.1,0.3c0.2,0.2,0.4,0.5,0.4,0.9c0,0.4-0.1,0.7-0.4,0.9c-0.2,0.2-0.6,0.3-1.1,0.3
	h-0.7v1.7H439v-4.2H440.2 M440.2,423.8c0.3,0,0.5-0.1,0.6-0.2c0.1-0.1,0.2-0.3,0.2-0.6s-0.1-0.4-0.2-0.6c-0.1-0.1-0.4-0.2-0.6-0.2
	h-0.7v1.5H440.2"/>
<path class="st12" d="M450.4,412.4l1.4,2.2c0.1,0.1,0.2,0.4,0.4,0.6s0.2,0.4,0.2,0.4v-3.3h0.6v4.2h-0.6l-1.5-2.5
	c-0.1-0.2-0.2-0.4-0.4-0.6c-0.1-0.2-0.2-0.4-0.2-0.4v3.5h-0.6v-4.2H450.4"/>
<path class="st8" d="M463.7,420.9c0,0,0.1,0,0.2,0.1c0.1,0.1,0.3,0.1,0.4,0.1c0.1,0,0.3,0,0.4,0c0.3,0,0.5-0.1,0.6-0.2
	c0.2-0.1,0.2-0.3,0.2-0.5c0-0.2,0-0.3-0.1-0.4c-0.1-0.1-0.2-0.2-0.3-0.2s-0.3-0.1-0.5-0.2c-0.3-0.1-0.5-0.1-0.6-0.2
	c-0.1-0.1-0.3-0.2-0.4-0.3c-0.1-0.2-0.2-0.4-0.2-0.6c0-0.4,0.1-0.6,0.4-0.9c0.2-0.2,0.6-0.3,1.1-0.3c0.3,0,0.7,0.1,1.1,0.2L466,418
	c-0.3-0.1-0.6-0.2-0.9-0.2c-0.3,0-0.5,0.1-0.6,0.2c-0.2,0.1-0.2,0.3-0.2,0.5c0,0.2,0,0.3,0.1,0.4c0.1,0.1,0.2,0.2,0.3,0.2
	c0.1,0.1,0.3,0.1,0.5,0.2c0.3,0.1,0.5,0.2,0.6,0.2c0.2,0.1,0.3,0.2,0.4,0.4c0.1,0.2,0.2,0.4,0.2,0.7c0,0.4-0.1,0.7-0.4,0.9
	c-0.3,0.2-0.6,0.3-1,0.3c-0.3,0-0.5,0-0.7-0.1c-0.2-0.1-0.4-0.1-0.6-0.2L463.7,420.9"/>
<path class="st8" d="M466.6,418h0.7v-0.8h0.3v0.8h0.8v0.3h-0.8v0.8h-0.3v-0.8h-0.7V418"/>
<path class="st6" d="M478.3,422.1c0.5,0,0.8,0.1,1.1,0.3c0.2,0.2,0.4,0.5,0.4,0.9c0,0.4-0.1,0.7-0.4,0.9c-0.2,0.2-0.6,0.3-1.1,0.3
	h-0.7v1.7h-0.6v-4.2H478.3 M478.3,424.1c0.3,0,0.5-0.1,0.6-0.2c0.1-0.1,0.2-0.3,0.2-0.6s-0.1-0.4-0.2-0.6c-0.1-0.1-0.4-0.2-0.6-0.2
	h-0.7v1.5H478.3"/>
<path class="st12" d="M491.1,426.9l1.4,2.2c0.1,0.1,0.2,0.4,0.4,0.6c0.1,0.3,0.2,0.4,0.2,0.4v-3.3h0.6v4.2H493l-1.5-2.5
	c-0.1-0.2-0.2-0.4-0.4-0.6c-0.1-0.2-0.2-0.4-0.2-0.4v3.5h-0.6v-4.2H491.1"/>
<path class="st14" d="M502.7,417.6h0.6v4.3h-0.6V417.6"/>
<path class="st10" d="M413.8,428.4L413.8,428.4L413.8,428.4L413.8,428.4l0-0.1l0,0l0,0l0,0l0,0l0,0l0,0l0,0l0,0l0,0l0,0l0,0l0,0l0,0
	l0,0h0l0,0l0,0l0,0l0,0l0,0l0,0l0,0l0,0l0,0l0,0l0,0l0,0l0,0l0,0l0,0l0,0l0,0v0l0,0l0,0l0,0l0,0l0,0l0,0l0,0l0,0l0,0l0,0l0,0l0,0
	l0,0l0,0l0,0l0,0l0,0l0,0l0,0l0,0l0,0l0,0l0,0l0,0l0,0l0,0l0,0l0,0l0,0l0,0l0,0l0,0L413.8,428.4L413.8,428.4L413.8,428.4
	L413.8,428.4h-0.3H413.8z"/>
<path class="st10" d="M465.2,416.7L465.2,416.7L465.2,416.7L465.2,416.7l0-0.1l0,0l0,0l0,0l0,0l0,0l0,0l0,0l0,0l0,0l0,0l0,0l0,0l0,0
	l0,0l0,0l0,0l0,0l0,0l0,0l0,0l0,0l0,0l0,0l0,0l0,0l0,0l0,0l0,0l0,0l0,0l0,0l0,0v0l0,0l0,0l0,0l0,0l0,0l0,0l0,0l0,0l0,0l0,0l0,0l0,0
	l0,0l0,0l0,0l0,0l0,0h0l0,0l0,0l0,0l0,0l0,0l0,0l0,0l0,0l0,0l0,0l0,0l0,0l0,0l0,0L465.2,416.7L465.2,416.7L465.2,416.7L465.2,416.7
	h-0.3H465.2z"/>
</svg>
