<?xml version="1.0" encoding="utf-8"?>
<!-- Generator: Adobe Illustrator 24.1.0, SVG Export Plug-In . SVG Version: 6.00 Build 0)  -->
<svg version="1.1" id="Layer_1" xmlns:rdkit="http://www.rdkit.org/xml"
	 xmlns="http://www.w3.org/2000/svg" xmlns:xlink="http://www.w3.org/1999/xlink" x="0px" y="0px" viewBox="0 0 841 440"
	 style="enable-background:new 0 0 841 440;" xml:space="preserve">
<style type="text/css">
	.st0{fill:#FFFFFF;}
	.st1{fill:none;stroke:#000000;stroke-width:2;}
	.st2{fill:none;stroke:#CCCC00;stroke-width:2;}
	.st3{fill:none;stroke:#0000FF;stroke-width:2;}
	.st4{fill:none;stroke:#FF0000;stroke-width:2;}
	.st5{fill:#0000FF;}
	.st6{fill:#FF0000;}
	.st7{fill:#CCCC00;}
	.st8{fill:none;stroke:#33CCCC;stroke-width:2;}
	.st9{fill:#33CCCC;}
</style>
<rect x="-17" y="-25" class="st0" width="900" height="480"/>
<rect x="-17" y="-25" class="st0" width="900" height="480"/>
<rect x="-17" y="-25" class="st0" width="900" height="480"/>
<rect x="-17" y="-25" class="st0" width="900" height="480"/>
<rect x="-17" y="-25" class="st0" width="900" height="480"/>
<rect x="-17" y="-25" class="st0" width="900" height="480"/>
<rect x="-17" y="-25" class="st0" width="900" height="480"/>
<rect x="-17" y="-25" class="st0" width="900" height="480"/>
<path class="st1" d="M269.7,25.3L258,27.6"/>
<path class="st1" d="M270.2,27.7L258.5,30"/>
<path class="st1" d="M258.3,28.8l-3.8,11.3"/>
<path class="st1" d="M254.5,40.1l-11.7,2.3"/>
<path class="st1" d="M252.2,38.1l-8.2,1.6"/>
<path class="st1" d="M242.8,42.4L239,53.7"/>
<path class="st1" d="M239,53.7L227.3,56"/>
<path class="st1" d="M236.8,51.7l-8.2,1.6"/>
<path class="st1" d="M227.3,56l-3.8,11.3"/>
<path class="st1" d="M227.3,56l-3.1-3.5"/>
<path class="st2" d="M224.2,52.5l-3.1-3.5"/>
<path class="st1" d="M223.5,67.3l-11.7,2.3"/>
<path class="st1" d="M211.8,69.6L208,80.9"/>
<path class="st1" d="M213.5,72.1l-2.7,7.9"/>
<path class="st1" d="M208,80.9l7.9,8.9"/>
<path class="st1" d="M208,80.9l-11.7,2.3"/>
<path class="st1" d="M196.3,83.2l-7.9-8.9"/>
<path class="st1" d="M196.9,80.3l-5.5-6.3"/>
<path class="st1" d="M188.5,74.3l-11.7,2.3"/>
<path class="st1" d="M177.7,75.8l-5.9-6.7"/>
<path class="st1" d="M175.9,77.4l-5.9-6.7"/>
<path class="st1" d="M167.9,64.7l-4.1-4.6"/>
<path class="st1" d="M166.1,66.3l-4.1-4.6"/>
<path class="st1" d="M160,55.7l-5.9-6.7"/>
<path class="st1" d="M158.2,57.3l-5.9-6.7"/>
<path class="st1" d="M153.2,49.8l-11.7,2.3"/>
<path class="st1" d="M141.5,52.1l-7.9-8.9"/>
<path class="st1" d="M142.1,49.2l-5.5-6.3"/>
<path class="st1" d="M133.7,43.2l2.6-11.6"/>
<path class="st1" d="M133.7,43.2l-11.9,1.1"/>
<path class="st1" d="M136.3,31.6l-10.2-6.1"/>
<path class="st1" d="M133.5,32.7l-7.2-4.3"/>
<path class="st1" d="M126.1,25.5l-8.9,7.9"/>
<path class="st1" d="M117.1,33.3l4.7,10.9"/>
<path class="st1" d="M120,34l3.3,7.7"/>
<path class="st1" d="M121.8,44.3l-6.1,10.2"/>
<path class="st1" d="M115.7,54.5l-11.9-0.1"/>
<path class="st1" d="M114,52.1l-8.3-0.1"/>
<path class="st1" d="M103.8,54.4l-6.1,10.2"/>
<path class="st1" d="M97.8,64.6l-11.9-0.1"/>
<path class="st1" d="M96,62.2l-8.3-0.1"/>
<path class="st1" d="M85.9,64.5l-6.1,10.2"/>
<path class="st1" d="M79.8,73.5l-10-0.1"/>
<path class="st1" d="M79.8,75.9l-10-0.1"/>
<path class="st1" d="M66,73.3l-10-0.1"/>
<path class="st1" d="M65.9,75.7l-10-0.1"/>
<path class="st1" d="M56,74.4L50.1,64"/>
<path class="st1" d="M50.1,64l-11.9-0.1"/>
<path class="st1" d="M38.2,63.9l-7.1,9.5"/>
<path class="st1" d="M35.3,63.9l-5,6.7"/>
<path class="st1" d="M38.2,63.9l-2.6-3.7"/>
<path class="st2" d="M35.6,60.2L33,56.5"/>
<path class="st1" d="M31.1,73.4l-11.3-3.8"/>
<path class="st1" d="M19.8,69.6L20,57.7"/>
<path class="st1" d="M22.2,67.8l0.1-8.3"/>
<path class="st1" d="M20,57.7l-3.8-2.8"/>
<path class="st3" d="M16.2,54.8L12.4,52"/>
<path class="st1" d="M20,57.7l4.9-1.5"/>
<path class="st2" d="M24.8,56.2l4.9-1.5"/>
<path class="st3" d="M11.9,48.3l0.4-3.5"/>
<path class="st4" d="M12.3,44.8l0.4-3.5"/>
<path class="st3" d="M9.6,48l0.4-3.5"/>
<path class="st4" d="M10,44.5l0.4-3.5"/>
<path class="st2" d="M30.3,51.7l-1.8-4.3"/>
<path class="st1" d="M28.5,47.5l-1.8-4.3"/>
<path class="st2" d="M33,53.2l4.4-2.4"/>
<path class="st1" d="M37.4,50.8l4.4-2.4"/>
<path class="st1" d="M41.7,48.3l0.1-11.9"/>
<path class="st1" d="M39.4,46.5l0.1-8.3"/>
<path class="st1" d="M41.9,36.4l10.4-5.8"/>
<path class="st1" d="M53.5,30.6l0.1-11.9"/>
<path class="st1" d="M51.1,30.6l0.1-11.9"/>
<path class="st2" d="M220.3,44.7l1.5-4.4"/>
<path class="st1" d="M221.8,40.2l1.5-4.4"/>
<path d="M167.3,67.7c0-0.7,0.2-1.2,0.5-1.6c0.3-0.4,0.8-0.6,1.4-0.6c0.6,0,1,0.2,1.3,0.6l-0.4,0.3c-0.2-0.3-0.5-0.5-0.9-0.5
	c-0.4,0-0.8,0.1-1,0.4c-0.2,0.3-0.3,0.7-0.3,1.2c0,0.6,0.1,1,0.3,1.3c0.2,0.3,0.6,0.4,1,0.4c0.3,0,0.6-0.1,1-0.3l0.2,0.5
	c-0.1,0.1-0.3,0.2-0.6,0.2c-0.2,0.1-0.5,0.1-0.7,0.1c-0.6,0-1.1-0.2-1.4-0.6C167.4,68.9,167.3,68.4,167.3,67.7"/>
<path d="M159.4,58.8c0-0.7,0.2-1.2,0.5-1.6c0.3-0.4,0.8-0.6,1.4-0.6c0.6,0,1,0.2,1.3,0.6l-0.4,0.3c-0.2-0.3-0.5-0.5-0.9-0.5
	c-0.4,0-0.8,0.1-1,0.4c-0.2,0.3-0.3,0.7-0.3,1.2c0,0.6,0.1,1,0.3,1.3c0.2,0.3,0.6,0.4,1,0.4c0.3,0,0.6-0.1,1-0.3l0.2,0.5
	c-0.1,0.1-0.3,0.2-0.6,0.2c-0.2,0.1-0.5,0.1-0.7,0.1c-0.6,0-1.1-0.2-1.4-0.6C159.6,60,159.4,59.5,159.4,58.8"/>
<path d="M66.2,74.6c0-0.7,0.2-1.2,0.5-1.6c0.3-0.4,0.8-0.6,1.4-0.6c0.6,0,1,0.2,1.3,0.6l-0.4,0.3c-0.2-0.3-0.5-0.4-0.9-0.4
	c-0.4,0-0.8,0.1-1,0.4c-0.2,0.3-0.3,0.7-0.3,1.2c0,0.6,0.1,1,0.3,1.3c0.2,0.3,0.6,0.4,1,0.4c0.3,0,0.6-0.1,1-0.3l0.2,0.4
	c-0.1,0.1-0.3,0.2-0.6,0.2c-0.2,0.1-0.5,0.1-0.7,0.1c-0.6,0-1.1-0.2-1.4-0.6C66.4,75.8,66.2,75.3,66.2,74.6"/>
<path class="st5" d="M9.5,48.4l1.4,2.2c0.1,0.1,0.2,0.4,0.4,0.6c0.1,0.3,0.2,0.4,0.2,0.4v-3.3h0.6v4.2h-0.6L10,50.2
	c-0.1-0.2-0.2-0.4-0.4-0.6c-0.1-0.2-0.2-0.4-0.2-0.4v3.5H8.8v-4.2H9.5"/>
<path class="st6" d="M9.9,38.8c0-0.7,0.2-1.2,0.5-1.6c0.3-0.4,0.8-0.6,1.4-0.6s1.1,0.2,1.4,0.6c0.3,0.4,0.5,0.9,0.5,1.6
	c0,0.7-0.2,1.2-0.5,1.6c-0.3,0.4-0.8,0.6-1.4,0.6c-0.6,0-1.1-0.2-1.4-0.6C10.1,40,9.9,39.5,9.9,38.8 M11.8,40.5c0.4,0,0.8-0.1,1-0.4
	c0.2-0.3,0.4-0.7,0.4-1.3c0-0.6-0.1-1-0.4-1.3c-0.2-0.3-0.6-0.4-1-0.4s-0.8,0.1-1,0.4c-0.2,0.3-0.3,0.7-0.3,1.3c0,0.6,0.1,1,0.3,1.3
	C11.1,40.3,11.4,40.5,11.8,40.5"/>
<path class="st7" d="M30.2,55.6c0,0,0.1,0,0.2,0.1c0.1,0.1,0.3,0.1,0.4,0.1c0.1,0,0.3,0,0.4,0c0.3,0,0.5-0.1,0.6-0.2
	c0.2-0.1,0.2-0.3,0.2-0.5c0-0.2,0-0.3-0.1-0.4c-0.1-0.1-0.2-0.2-0.3-0.2c-0.1-0.1-0.3-0.1-0.5-0.2c-0.3-0.1-0.5-0.2-0.6-0.2
	c-0.1-0.1-0.3-0.2-0.4-0.3c-0.1-0.2-0.2-0.4-0.2-0.6c0-0.4,0.1-0.6,0.4-0.9c0.2-0.2,0.6-0.3,1.1-0.3c0.3,0,0.7,0.1,1,0.2l-0.1,0.5
	c-0.3-0.1-0.6-0.2-0.9-0.2c-0.3,0-0.5,0.1-0.6,0.2c-0.2,0.1-0.2,0.3-0.2,0.5c0,0.2,0,0.3,0.1,0.4c0.1,0.1,0.2,0.2,0.3,0.2
	c0.1,0.1,0.3,0.1,0.5,0.2c0.3,0.1,0.5,0.2,0.6,0.2c0.2,0.1,0.3,0.2,0.4,0.4c0.1,0.2,0.2,0.4,0.2,0.7c0,0.4-0.1,0.7-0.4,0.9
	c-0.3,0.2-0.6,0.3-1,0.3c-0.3,0-0.5,0-0.7-0.1c-0.2-0.1-0.4-0.1-0.6-0.2L30.2,55.6"/>
<path class="st7" d="M218.2,48.5c0,0,0.1,0,0.2,0.1c0.1,0.1,0.3,0.1,0.4,0.1c0.1,0,0.3,0,0.4,0c0.3,0,0.5-0.1,0.6-0.2
	c0.2-0.1,0.2-0.3,0.2-0.5c0-0.2,0-0.3-0.1-0.4c-0.1-0.1-0.2-0.2-0.3-0.2c-0.1-0.1-0.3-0.1-0.5-0.2c-0.3-0.1-0.5-0.2-0.6-0.2
	c-0.1-0.1-0.3-0.2-0.4-0.3c-0.1-0.2-0.2-0.4-0.2-0.6c0-0.4,0.1-0.6,0.4-0.9c0.2-0.2,0.6-0.3,1.1-0.3c0.3,0,0.7,0.1,1.1,0.2l-0.1,0.5
	c-0.3-0.1-0.6-0.2-0.9-0.2c-0.3,0-0.5,0.1-0.6,0.2c-0.2,0.1-0.2,0.3-0.2,0.5c0,0.2,0,0.3,0.1,0.4c0.1,0.1,0.2,0.2,0.3,0.2
	c0.1,0.1,0.3,0.1,0.5,0.2c0.3,0.1,0.5,0.2,0.6,0.2c0.2,0.1,0.3,0.2,0.4,0.4c0.1,0.2,0.2,0.4,0.2,0.7c0,0.4-0.1,0.7-0.4,0.9
	c-0.3,0.2-0.6,0.3-1,0.3c-0.3,0-0.5,0-0.7-0.1c-0.2-0.1-0.4-0.1-0.6-0.2L218.2,48.5"/>
<path class="st4" d="M340.8,33.4l0,3.5"/>
<path class="st3" d="M340.8,36.9l0,3.5"/>
<path class="st4" d="M343.1,33.3l0,3.5"/>
<path class="st3" d="M343.2,36.8l0,3.5"/>
<path class="st3" d="M344,43.8l4.2,2.4"/>
<path class="st1" d="M348.2,46.2l4.2,2.4"/>
<path class="st1" d="M352.5,48.5l0.2,11.9"/>
<path class="st1" d="M350.1,50.4l0.1,8.3"/>
<path class="st1" d="M352.6,60.5l-9.5,7.1"/>
<path class="st1" d="M352.6,60.5l9.7,6.9"/>
<path class="st1" d="M343.1,67.6l3.8,11.3"/>
<path class="st1" d="M345.9,68.5l2.7,7.9"/>
<path class="st1" d="M346.9,78.9l11.9-0.2"/>
<path class="st1" d="M358.8,78.7l3.5-11.4"/>
<path class="st1" d="M357.1,76.3l2.5-8"/>
<path class="st1" d="M362.4,67.3l11.3-3.8"/>
<path class="st1" d="M373.6,63.5l2.3-11.7"/>
<path class="st1" d="M371.6,61.3l1.6-8.2"/>
<path class="st1" d="M375.9,51.8l-8.1-8.7"/>
<path class="st1" d="M375.9,51.8l10.8-5"/>
<path class="st1" d="M367.9,43.1l5.8-10.4"/>
<path class="st1" d="M370.8,42.7l4.1-7.3"/>
<path class="st1" d="M373.7,32.7l11.7,2.3"/>
<path class="st1" d="M385.3,35l1.4,11.8"/>
<path class="st1" d="M383.2,37.1l1,8.3"/>
<path class="st1" d="M386.8,46.8l10.4,5.8"/>
<path class="st1" d="M397.1,52.6l0.2,11.9"/>
<path class="st1" d="M399.5,54.4l0.1,8.3"/>
<path class="st1" d="M397.1,52.6l10.2-6.1"/>
<path class="st1" d="M397.3,64.5l10.4,5.8"/>
<path class="st1" d="M407.7,70.4l10.2-6.1"/>
<path class="st1" d="M408,67.4l7.2-4.3"/>
<path class="st1" d="M417.9,64.3l-0.2-11.9"/>
<path class="st1" d="M417.8,52.4l10.2-6.1"/>
<path class="st1" d="M417.8,52.4l-10.4-5.8"/>
<path class="st1" d="M415,53.6l-7.3-4.1"/>
<path class="st1" d="M428,46.3l10.4,5.8"/>
<path class="st1" d="M428.4,49.2l7.3,4.1"/>
<path class="st1" d="M438.4,52.1l10.2-6.1"/>
<path class="st1" d="M448.6,46l10.4,5.8"/>
<path class="st1" d="M449,48.9l7.3,4.1"/>
<path class="st1" d="M459,51.8l10.2-6.1"/>
<path class="st1" d="M469.2,45.7l10.4,5.8"/>
<path class="st1" d="M469.6,48.7l7.3,4.1"/>
<path class="st1" d="M479.6,51.5l0.2,11.9"/>
<path class="st1" d="M479.6,51.5l10.2-6.1"/>
<path class="st1" d="M479.8,63.4l10.4,5.8"/>
<path class="st1" d="M482.5,62.2l7.3,4.1"/>
<path class="st1" d="M490.2,69.2l10.2-6.1"/>
<path class="st1" d="M500.4,63.2l-0.2-11.9"/>
<path class="st1" d="M498,61.4l-0.1-8.3"/>
<path class="st1" d="M500.2,51.2l10.2-6.1"/>
<path class="st1" d="M500.2,51.2l-10.4-5.8"/>
<path class="st1" d="M510.5,45.2l10.4,5.8"/>
<path class="st1" d="M510.9,48.1l7.3,4.1"/>
<path class="st1" d="M520.9,51l10.8-5"/>
<path class="st1" d="M520.9,51l1.4,11.8"/>
<path class="st1" d="M531.7,46l8.1,8.7"/>
<path class="st1" d="M531.1,48.9l5.7,6.1"/>
<path class="st1" d="M539.7,54.7l-5.8,10.4"/>
<path class="st1" d="M533.9,65.1l-11.7-2.3"/>
<path class="st1" d="M532.6,62.4l-8.2-1.6"/>
<path class="st6" d="M340,30.8c0-0.7,0.2-1.2,0.5-1.6c0.3-0.4,0.8-0.6,1.4-0.6s1.1,0.2,1.4,0.6c0.3,0.4,0.5,0.9,0.5,1.6
	c0,0.7-0.2,1.2-0.5,1.6c-0.3,0.4-0.8,0.6-1.4,0.6c-0.6,0-1.1-0.2-1.4-0.6C340.1,32.1,340,31.5,340,30.8 M341.9,32.6
	c0.4,0,0.8-0.1,1-0.4c0.2-0.3,0.4-0.7,0.4-1.3c0-0.6-0.1-1-0.4-1.3c-0.2-0.3-0.6-0.4-1-0.4c-0.4,0-0.8,0.1-1,0.4
	c-0.2,0.3-0.3,0.7-0.3,1.3c0,0.6,0.1,1,0.3,1.3C341.2,32.4,341.5,32.6,341.9,32.6"/>
<path class="st5" d="M341.1,40.6l1.4,2.2c0.1,0.1,0.2,0.4,0.4,0.6s0.2,0.4,0.2,0.4v-3.3h0.6v4.2h-0.6l-1.5-2.5
	c-0.1-0.2-0.2-0.4-0.4-0.6c-0.1-0.2-0.2-0.4-0.2-0.4v3.5h-0.6v-4.2H341.1"/>
<path class="st1" d="M627,87.6l11.6-2.8"/>
<path class="st1" d="M626.5,85.3l11.6-2.8"/>
<path class="st1" d="M638.3,83.6l3.3-11.4"/>
<path class="st1" d="M641.7,72.2l11.6-2.8"/>
<path class="st1" d="M644,74.1l8.1-2"/>
<path class="st1" d="M653.2,69.4l3.3-11.4"/>
<path class="st1" d="M656.9,59.1l9.6-2.3"/>
<path class="st1" d="M656.3,56.8l9.6-2.3"/>
<path class="st1" d="M670.4,55.9l9.6-2.3"/>
<path class="st1" d="M669.8,53.5l9.6-2.3"/>
<path class="st1" d="M679.7,52.4l8.2,8.6"/>
<path class="st1" d="M687.9,61l11.6-2.8"/>
<path class="st1" d="M689.1,58.2l8.1-2"/>
<path class="st1" d="M699.5,58.1l9.1,7.7"/>
<path class="st1" d="M699.5,58.1l4.5-11"/>
<path class="st1" d="M708.6,65.8l10.1-6.3"/>
<path class="st1" d="M708.8,62.9l7.1-4.4"/>
<path class="st1" d="M718.7,59.6L715.9,48"/>
<path class="st1" d="M715.9,48L704,47.1"/>
<path class="st1" d="M713.9,50.3l-8.3-0.6"/>
<path class="st1" d="M704,47.1L697.8,37"/>
<path class="st1" d="M697.8,37l5.6-10.5"/>
<path class="st1" d="M700.7,36.6l4-7.3"/>
<path class="st1" d="M703.4,26.5l-5.2-10.7"/>
<path class="st1" d="M703.4,26.5l11.8-1.6"/>
<path class="st1" d="M698.3,15.8l8.6-8.2"/>
<path class="st1" d="M701.2,16.3l6-5.8"/>
<path class="st1" d="M706.9,7.6l10.5,5.6"/>
<path class="st1" d="M717.3,13.2l-2.1,11.7"/>
<path class="st1" d="M714.7,14.5l-1.5,8.2"/>
<path class="st1" d="M715.2,24.9l8.2,8.6"/>
<path class="st1" d="M723.4,33.5l11.6-2.8"/>
<path class="st1" d="M724.6,30.8l8.1-2"/>
<path class="st1" d="M735,30.7l8.2,8.6"/>
<path class="st1" d="M743.2,39.3l11.6-2.8"/>
<path class="st1" d="M744.4,36.6l8.1-2"/>
<path class="st1" d="M754.8,36.5l8.2,8.6"/>
<path class="st1" d="M763,45.1l11.6-2.8"/>
<path class="st1" d="M764.2,42.4l8.1-2"/>
<path class="st1" d="M774.6,42.3l1.3-4.4"/>
<path class="st2" d="M775.9,37.9l1.3-4.4"/>
<path class="st1" d="M774.6,42.3l3.2,3.3"/>
<path class="st3" d="M777.7,45.6l3.2,3.3"/>
<path class="st2" d="M779.6,30.5l4.2-1"/>
<path class="st8" d="M783.8,29.5l4.2-1"/>
<path class="st3" d="M784.7,50.7l4.9-0.7"/>
<path class="st1" d="M789.7,50l4.9-0.7"/>
<path class="st3" d="M782.4,53.4l-0.8,4.6"/>
<path class="st1" d="M781.5,58l-0.8,4.6"/>
<path class="st1" d="M794.6,49.3l5.2,10.7"/>
<path class="st1" d="M793.2,52l3.6,7.5"/>
<path class="st1" d="M799.8,60.1l-8.6,8.2"/>
<path class="st1" d="M791.2,68.3l-10.5-5.6"/>
<path class="st1" d="M790.7,65.3l-7.3-4"/>
<path class="st1" d="M780.7,62.6l-10.7,5.2"/>
<path class="st1" d="M769.9,67.8L769,79.7"/>
<path class="st1" d="M772.2,69.8l-0.6,8.3"/>
<path class="st1" d="M769,79.7l9.1,7.7"/>
<path class="st1" d="M769,79.7l-10.1,6.3"/>
<path class="st1" d="M778.1,87.4l-4.5,11"/>
<path class="st1" d="M775.2,88.1l-3.2,7.7"/>
<path class="st1" d="M773.6,98.4l-11.9-0.9"/>
<path class="st1" d="M761.7,97.5l-2.8-11.6"/>
<path class="st1" d="M763.6,95.2l-2-8.1"/>
<path class="st1" d="M758.9,85.9l-11-4.5"/>
<path d="M666.5,55.2c0-0.7,0.2-1.2,0.5-1.6c0.3-0.4,0.8-0.6,1.4-0.6c0.6,0,1,0.2,1.3,0.6l-0.4,0.3c-0.2-0.3-0.5-0.5-0.9-0.5
	c-0.4,0-0.8,0.1-1,0.4c-0.2,0.3-0.3,0.7-0.3,1.2c0,0.6,0.1,1,0.3,1.3c0.2,0.3,0.6,0.4,1,0.4c0.3,0,0.7-0.1,1-0.3l0.2,0.5
	c-0.1,0.1-0.3,0.2-0.6,0.2s-0.5,0.1-0.7,0.1c-0.6,0-1.1-0.2-1.4-0.6C666.7,56.4,666.5,55.9,666.5,55.2"/>
<path class="st7" d="M776.7,32.4c0,0,0.1,0,0.2,0.1c0.1,0.1,0.3,0.1,0.4,0.1c0.1,0,0.3,0,0.4,0c0.3,0,0.5-0.1,0.6-0.2
	c0.2-0.1,0.2-0.3,0.2-0.5c0-0.2,0-0.3-0.1-0.4c-0.1-0.1-0.2-0.2-0.3-0.2c-0.1-0.1-0.3-0.1-0.5-0.2c-0.3-0.1-0.5-0.2-0.6-0.2
	c-0.1-0.1-0.3-0.2-0.4-0.3c-0.1-0.2-0.2-0.4-0.2-0.6c0-0.4,0.1-0.6,0.4-0.9c0.2-0.2,0.6-0.3,1.1-0.3c0.3,0,0.7,0.1,1,0.2l-0.1,0.5
	c-0.3-0.1-0.6-0.2-0.9-0.2c-0.3,0-0.5,0.1-0.6,0.2c-0.2,0.1-0.2,0.3-0.2,0.5c0,0.2,0,0.3,0.1,0.4c0.1,0.1,0.2,0.2,0.3,0.2
	c0.1,0.1,0.3,0.1,0.5,0.2c0.3,0.1,0.5,0.2,0.6,0.2c0.2,0.1,0.3,0.2,0.4,0.4c0.1,0.2,0.2,0.4,0.2,0.7c0,0.4-0.1,0.7-0.4,0.9
	c-0.3,0.2-0.6,0.3-1,0.3c-0.3,0-0.5,0-0.7-0.1c-0.2-0.1-0.4-0.1-0.6-0.2L776.7,32.4"/>
<path class="st9" d="M788.2,26h2.5v0.5h-2v1.3h1.7v0.5h-1.7v2h-0.6V26"/>
<path class="st5" d="M781.9,48.8l1.4,2.2c0.1,0.1,0.2,0.4,0.4,0.6c0.1,0.3,0.2,0.4,0.2,0.4v-3.3h0.6v4.2h-0.6l-1.5-2.5
	c-0.1-0.2-0.2-0.4-0.4-0.6c-0.1-0.2-0.2-0.4-0.2-0.4v3.5h-0.6v-4.2H781.9"/>
<path class="st1" d="M23.4,254.5l6.7-6.4"/>
<path class="st1" d="M21.8,252.8l6.7-6.4"/>
<path class="st1" d="M34,244.4l6.7-6.4"/>
<path class="st1" d="M32.3,242.7l6.7-6.4"/>
<path class="st1" d="M39.8,237.2l11.4,3.3"/>
<path class="st1" d="M51.3,240.5l8.6-8.2"/>
<path class="st1" d="M50.9,237.6l6-5.8"/>
<path class="st1" d="M59.9,232.3l11.4,3.3"/>
<path class="st1" d="M71.3,235.7l8.6-8.2"/>
<path class="st1" d="M79.9,227.4l11.7,2.1"/>
<path class="st1" d="M82.1,225.4l8.2,1.5"/>
<path class="st1" d="M79.9,227.4l-1.6-11.8"/>
<path class="st1" d="M91.6,229.6l5.6-10.5"/>
<path class="st1" d="M97.3,219.1l-8.2-8.6"/>
<path class="st1" d="M94.3,219.4l-5.8-6"/>
<path class="st1" d="M89,210.5l-10.7,5.2"/>
<path class="st1" d="M78.3,215.6L67.8,210"/>
<path class="st1" d="M77.9,212.7l-7.3-4"/>
<path class="st1" d="M67.8,210l-0.4-11.9"/>
<path class="st1" d="M67.5,198.1l-9.8-6.7"/>
<path class="st1" d="M67.3,195.1l-6.9-4.7"/>
<path class="st1" d="M67.5,198.1l9.4-7.3"/>
<path class="st1" d="M57.6,191.4L61,180"/>
<path class="st1" d="M61,180l11.9-0.4"/>
<path class="st1" d="M62.8,182.3l8.3-0.2"/>
<path class="st1" d="M72.9,179.6l4,11.2"/>
<path class="st1" d="M76.9,190.8l11.4,3.3"/>
<path class="st1" d="M79.3,189l8,2.3"/>
<path class="st1" d="M88.3,194.2l8.6-8.2"/>
<path class="st1" d="M96.6,187.1l9.5,2.8"/>
<path class="st1" d="M97.3,184.8l9.5,2.8"/>
<path class="st1" d="M110,191l9.5,2.8"/>
<path class="st1" d="M110.6,188.7l9.5,2.8"/>
<path class="st1" d="M119.8,192.6l2.8,11.6"/>
<path class="st1" d="M122.6,204.2l11.4,3.3"/>
<path class="st1" d="M125,202.4l8,2.3"/>
<path class="st1" d="M134,207.5l2.8,11.6"/>
<path class="st1" d="M136.8,219.1l11.4,3.3"/>
<path class="st1" d="M148.3,222.4l2.8,11.6"/>
<path class="st1" d="M148.3,222.4l8.6-8.2"/>
<path class="st1" d="M147.9,219.5l6-5.8"/>
<path class="st1" d="M156.9,214.2l11.4,3.3"/>
<path class="st1" d="M168.3,217.6l8.6-8.2"/>
<path class="st1" d="M167.9,214.6l6-5.8"/>
<path class="st1" d="M176.9,209.3l11.4,3.3"/>
<path class="st1" d="M188.3,212.7l8.6-8.2"/>
<path class="st1" d="M188,209.7l6-5.8"/>
<path class="st1" d="M196.9,204.4l11.4,3.3"/>
<path class="st1" d="M208.4,207.8l8.6-8.2"/>
<path class="st1" d="M208.4,207.8l2.8,11.6"/>
<path class="st1" d="M206.5,210.1l2,8.1"/>
<path class="st1" d="M217,199.6l11.4,3.3"/>
<path class="st1" d="M218,202.4l8,2.3"/>
<path class="st1" d="M228.4,202.9l8.6-8.2"/>
<path class="st1" d="M211.2,219.4l11.4,3.3"/>
<path class="st1" d="M222.6,222.7l2.8,11.6"/>
<path class="st1" d="M220.7,225l2,8.1"/>
<path class="st1" d="M225.4,234.3l11.4,3.3"/>
<path class="st1" d="M235.7,237.9l2.8,11.6"/>
<path class="st1" d="M238,237.3l2.8,11.6"/>
<path d="M29.6,245.4c0-0.7,0.2-1.2,0.5-1.6c0.3-0.4,0.8-0.6,1.4-0.6c0.6,0,1,0.2,1.3,0.6l-0.4,0.3c-0.2-0.3-0.5-0.5-0.9-0.5
	c-0.4,0-0.8,0.1-1,0.4c-0.2,0.3-0.3,0.7-0.3,1.2c0,0.6,0.1,1,0.3,1.3c0.2,0.3,0.6,0.4,1,0.4c0.3,0,0.6-0.1,1-0.3l0.2,0.5
	c-0.1,0.1-0.3,0.2-0.6,0.2c-0.2,0.1-0.5,0.1-0.7,0.1c-0.6,0-1.1-0.2-1.4-0.6C29.7,246.7,29.6,246.1,29.6,245.4"/>
<path d="M106.7,189.3c0-0.7,0.2-1.2,0.5-1.6c0.3-0.4,0.8-0.6,1.4-0.6c0.6,0,1,0.2,1.3,0.6l-0.4,0.3c-0.2-0.3-0.5-0.4-0.9-0.4
	c-0.4,0-0.8,0.1-1,0.4c-0.2,0.3-0.3,0.7-0.3,1.2c0,0.6,0.1,1,0.3,1.3c0.2,0.3,0.6,0.4,1,0.4c0.3,0,0.7-0.1,1-0.3l0.2,0.4
	c-0.1,0.1-0.3,0.2-0.6,0.2s-0.5,0.1-0.7,0.1c-0.6,0-1.1-0.2-1.4-0.6C106.9,190.5,106.7,190,106.7,189.3"/>
<path class="st1" d="M352.3,219.8l11.9-0.2"/>
<path class="st1" d="M352.2,217.4l11.9-0.2"/>
<path class="st1" d="M364.1,218.4l6.1,10.2"/>
<path class="st1" d="M364.1,218.4l5.8-10.4"/>
<path class="st1" d="M370.3,228.6l11.9-0.2"/>
<path class="st1" d="M372,226.2l8.3-0.1"/>
<path class="st1" d="M382.2,228.4l6.1,10.2"/>
<path class="st1" d="M388.3,238.6l11.9-0.2"/>
<path class="st1" d="M390,236.2l8.3-0.1"/>
<path class="st1" d="M400.2,238.4l6.1,10.2"/>
<path class="st1" d="M400.2,238.4L406,228"/>
<path class="st1" d="M406,228l11.9-0.2"/>
<path class="st1" d="M407.8,230.3l8.3-0.1"/>
<path class="st1" d="M417.9,227.8l5.8-10.4"/>
<path class="st1" d="M423.7,217.4l11.9-0.2"/>
<path class="st1" d="M425.5,219.7l8.3-0.1"/>
<path class="st1" d="M435.6,217.2l5.8-10.4"/>
<path class="st1" d="M441.3,206.8l11.9-0.2"/>
<path class="st1" d="M443.2,209.1l8.3-0.1"/>
<path class="st1" d="M453.2,206.6l5.8-10.4"/>
<path class="st1" d="M453.2,206.6l6.1,10.2"/>
<path class="st1" d="M459.4,216.8l11.9-0.2"/>
<path class="st1" d="M461.1,214.4l8.3-0.1"/>
<path class="st1" d="M471.3,216.6l6.1,10.2"/>
<path class="st1" d="M477.4,226.8l11.9-0.2"/>
<path class="st1" d="M479.1,224.4l8.3-0.1"/>
<path class="st1" d="M489.3,226.6l6.1,10.2"/>
<path class="st1" d="M489.3,226.6l5.8-10.4"/>
<path class="st1" d="M495.1,216.2l4.8-0.1"/>
<path class="st4" d="M499.9,216.1l4.8-0.1"/>
<path class="st4" d="M508.3,213.5l1.5-2.8"/>
<path class="st2" d="M509.9,210.8l1.5-2.8"/>
<path class="st2" d="M514.4,205.5l4.4-0.1"/>
<path class="st8" d="M518.8,205.4l4.4-0.1"/>
<path class="st1" d="M369.9,208l-2.3-3.8"/>
<path class="st2" d="M367.6,204.1l-2.3-3.8"/>
<path class="st1" d="M369.9,208l11.9-0.2"/>
<path class="st1" d="M371.7,210.3l8.3-0.1"/>
<path class="st1" d="M381.8,207.8l5.8-10.4"/>
<path class="st1" d="M387.6,197.4l11.9-0.2"/>
<path class="st1" d="M389.4,199.7l8.3-0.1"/>
<path class="st1" d="M399.5,197.2l5.8-10.4"/>
<path class="st1" d="M405.3,186.8l11.9-0.2"/>
<path class="st1" d="M417.2,186.6l5.8-10.4"/>
<path class="st6" d="M505,216c0-0.7,0.2-1.2,0.5-1.6c0.3-0.4,0.8-0.6,1.4-0.6c0.6,0,1.1,0.2,1.4,0.6c0.3,0.4,0.5,0.9,0.5,1.6
	c0,0.7-0.2,1.2-0.5,1.6c-0.3,0.4-0.8,0.6-1.4,0.6c-0.6,0-1.1-0.2-1.4-0.6C505.2,217.2,505,216.7,505,216 M507,217.7
	c0.4,0,0.8-0.1,1-0.4c0.2-0.3,0.4-0.7,0.4-1.3c0-0.6-0.1-1-0.4-1.3c-0.2-0.3-0.6-0.4-1-0.4s-0.8,0.1-1,0.4c-0.2,0.3-0.3,0.7-0.3,1.3
	c0,0.6,0.1,1,0.3,1.3C506.2,217.5,506.5,217.7,507,217.7"/>
<path class="st7" d="M511.5,207c0,0,0.1,0,0.2,0.1s0.3,0.1,0.4,0.1c0.1,0,0.3,0,0.4,0c0.3,0,0.5-0.1,0.6-0.2
	c0.2-0.1,0.2-0.3,0.2-0.5c0-0.2,0-0.3-0.1-0.4c-0.1-0.1-0.2-0.2-0.3-0.2c-0.1-0.1-0.3-0.1-0.5-0.2c-0.3-0.1-0.5-0.1-0.6-0.2
	c-0.1-0.1-0.3-0.2-0.4-0.3c-0.1-0.2-0.2-0.4-0.2-0.6c0-0.4,0.1-0.6,0.4-0.9c0.2-0.2,0.6-0.3,1.1-0.3c0.3,0,0.7,0.1,1,0.2l-0.1,0.5
	c-0.3-0.1-0.6-0.2-0.9-0.2c-0.3,0-0.5,0.1-0.6,0.2c-0.2,0.1-0.2,0.3-0.2,0.5c0,0.2,0,0.3,0.1,0.4c0.1,0.1,0.2,0.2,0.3,0.2
	c0.1,0.1,0.3,0.1,0.5,0.2c0.3,0.1,0.5,0.2,0.6,0.2c0.2,0.1,0.3,0.2,0.4,0.4c0.1,0.2,0.2,0.4,0.2,0.7c0,0.4-0.1,0.7-0.4,0.9
	c-0.3,0.2-0.6,0.3-1,0.3c-0.3,0-0.5,0-0.7-0.1c-0.2-0.1-0.4-0.1-0.6-0.2L511.5,207"/>
<path class="st9" d="M523.4,203.2h2.5v0.5h-2v1.3h1.7v0.5H524v2h-0.6V203.2"/>
<path class="st7" d="M358.8,195.7h0.6v1.8h2.2v-1.8h0.6v4.2h-0.6v-2h-2.2v2h-0.6V195.7"/>
<path class="st7" d="M362.6,199.2c0,0,0.1,0,0.2,0.1s0.3,0.1,0.4,0.1c0.1,0,0.3,0,0.4,0c0.3,0,0.5-0.1,0.6-0.2
	c0.2-0.1,0.2-0.3,0.2-0.5c0-0.2,0-0.3-0.1-0.4c-0.1-0.1-0.2-0.2-0.3-0.2c-0.1-0.1-0.3-0.1-0.5-0.2c-0.3-0.1-0.5-0.2-0.6-0.2
	c-0.1-0.1-0.3-0.2-0.4-0.3c-0.1-0.2-0.2-0.4-0.2-0.6c0-0.4,0.1-0.6,0.4-0.9c0.2-0.2,0.6-0.3,1.1-0.3c0.3,0,0.7,0.1,1.1,0.2l-0.1,0.5
	c-0.3-0.1-0.6-0.2-0.9-0.2c-0.3,0-0.5,0.1-0.6,0.2c-0.2,0.1-0.2,0.3-0.2,0.5c0,0.2,0,0.3,0.1,0.4c0.1,0.1,0.2,0.2,0.3,0.2
	c0.1,0.1,0.3,0.1,0.5,0.2c0.3,0.1,0.5,0.2,0.6,0.2c0.2,0.1,0.3,0.2,0.4,0.4c0.1,0.2,0.2,0.4,0.2,0.7c0,0.4-0.1,0.7-0.4,0.9
	c-0.3,0.2-0.6,0.3-1,0.3c-0.3,0-0.5,0-0.7-0.1c-0.2-0.1-0.4-0.1-0.6-0.2L362.6,199.2"/>
<path class="st1" d="M625.4,232.5l5.1-10.8"/>
<path class="st1" d="M623.2,231.5l5.1-10.8"/>
<path class="st1" d="M629.4,221.2l-6.8-9.8"/>
<path class="st1" d="M622.6,211.4l-11.9,1"/>
<path class="st1" d="M620.6,209.2l-8.3,0.7"/>
<path class="st1" d="M622.6,211.4l5.1-10.8"/>
<path class="st1" d="M610.7,212.4l-2.6-3.7"/>
<path class="st2" d="M608.2,208.7l-2.6-3.7"/>
<path class="st2" d="M605.1,200.2l2-4.2"/>
<path class="st1" d="M607.1,196l2-4.2"/>
<path class="st1" d="M609.1,191.9l11.9-1"/>
<path class="st1" d="M620.9,190.9l6.8,9.8"/>
<path class="st1" d="M620,193.7l4.7,6.9"/>
<path class="st1" d="M627.7,200.7l11.9-1"/>
<path class="st1" d="M639.6,199.7l6.8,9.8"/>
<path class="st1" d="M646.3,209.5l11.9-1"/>
<path class="st1" d="M647.9,207l8.3-0.7"/>
<path class="st1" d="M658.2,208.5l6.8,9.8"/>
<path class="st1" d="M665,218.3l11.9-1"/>
<path class="st1" d="M666.6,215.8l8.3-0.7"/>
<path class="st1" d="M676.8,217.4l6.8,9.8"/>
<path class="st1" d="M683.7,228.3l9.9-0.8"/>
<path class="st1" d="M683.5,226l9.9-0.8"/>
<path class="st1" d="M697.5,227.2l9.9-0.8"/>
<path class="st1" d="M697.3,224.8l9.9-0.8"/>
<path class="st1" d="M707.3,225.2l2-4.2"/>
<path class="st3" d="M709.3,221l2-4.2"/>
<path class="st3" d="M714.3,214.3l5-0.4"/>
<path class="st1" d="M719.3,213.9l5-0.4"/>
<path class="st1" d="M724.3,213.5l5.1-10.8"/>
<path class="st1" d="M729.4,202.7l11.9-1"/>
<path class="st1" d="M731.4,204.9l8.3-0.7"/>
<path class="st1" d="M741.3,201.7l5.1-10.8"/>
<path class="st1" d="M746.3,191l11.9-1"/>
<path class="st1" d="M748.3,193.2l8.3-0.7"/>
<path class="st1" d="M758.2,190l5.1-10.8"/>
<path class="st1" d="M763.3,179.3l11.9-1"/>
<path class="st1" d="M765.3,181.5l8.3-0.7"/>
<path class="st1" d="M775.2,178.3l5.1-10.8"/>
<path class="st1" d="M775.2,178.3l6.8,9.8"/>
<path class="st1" d="M781.9,188.1l11.9-1"/>
<path class="st1" d="M783.5,185.6l8.3-0.7"/>
<path class="st1" d="M793.8,187.1l6.2-10.2"/>
<path class="st1" d="M793.8,187.1l7.8,9"/>
<path class="st1" d="M800,176.9l11.6,2.7"/>
<path class="st1" d="M801.2,179.7l8.1,1.9"/>
<path class="st1" d="M811.6,179.7l1,11.9"/>
<path class="st1" d="M812.6,191.5l-11,4.6"/>
<path class="st1" d="M810,190l-7.7,3.2"/>
<path class="st1" d="M801.6,196.1l-2.7,11.6"/>
<path class="st1" d="M798.8,207.7l8.7,8.2"/>
<path class="st1" d="M807.5,215.9l-2.7,11.6"/>
<path class="st1" d="M804.8,217.1l-1.9,8.1"/>
<path class="st1" d="M804.7,227.5l7.8,9"/>
<path class="st1" d="M804.7,227.5l-11,4.6"/>
<path class="st1" d="M812.5,236.5l-6.2,10.2"/>
<path class="st1" d="M809.5,236.8l-4.3,7.1"/>
<path class="st1" d="M806.3,246.7l-11.6-2.7"/>
<path class="st1" d="M794.7,243.9l-1-11.9"/>
<path class="st1" d="M797,242l-0.7-8.3"/>
<path class="st1" d="M793.8,232.1l-10.2-6.2"/>
<path class="st1" d="M783.6,225.9l-10.4,5.7"/>
<path class="st1" d="M783.2,228.8l-7.3,4"/>
<path class="st1" d="M773.1,231.6l-10.2-6.2"/>
<path class="st1" d="M763,225.4l-10.4,5.7"/>
<path class="st1" d="M762.5,228.3l-7.3,4"/>
<path class="st1" d="M752.5,231.1l-0.3,11.9"/>
<path class="st1" d="M752.2,243l-10.4,5.7"/>
<path class="st1" d="M749.5,241.8l-7.3,4"/>
<path class="st1" d="M741.8,248.7l-4-2.4"/>
<path class="st4" d="M737.8,246.3l-4-2.4"/>
<path class="st1" d="M741.8,248.7l-0.1,4.7"/>
<path class="st4" d="M741.7,253.4l-0.1,4.7"/>
<path class="st4" d="M729.4,243.8l-3.4,1.8"/>
<path class="st8" d="M726,245.6l-3.3,1.8"/>
<path class="st4" d="M739.3,261.9l-3.4,1.8"/>
<path class="st8" d="M735.9,263.7l-3.3,1.8"/>
<path class="st7" d="M602.8,204.1c0,0,0.1,0,0.2,0.1c0.1,0.1,0.3,0.1,0.4,0.1c0.1,0,0.3,0,0.4,0c0.3,0,0.5-0.1,0.6-0.2
	c0.2-0.1,0.2-0.3,0.2-0.5c0-0.2,0-0.3-0.1-0.4c-0.1-0.1-0.2-0.2-0.3-0.2c-0.1-0.1-0.3-0.1-0.5-0.2c-0.3-0.1-0.5-0.2-0.6-0.2
	c-0.1-0.1-0.3-0.2-0.4-0.3c-0.1-0.2-0.2-0.4-0.2-0.6c0-0.4,0.1-0.6,0.4-0.9c0.2-0.2,0.6-0.3,1.1-0.3c0.3,0,0.7,0.1,1,0.2l-0.1,0.5
	c-0.3-0.1-0.6-0.2-0.9-0.2c-0.3,0-0.5,0.1-0.6,0.2c-0.2,0.1-0.2,0.3-0.2,0.5c0,0.2,0,0.3,0.1,0.4c0.1,0.1,0.2,0.2,0.3,0.2
	c0.1,0.1,0.3,0.1,0.5,0.2c0.3,0.1,0.5,0.2,0.6,0.2c0.2,0.1,0.3,0.2,0.4,0.4c0.1,0.2,0.2,0.4,0.2,0.7c0,0.4-0.1,0.7-0.4,0.9
	c-0.3,0.2-0.6,0.3-1,0.3c-0.3,0-0.5,0-0.7-0.1c-0.2-0.1-0.4-0.1-0.6-0.2L602.8,204.1"/>
<path d="M693.8,226.2c0-0.7,0.2-1.2,0.5-1.6c0.3-0.4,0.8-0.6,1.4-0.6c0.6,0,1,0.2,1.3,0.6l-0.4,0.3c-0.2-0.3-0.5-0.4-0.9-0.4
	c-0.4,0-0.8,0.1-1,0.4c-0.2,0.3-0.3,0.7-0.3,1.2c0,0.6,0.1,1,0.3,1.3c0.2,0.3,0.6,0.4,1,0.4c0.3,0,0.6-0.1,1-0.3l0.2,0.4
	c-0.1,0.1-0.3,0.2-0.6,0.2s-0.5,0.1-0.7,0.1c-0.6,0-1.1-0.2-1.4-0.6C694,227.4,693.8,226.9,693.8,226.2"/>
<path class="st5" d="M707,212.3h0.6v1.8h2.2v-1.8h0.6v4.2h-0.6v-2h-2.2v2H707V212.3"/>
<path class="st5" d="M711.5,212.3l1.4,2.2c0.1,0.1,0.2,0.4,0.4,0.6c0.1,0.3,0.2,0.4,0.2,0.4v-3.3h0.6v4.2h-0.6l-1.5-2.5
	c-0.1-0.2-0.2-0.4-0.4-0.6c-0.1-0.2-0.2-0.4-0.2-0.4v3.5h-0.6v-4.2H711.5"/>
<path class="st6" d="M729.7,242.5c0-0.7,0.2-1.2,0.5-1.6c0.3-0.4,0.8-0.6,1.4-0.6s1.1,0.2,1.4,0.6c0.3,0.4,0.5,0.9,0.5,1.6
	c0,0.7-0.2,1.2-0.5,1.6c-0.3,0.4-0.8,0.6-1.4,0.6c-0.6,0-1.1-0.2-1.4-0.6C729.9,243.8,729.7,243.2,729.7,242.5 M731.6,244.3
	c0.4,0,0.8-0.1,1-0.4c0.2-0.3,0.4-0.7,0.4-1.3c0-0.6-0.1-1-0.4-1.3c-0.2-0.3-0.6-0.4-1-0.4s-0.8,0.1-1,0.4c-0.2,0.3-0.3,0.7-0.3,1.3
	c0,0.6,0.1,1,0.3,1.3C730.9,244.1,731.2,244.3,731.6,244.3"/>
<path class="st9" d="M719.9,246.1h2.5v0.5h-2v1.3h1.7v0.5h-1.7v2h-0.6V246.1"/>
<path class="st6" d="M739.6,260.6c0-0.7,0.2-1.2,0.5-1.6c0.3-0.4,0.8-0.6,1.4-0.6c0.6,0,1.1,0.2,1.4,0.6c0.3,0.4,0.5,0.9,0.5,1.6
	c0,0.7-0.2,1.2-0.5,1.6c-0.3,0.4-0.8,0.6-1.4,0.6c-0.6,0-1.1-0.2-1.4-0.6C739.7,261.9,739.6,261.3,739.6,260.6 M741.5,262.4
	c0.4,0,0.8-0.1,1-0.4c0.2-0.3,0.4-0.7,0.4-1.3c0-0.6-0.1-1-0.4-1.3c-0.2-0.3-0.6-0.4-1-0.4s-0.8,0.1-1,0.4c-0.2,0.3-0.3,0.7-0.3,1.3
	c0,0.6,0.1,1,0.3,1.3C740.8,262.2,741.1,262.4,741.5,262.4"/>
<path class="st9" d="M729.8,264.2h2.5v0.5h-2v1.3h1.7v0.5h-1.7v2h-0.6V264.2"/>
<path class="st1" d="M46.7,321.2l1.9,11.8"/>
<path class="st1" d="M49.1,320.8l1.9,11.8"/>
<path class="st1" d="M49.8,332.8l-9.2,7.5"/>
<path class="st1" d="M40.5,340.3l1.9,11.8"/>
<path class="st1" d="M43.2,341.7l1.3,8.2"/>
<path class="st1" d="M42.4,352.1l-9.2,7.5"/>
<path class="st1" d="M32,359.8l1.5,9.3"/>
<path class="st1" d="M34.4,359.4l1.5,9.3"/>
<path class="st1" d="M34.3,374l0.6,3.4"/>
<path class="st3" d="M34.9,377.5l0.6,3.4"/>
<path class="st1" d="M36.7,373.6l0.6,3.4"/>
<path class="st3" d="M37.2,377.1l0.6,3.4"/>
<path class="st3" d="M38.9,383.8l4.6,1.8"/>
<path class="st1" d="M43.5,385.6l4.6,1.8"/>
<path class="st1" d="M48.1,387.3l1.9,11.8"/>
<path class="st1" d="M46,389.5l1.3,8.2"/>
<path class="st1" d="M50,399.1l-8.4,8.4"/>
<path class="st1" d="M50,399.1l10.6,5.4"/>
<path class="st1" d="M41.6,407.5l5.4,10.6"/>
<path class="st1" d="M44.5,408l3.8,7.4"/>
<path class="st1" d="M47,418.1l11.8-1.9"/>
<path class="st1" d="M58.8,416.2l1.8-11.8"/>
<path class="st1" d="M56.7,414.1l1.3-8.2"/>
<path class="st1" d="M60.6,404.5l10.6-5.4"/>
<path class="st1" d="M71.2,399l0.6-11.9"/>
<path class="st1" d="M68.9,397.1l0.4-8.3"/>
<path class="st1" d="M71.8,387.1l-9.3-7.5"/>
<path class="st1" d="M71.8,387.1l10-6.5"/>
<path class="st1" d="M62.5,379.7l4.2-11.1"/>
<path class="st1" d="M65.4,378.8l3-7.8"/>
<path class="st1" d="M66.8,368.5l11.9,0.6"/>
<path class="st1" d="M78.7,369.1l3.1,11.5"/>
<path class="st1" d="M76.8,371.5l2.2,8"/>
<path class="st1" d="M81.8,380.6l4.7,1.8"/>
<path class="st2" d="M86.5,382.4l4.7,1.8"/>
<path class="st2" d="M94.6,383.5l3.8-3.1"/>
<path class="st1" d="M98.3,380.4l3.8-3.1"/>
<path class="st1" d="M102.1,377.3l11.1,4.2"/>
<path class="st1" d="M102.9,380.2l7.8,3"/>
<path class="st1" d="M113.3,381.6l9.2-7.5"/>
<path class="st1" d="M122.5,374.1l11.1,4.2"/>
<path class="st1" d="M123.3,376.9l7.8,3"/>
<path class="st1" d="M133.6,378.3l9.2-7.5"/>
<path class="st1" d="M142.8,370.8L154,375"/>
<path class="st1" d="M143.7,373.7l7.8,3"/>
<path class="st1" d="M154,375l1.9,11.8"/>
<path class="st1" d="M154,375l9.2-7.5"/>
<path class="st1" d="M163.2,367.5l-1.9-11.8"/>
<path class="st1" d="M160.6,366.1l-1.3-8.2"/>
<path class="st1" d="M161.3,355.8l-10.6-5.4"/>
<path class="st1" d="M161.3,355.8l8.4-8.4"/>
<path class="st1" d="M150.7,350.4l1.8-11.8"/>
<path class="st1" d="M153.3,349l1.3-8.2"/>
<path class="st1" d="M152.5,338.6l11.8-1.9"/>
<path class="st1" d="M164.3,336.7l5.4,10.6"/>
<path class="st1" d="M163,339.4l3.8,7.4"/>
<path class="st1" d="M169.7,347.3l5.1,0.8"/>
<path class="st2" d="M174.8,348.1l5.1,0.8"/>
<path class="st2" d="M182.5,351.7l1.7,4.3"/>
<path class="st1" d="M184.1,356l1.7,4.3"/>
<path class="st1" d="M185.8,360.3l11.8,1.8"/>
<path class="st1" d="M187.9,358.2l8.2,1.3"/>
<path class="st1" d="M197.5,362.1l4.3,11.1"/>
<path class="st1" d="M201.8,373.2l11.8,1.8"/>
<path class="st1" d="M204,371.1l8.2,1.3"/>
<path class="st1" d="M213.6,375l4.3,11.1"/>
<path class="st1" d="M217.9,386.1l11.8,1.8"/>
<path class="st1" d="M220,384.1l8.2,1.3"/>
<path class="st1" d="M229.6,388l4.3,11.1"/>
<path class="st1" d="M229.6,388l7.5-9.3"/>
<path class="st1" d="M233.9,399.1l11.8,1.8"/>
<path class="st1" d="M236.1,397l8.2,1.3"/>
<path class="st1" d="M245.7,400.9l7.5-9.3"/>
<path class="st1" d="M253.2,391.6l-4.3-11.1"/>
<path class="st1" d="M250.3,390.8l-3-7.8"/>
<path class="st1" d="M248.9,380.5l2.9-3.6"/>
<path class="st2" d="M251.8,376.9l2.9-3.6"/>
<path class="st1" d="M248.9,380.5l-11.8-1.8"/>
<path d="M33.4,371.3c0-0.7,0.2-1.2,0.5-1.6c0.3-0.4,0.8-0.6,1.4-0.6c0.6,0,1,0.2,1.3,0.6l-0.4,0.3c-0.2-0.3-0.5-0.4-0.9-0.4
	c-0.4,0-0.8,0.1-1,0.4c-0.2,0.3-0.3,0.7-0.3,1.2c0,0.6,0.1,1,0.3,1.3c0.2,0.3,0.6,0.4,1,0.4c0.3,0,0.7-0.1,1-0.3l0.2,0.5
	c-0.1,0.1-0.3,0.2-0.6,0.2c-0.2,0.1-0.5,0.1-0.7,0.1c-0.6,0-1.1-0.2-1.4-0.6C33.6,372.6,33.4,372,33.4,371.3"/>
<path class="st5" d="M36,381l1.4,2.2c0.1,0.1,0.2,0.4,0.4,0.6c0.1,0.3,0.2,0.4,0.2,0.4V381h0.6v4.2H38l-1.5-2.5
	c-0.1-0.2-0.2-0.4-0.4-0.6c-0.1-0.2-0.2-0.4-0.2-0.4v3.5h-0.6V381H36"/>
<path class="st7" d="M91.7,386.3c0,0,0.1,0,0.2,0.1c0.1,0.1,0.3,0.1,0.4,0.1c0.1,0,0.3,0,0.4,0c0.3,0,0.5-0.1,0.6-0.2
	c0.2-0.1,0.2-0.3,0.2-0.5c0-0.2,0-0.3-0.1-0.4c-0.1-0.1-0.2-0.2-0.3-0.2c-0.1-0.1-0.3-0.1-0.5-0.2c-0.3-0.1-0.5-0.1-0.6-0.2
	c-0.1-0.1-0.3-0.2-0.4-0.3c-0.1-0.2-0.2-0.4-0.2-0.6c0-0.4,0.1-0.6,0.4-0.9c0.2-0.2,0.6-0.3,1.1-0.3c0.3,0,0.7,0.1,1.1,0.2l-0.1,0.5
	c-0.3-0.1-0.6-0.2-0.9-0.2c-0.3,0-0.5,0.1-0.6,0.2c-0.2,0.1-0.2,0.3-0.2,0.5c0,0.2,0,0.3,0.1,0.4c0.1,0.1,0.2,0.2,0.3,0.2
	c0.1,0.1,0.3,0.1,0.5,0.2c0.3,0.1,0.5,0.2,0.6,0.2s0.3,0.2,0.4,0.4c0.1,0.2,0.2,0.4,0.2,0.7c0,0.4-0.1,0.7-0.4,0.9
	c-0.3,0.2-0.6,0.3-1,0.3c-0.3,0-0.5,0-0.7-0.1c-0.2-0.1-0.4-0.1-0.6-0.2L91.7,386.3"/>
<path class="st7" d="M180.3,350.6c0,0,0.1,0,0.2,0.1c0.1,0.1,0.3,0.1,0.4,0.1c0.1,0,0.3,0,0.4,0c0.3,0,0.5-0.1,0.6-0.2
	c0.2-0.1,0.2-0.3,0.2-0.5c0-0.2,0-0.3-0.1-0.4c-0.1-0.1-0.2-0.2-0.3-0.2c-0.1-0.1-0.3-0.1-0.5-0.2c-0.3-0.1-0.5-0.2-0.6-0.2
	c-0.1-0.1-0.3-0.2-0.4-0.3c-0.1-0.2-0.2-0.4-0.2-0.6c0-0.4,0.1-0.6,0.4-0.9c0.2-0.2,0.6-0.3,1.1-0.3c0.3,0,0.7,0.1,1.1,0.2l-0.1,0.5
	c-0.3-0.1-0.6-0.2-0.9-0.2c-0.3,0-0.5,0.1-0.6,0.2c-0.2,0.1-0.2,0.3-0.2,0.5c0,0.2,0,0.3,0.1,0.4c0.1,0.1,0.2,0.2,0.3,0.2
	c0.1,0.1,0.3,0.1,0.5,0.2c0.3,0.1,0.5,0.2,0.6,0.2c0.2,0.1,0.3,0.2,0.4,0.4c0.1,0.2,0.2,0.4,0.2,0.7c0,0.4-0.1,0.7-0.4,0.9
	c-0.3,0.2-0.6,0.3-1,0.3c-0.3,0-0.5,0-0.7-0.1c-0.2-0.1-0.4-0.1-0.6-0.2L180.3,350.6"/>
<path class="st7" d="M255.1,372.7c0,0,0.1,0,0.2,0.1c0.1,0.1,0.3,0.1,0.4,0.1c0.1,0,0.3,0,0.4,0c0.3,0,0.5-0.1,0.6-0.2
	c0.2-0.1,0.2-0.3,0.2-0.5c0-0.2,0-0.3-0.1-0.4c-0.1-0.1-0.2-0.2-0.3-0.2c-0.1-0.1-0.3-0.1-0.5-0.2c-0.3-0.1-0.5-0.1-0.6-0.2
	c-0.1-0.1-0.3-0.2-0.4-0.3c-0.1-0.2-0.2-0.4-0.2-0.6c0-0.4,0.1-0.6,0.4-0.9c0.2-0.2,0.6-0.3,1.1-0.3c0.3,0,0.7,0.1,1.1,0.2l-0.1,0.5
	c-0.3-0.1-0.6-0.2-0.9-0.2c-0.3,0-0.5,0.1-0.6,0.2c-0.2,0.1-0.2,0.3-0.2,0.5c0,0.2,0,0.3,0.1,0.4c0.1,0.1,0.2,0.2,0.3,0.2
	c0.1,0.1,0.3,0.1,0.5,0.2c0.3,0.1,0.5,0.2,0.6,0.2c0.2,0.1,0.3,0.2,0.4,0.4c0.1,0.2,0.2,0.4,0.2,0.7c0,0.4-0.1,0.7-0.4,0.9
	c-0.3,0.2-0.6,0.3-1,0.3c-0.3,0-0.5,0-0.7-0.1c-0.2-0.1-0.4-0.1-0.6-0.2L255.1,372.7"/>
<path class="st7" d="M258.2,369.1h0.6v1.8h2.2v-1.8h0.6v4.2H261v-2h-2.2v2h-0.6V369.1"/>
<path class="st3" d="M299.5,402.6l4.2-0.1"/>
<path class="st2" d="M303.7,402.5l4.2-0.1"/>
<path class="st3" d="M299.6,404.9l3.6-0.1"/>
<path class="st2" d="M303.1,404.9l3.6-0.1"/>
<path class="st3" d="M299.4,400.2l3.6-0.1"/>
<path class="st2" d="M303,400.1l3.6-0.1"/>
<path class="st2" d="M311,404.8l2.3,3.8"/>
<path class="st1" d="M313.4,408.6l2.3,3.8"/>
<path class="st1" d="M315.7,412.5l-2.2,4"/>
<path class="st2" d="M313.5,416.5l-2.2,4"/>
<path class="st1" d="M315.7,412.5l11.9-0.3"/>
<path class="st1" d="M317.4,410l8.3-0.2"/>
<path class="st1" d="M327.6,412.1l5.7-10.5"/>
<path class="st1" d="M333.3,401.7l11.9-0.3"/>
<path class="st1" d="M335.1,404l8.3-0.2"/>
<path class="st1" d="M345.2,401.4l5.7-10.5"/>
<path class="st1" d="M350.9,390.9l11.9-0.3"/>
<path class="st1" d="M352.7,393.2l8.3-0.2"/>
<path class="st1" d="M362.8,390.6l5.7-10.5"/>
<path class="st1" d="M368.5,380.1l11.9-0.3"/>
<path class="st1" d="M368.5,380.1l-6.2-10.2"/>
<path class="st1" d="M365.5,379.9l-4.4-7.1"/>
<path class="st1" d="M380.4,379.8l5.7-10.5"/>
<path class="st1" d="M379.1,377.1l4-7.3"/>
<path class="st1" d="M386,369.4l11.9-0.3"/>
<path class="st1" d="M397.9,369.1l5.7-10.5"/>
<path class="st1" d="M396.7,366.4l4-7.3"/>
<path class="st1" d="M403.6,358.6l11.9-0.3"/>
<path class="st1" d="M415.5,358.3l5.7-10.5"/>
<path class="st1" d="M414.3,355.6l4-7.3"/>
<path class="st1" d="M421.2,347.8l-6.2-10.2"/>
<path class="st1" d="M421.2,347.8l11.9-0.3"/>
<path class="st1" d="M415,337.7l5.7-10.5"/>
<path class="st1" d="M417.9,337.2l4-7.3"/>
<path class="st1" d="M420.7,327.2l11.9-0.3"/>
<path class="st1" d="M432.6,326.9l6.2,10.2"/>
<path class="st1" d="M431.5,329.7l4.4,7.1"/>
<path class="st1" d="M438.8,337.1l5-0.1"/>
<path class="st3" d="M443.8,336.9l5-0.1"/>
<path class="st1" d="M438.8,337.1l-5.7,10.5"/>
<path class="st3" d="M452.2,339.2l3.3,5.4"/>
<path class="st3" d="M450.6,341.2l2.3,3.8"/>
<path class="st3" d="M458.8,346.9l5-0.1"/>
<path class="st1" d="M463.8,346.7l5-0.1"/>
<path class="st1" d="M468.8,346.6l6.2,10.2"/>
<path class="st1" d="M467.7,349.4l4.4,7.1"/>
<path class="st1" d="M475,356.7l11.9-0.3"/>
<path class="st1" d="M486.9,356.4l6.2,10.2"/>
<path class="st1" d="M485.8,359.2l4.4,7.1"/>
<path class="st1" d="M493.1,366.6l11.9-0.3"/>
<path class="st1" d="M505.1,366.3l6.2,10.2"/>
<path class="st1" d="M504,369l4.4,7.1"/>
<path class="st1" d="M511.3,376.4l-2.2,4"/>
<path class="st8" d="M509.1,380.4l-2.2,4"/>
<path class="st1" d="M511.3,376.4l5-0.1"/>
<path class="st3" d="M516.3,376.3l5-0.1"/>
<path class="st3" d="M524.7,378.5l2.4,3.9"/>
<path class="st1" d="M527,382.4l2.4,3.9"/>
<path class="st1" d="M529.4,386.3l11.9-0.3"/>
<path class="st1" d="M531.1,383.8l8.3-0.2"/>
<path class="st1" d="M541.3,386l6.7-9.8"/>
<path class="st1" d="M541.3,386l7.2,9.4"/>
<path class="st1" d="M548,376.1l11.4,3.4"/>
<path class="st1" d="M549.1,378.9l8,2.4"/>
<path class="st1" d="M559.5,379.5l0.3,11.9"/>
<path class="st1" d="M559.8,391.4l-11.2,4"/>
<path class="st1" d="M557.3,389.8l-7.9,2.8"/>
<path class="st1" d="M548.5,395.4l-1.3,4.5"/>
<path class="st4" d="M547.2,399.9l-1.3,4.5"/>
<path class="st4" d="M547.4,409.2l3,3.1"/>
<path class="st1" d="M550.4,412.3l3,3.1"/>
<path class="st1" d="M553.3,415.5L552,420"/>
<path class="st8" d="M552,420l-1.3,4.5"/>
<path class="st1" d="M362.2,370l-11.9,0.3"/>
<path class="st1" d="M350.3,370.3l-6.2-10.2"/>
<path class="st1" d="M351.4,367.5l-4.4-7.1"/>
<path class="st1" d="M344.1,360.1l-11.9,0.3"/>
<path class="st1" d="M332.2,360.5l-6.2-10.2"/>
<path class="st1" d="M333.3,357.7l-4.4-7.1"/>
<path class="st1" d="M326,350.3l-5.1,0.1"/>
<path class="st2" d="M320.9,350.4l-5.1,0.1"/>
<path class="st5" d="M296.6,400.5l1.4,2.2c0.1,0.1,0.2,0.4,0.4,0.6s0.2,0.4,0.2,0.4v-3.3h0.6v4.2h-0.6l-1.5-2.5
	c-0.1-0.2-0.2-0.4-0.4-0.6c-0.1-0.2-0.2-0.4-0.2-0.4v3.5H296v-4.2H296.6"/>
<path class="st7" d="M308.3,403.8c0,0,0.1,0,0.2,0.1s0.3,0.1,0.4,0.1c0.1,0,0.3,0,0.4,0c0.3,0,0.5-0.1,0.6-0.2
	c0.2-0.1,0.2-0.3,0.2-0.5c0-0.2,0-0.3-0.1-0.4c-0.1-0.1-0.2-0.2-0.3-0.2s-0.3-0.1-0.5-0.2c-0.3-0.1-0.5-0.1-0.6-0.2
	c-0.1-0.1-0.3-0.2-0.4-0.3c-0.1-0.2-0.2-0.4-0.2-0.6c0-0.4,0.1-0.6,0.4-0.9c0.2-0.2,0.6-0.3,1.1-0.3c0.3,0,0.7,0.1,1.1,0.2l-0.1,0.5
	c-0.3-0.1-0.6-0.2-0.9-0.2c-0.3,0-0.5,0.1-0.6,0.2c-0.2,0.1-0.2,0.3-0.2,0.5c0,0.2,0,0.3,0.1,0.4c0.1,0.1,0.2,0.2,0.3,0.2
	c0.1,0.1,0.3,0.1,0.5,0.2c0.3,0.1,0.5,0.2,0.6,0.2c0.2,0.1,0.3,0.2,0.4,0.4c0.1,0.2,0.2,0.4,0.2,0.7c0,0.4-0.1,0.7-0.4,0.9
	c-0.3,0.2-0.6,0.3-1,0.3c-0.3,0-0.5,0-0.7-0.1c-0.2-0.1-0.4-0.1-0.6-0.2L308.3,403.8"/>
<path class="st7" d="M305.1,420.8h0.6v1.8h2.2v-1.8h0.6v4.2h-0.6v-2h-2.2v2h-0.6V420.8"/>
<path class="st7" d="M308.8,424.4c0,0,0.1,0,0.2,0.1c0.1,0.1,0.3,0.1,0.4,0.1c0.1,0,0.3,0,0.4,0c0.3,0,0.5-0.1,0.6-0.2
	c0.2-0.1,0.2-0.3,0.2-0.5c0-0.2,0-0.3-0.1-0.4c-0.1-0.1-0.2-0.2-0.3-0.2c-0.1-0.1-0.3-0.1-0.5-0.2c-0.3-0.1-0.5-0.1-0.6-0.2
	c-0.1-0.1-0.3-0.2-0.4-0.3c-0.1-0.2-0.2-0.4-0.2-0.6c0-0.4,0.1-0.6,0.4-0.9c0.2-0.2,0.6-0.3,1.1-0.3c0.3,0,0.7,0.1,1,0.2l-0.1,0.5
	c-0.3-0.1-0.6-0.2-0.9-0.2c-0.3,0-0.5,0.1-0.6,0.2c-0.2,0.1-0.2,0.3-0.2,0.5c0,0.2,0,0.3,0.1,0.4c0.1,0.1,0.2,0.2,0.3,0.2
	c0.1,0.1,0.3,0.1,0.5,0.2c0.3,0.1,0.5,0.2,0.6,0.2c0.2,0.1,0.3,0.2,0.4,0.4c0.1,0.2,0.2,0.4,0.2,0.7c0,0.4-0.1,0.7-0.4,0.9
	c-0.3,0.2-0.6,0.3-1,0.3c-0.3,0-0.5,0-0.7-0.1c-0.2-0.1-0.4-0.1-0.6-0.2L308.8,424.4"/>
<path class="st5" d="M449.8,334.6l1.4,2.2c0.1,0.1,0.2,0.4,0.4,0.6s0.2,0.4,0.2,0.4v-3.3h0.6v4.2h-0.6l-1.5-2.5
	c-0.1-0.2-0.2-0.4-0.4-0.6c-0.1-0.2-0.2-0.4-0.2-0.4v3.5h-0.6v-4.2H449.8"/>
<path class="st5" d="M456,344.8l1.4,2.2c0.1,0.1,0.2,0.4,0.4,0.6s0.2,0.4,0.2,0.4v-3.3h0.6v4.2h-0.6l-1.5-2.5
	c-0.1-0.2-0.2-0.4-0.4-0.6c-0.1-0.2-0.2-0.4-0.2-0.4v3.5h-0.6v-4.2H456"/>
<path class="st9" d="M504.3,384.8h2.5v0.5h-2v1.3h1.7v0.5h-1.7v2h-0.6V384.8"/>
<path class="st5" d="M522.2,374l1.4,2.2c0.1,0.1,0.2,0.4,0.4,0.6c0.1,0.3,0.2,0.4,0.2,0.4V374h0.6v4.2h-0.6l-1.5-2.5
	c-0.1-0.2-0.2-0.4-0.4-0.6c-0.1-0.2-0.2-0.4-0.2-0.4v3.5h-0.6V374H522.2"/>
<path class="st5" d="M525.3,374h0.6v1.8h2.2V374h0.6v4.2H528v-2h-2.2v2h-0.6V374"/>
<path class="st6" d="M543.2,406.8c0-0.7,0.2-1.2,0.5-1.6c0.3-0.4,0.8-0.6,1.4-0.6c0.6,0,1.1,0.2,1.4,0.6s0.5,0.9,0.5,1.6
	c0,0.7-0.2,1.2-0.5,1.6c-0.3,0.4-0.8,0.6-1.4,0.6c-0.6,0-1.1-0.2-1.4-0.6C543.4,408.1,543.2,407.5,543.2,406.8 M545.2,408.6
	c0.4,0,0.8-0.1,1-0.4c0.2-0.3,0.4-0.7,0.4-1.3c0-0.6-0.1-1-0.4-1.3c-0.2-0.3-0.6-0.4-1-0.4c-0.4,0-0.8,0.1-1,0.4
	c-0.2,0.3-0.3,0.7-0.3,1.3c0,0.6,0.1,1,0.3,1.3C544.4,408.4,544.7,408.6,545.2,408.6"/>
<path class="st9" d="M548.7,424.7h2.5v0.5h-2v1.3h1.7v0.5h-1.7v2h-0.6V424.7"/>
<path class="st7" d="M309.1,348.5h0.6v1.8h2.2v-1.8h0.6v4.2h-0.6v-2h-2.2v2h-0.6V348.5"/>
<path class="st7" d="M312.9,352.1c0,0,0.1,0,0.2,0.1c0.1,0.1,0.3,0.1,0.4,0.1c0.1,0,0.3,0,0.4,0c0.3,0,0.5-0.1,0.6-0.2
	c0.2-0.1,0.2-0.3,0.2-0.5c0-0.2,0-0.3-0.1-0.4c-0.1-0.1-0.2-0.2-0.3-0.2c-0.1-0.1-0.3-0.1-0.5-0.2c-0.3-0.1-0.5-0.1-0.6-0.2
	c-0.1-0.1-0.3-0.2-0.4-0.3c-0.1-0.2-0.2-0.4-0.2-0.6c0-0.4,0.1-0.6,0.4-0.9c0.2-0.2,0.6-0.3,1.1-0.3c0.3,0,0.7,0.1,1,0.2l-0.1,0.5
	c-0.3-0.1-0.6-0.2-0.9-0.2c-0.3,0-0.5,0.1-0.6,0.2c-0.2,0.1-0.2,0.3-0.2,0.5c0,0.2,0,0.3,0.1,0.4c0.1,0.1,0.2,0.2,0.3,0.2
	c0.1,0.1,0.3,0.1,0.5,0.2c0.3,0.1,0.5,0.2,0.6,0.2c0.2,0.1,0.3,0.2,0.4,0.4c0.1,0.2,0.2,0.4,0.2,0.7c0,0.4-0.1,0.7-0.4,0.9
	c-0.3,0.2-0.6,0.3-1,0.3c-0.3,0-0.5,0-0.7-0.1c-0.2-0.1-0.4-0.1-0.6-0.2L312.9,352.1"/>
<path class="st1" d="M833.7,415.3l-10.1-6.4"/>
<path class="st1" d="M823.6,409l0.2-4.7"/>
<path class="st4" d="M823.8,404.3l0.2-4.7"/>
<path class="st4" d="M821.9,395.6l-5.6-3.6"/>
<path class="st4" d="M814.1,388.2l0.3-7"/>
<path class="st4" d="M812.3,377.4l-5.6-3.6"/>
<path class="st4" d="M804.6,370l0.1-3.5"/>
<path class="st3" d="M804.7,366.4l0.1-3.5"/>
<path class="st3" d="M803.7,358.3l-3.1-2"/>
<path class="st1" d="M800.5,356.3l-3.1-2"/>
<path class="st3" d="M802.4,360.3l-3.1-2"/>
<path class="st1" d="M799.3,358.4l-3.1-2"/>
<path class="st1" d="M793.6,351.9l-8.1-5.1"/>
<path class="st1" d="M792.3,354l-8.1-5.1"/>
<path class="st1" d="M784.8,347.8l-10.5,5.5"/>
<path class="st1" d="M774.3,353.3l-10.1-6.4"/>
<path class="st1" d="M774,350.4l-7-4.5"/>
<path class="st1" d="M764.2,347l-10.5,5.5"/>
<path class="st1" d="M753.7,352.5l-10.1-6.4"/>
<path class="st1" d="M753.4,349.5l-7-4.5"/>
<path class="st1" d="M743.6,346.2l-4.3,2.3"/>
<path class="st3" d="M739.3,348.4l-4.3,2.3"/>
<path class="st3" d="M731.2,350.5l-6.3-4"/>
<path class="st3" d="M721.1,346.3l-4.3,2.3"/>
<path class="st1" d="M716.8,348.6l-4.3,2.3"/>
<path class="st1" d="M712.5,350.9l-10.1-6.4"/>
<path class="st1" d="M712.2,347.9l-7-4.5"/>
<path class="st1" d="M702.4,344.5l-0.8-11.9"/>
<path class="st1" d="M702.4,344.5l-11.1,4.4"/>
<path class="st1" d="M701.6,332.6l-11.5-2.9"/>
<path class="st1" d="M699.3,334.5l-8.1-2.1"/>
<path class="st1" d="M690.1,329.7l-6.4,10.1"/>
<path class="st1" d="M683.7,339.7l7.6,9.2"/>
<path class="st1" d="M686.7,339.6l5.3,6.4"/>
<path class="st1" d="M691.3,348.9l-2.9,11.5"/>
<path class="st1" d="M688.4,360.4l-11.5,3.2"/>
<path class="st1" d="M688.4,360.4l3.4,3.3"/>
<path class="st2" d="M691.8,363.8l3.4,3.3"/>
<path class="st1" d="M691.1,359.7l2.4,2.3"/>
<path class="st2" d="M693.5,362.1l2.4,2.3"/>
<path class="st1" d="M676.9,363.6l-1.2,4.6"/>
<path class="st2" d="M675.8,368.2l-1.2,4.6"/>
<path class="st2" d="M672.3,375.6l-3.8,1.1"/>
<path class="st4" d="M668.5,376.7l-3.8,1.1"/>
<path class="st2" d="M675.7,376.8l3.4,3.3"/>
<path class="st1" d="M679.1,380.1l3.4,3.3"/>
<path class="st4" d="M661.9,380.9l-1.7,6.6"/>
<path class="st4" d="M661.8,392.1l2.3,2.3"/>
<path class="st2" d="M664.2,394.4l2.3,2.3"/>
<path class="st2" d="M667.5,400.8l-0.8,3.3"/>
<path class="st3" d="M666.6,404.1l-0.8,3.3"/>
<path class="st2" d="M669.5,402.4l-0.6,2.3"/>
<path class="st3" d="M668.9,404.7l-0.6,2.3"/>
<path class="st2" d="M669.8,397.8l8.2-2.3"/>
<path class="st3" d="M667.1,411.6l3.3,3.2"/>
<path class="st1" d="M670.4,414.9l3.3,3.2"/>
<path class="st1" d="M673.7,418.1l4.9-1.4"/>
<path class="st2" d="M678.6,416.7l4.9-1.4"/>
<path class="st2" d="M683.5,413l-2.1-2.5"/>
<path class="st3" d="M681.4,410.5l-2.1-2.5"/>
<path class="st2" d="M684.7,410.7l-1.5-1.7"/>
<path class="st3" d="M683.2,408.9l-1.5-1.7"/>
<path class="st2" d="M685.8,412.5l0.8-3.3"/>
<path class="st4" d="M686.6,409.1l0.9-3.3"/>
<path class="st3" d="M678,403.2l2.3-9.8"/>
<path class="st1" d="M680.3,393.3l2.3-9.8"/>
<path class="st1" d="M682.5,383.5l-1.2,4.6"/>
<path class="st2" d="M681.4,388.1l-1.2,4.6"/>
<path class="st1" d="M679.9,384.3l-0.8,3.2"/>
<path class="st2" d="M679,387.5l-0.8,3.2"/>
<path class="st2" d="M681.2,396.7l2.3,2.3"/>
<path class="st4" d="M683.6,398.9l2.3,2.3"/>
<path class="st2" d="M698.6,368.3l4-1.1"/>
<path class="st3" d="M702.5,367.2l4-1.1"/>
<path class="st2" d="M699.1,365.6l2.8-0.8"/>
<path class="st3" d="M701.9,364.9l2.8-0.8"/>
<path class="st3" d="M710.3,367.4l2.5,2.4"/>
<path class="st2" d="M712.8,369.8l2.5,2.4"/>
<path class="st2" d="M718.6,373.4l4.9-1.4"/>
<path class="st1" d="M723.5,372l4.9-1.4"/>
<path class="st1" d="M728.4,370.6l8.5,8.3"/>
<path class="st1" d="M728,373.6l6,5.8"/>
<path class="st1" d="M736.9,378.9l11.7-2"/>
<path class="st1" d="M736.9,378.9l-1.7,11.8"/>
<path class="st1" d="M748.6,376.9l5.5,10.5"/>
<path class="st1" d="M747.3,379.6l3.9,7.4"/>
<path class="st1" d="M754.1,387.5l-8.3,8.5"/>
<path class="st1" d="M745.8,396l-10.7-5.3"/>
<path class="st1" d="M745.3,393.1l-7.5-3.7"/>
<path class="st1" d="M735.2,390.7l-4.5,2.4"/>
<path class="st8" d="M730.7,393.1l-4.5,2.4"/>
<path class="st6" d="M822.2,397.1c0-0.7,0.2-1.2,0.5-1.6c0.3-0.4,0.8-0.6,1.4-0.6c0.6,0,1.1,0.2,1.4,0.6c0.3,0.4,0.5,0.9,0.5,1.6
	c0,0.7-0.2,1.2-0.5,1.6c-0.3,0.4-0.8,0.6-1.4,0.6c-0.6,0-1.1-0.2-1.4-0.6C822.3,398.3,822.2,397.8,822.2,397.1 M824.1,398.8
	c0.4,0,0.8-0.1,1-0.4c0.2-0.3,0.4-0.7,0.4-1.3c0-0.6-0.1-1-0.4-1.3c-0.2-0.3-0.6-0.4-1-0.4s-0.8,0.1-1,0.4c-0.2,0.3-0.3,0.7-0.3,1.3
	c0,0.6,0.1,1,0.3,1.3C823.3,398.6,823.7,398.8,824.1,398.8"/>
<path class="st6" d="M812.1,390.7c0-0.7,0.2-1.2,0.5-1.6s0.8-0.6,1.4-0.6c0.6,0,1.1,0.2,1.4,0.6s0.5,0.9,0.5,1.6
	c0,0.7-0.2,1.2-0.5,1.6c-0.3,0.4-0.8,0.6-1.4,0.6c-0.6,0-1.1-0.2-1.4-0.6C812.3,391.9,812.1,391.4,812.1,390.7 M814,392.4
	c0.4,0,0.8-0.1,1-0.4c0.2-0.3,0.4-0.7,0.4-1.3c0-0.6-0.1-1-0.4-1.3c-0.2-0.3-0.6-0.4-1-0.4s-0.8,0.1-1,0.4c-0.2,0.3-0.3,0.7-0.3,1.3
	c0,0.6,0.1,1,0.3,1.3C813.3,392.3,813.6,392.4,814,392.4"/>
<path class="st6" d="M812.6,378.8c0-0.7,0.2-1.2,0.5-1.6c0.3-0.4,0.8-0.6,1.4-0.6c0.6,0,1.1,0.2,1.4,0.6c0.3,0.4,0.5,0.9,0.5,1.6
	c0,0.7-0.2,1.2-0.5,1.6c-0.3,0.4-0.8,0.6-1.4,0.6c-0.6,0-1.1-0.2-1.4-0.6C812.7,380,812.6,379.5,812.6,378.8 M814.5,380.5
	c0.4,0,0.8-0.1,1-0.4c0.2-0.3,0.4-0.7,0.4-1.3c0-0.6-0.1-1-0.4-1.3c-0.2-0.3-0.6-0.4-1-0.4s-0.8,0.1-1,0.4c-0.2,0.3-0.3,0.7-0.3,1.3
	c0,0.6,0.1,1,0.3,1.3C813.8,380.4,814.1,380.5,814.5,380.5"/>
<path class="st6" d="M802.5,372.4c0-0.7,0.2-1.2,0.5-1.6c0.3-0.4,0.8-0.6,1.4-0.6c0.6,0,1.1,0.2,1.4,0.6c0.3,0.4,0.5,0.9,0.5,1.6
	c0,0.7-0.2,1.2-0.5,1.6c-0.3,0.4-0.8,0.6-1.4,0.6c-0.6,0-1.1-0.2-1.4-0.6C802.7,373.7,802.5,373.1,802.5,372.4 M804.5,374.2
	c0.4,0,0.8-0.1,1-0.4c0.2-0.3,0.4-0.7,0.4-1.3c0-0.6-0.1-1-0.4-1.3c-0.2-0.3-0.6-0.4-1-0.4c-0.4,0-0.8,0.1-1,0.4
	c-0.2,0.3-0.3,0.7-0.3,1.3c0,0.6,0.1,1,0.3,1.3C803.7,374,804,374.2,804.5,374.2"/>
<path class="st5" d="M804,358.4l1.4,2.2c0.1,0.1,0.2,0.4,0.4,0.6c0.1,0.3,0.2,0.4,0.2,0.4v-3.3h0.6v4.2H806l-1.5-2.5
	c-0.1-0.2-0.2-0.4-0.4-0.6c-0.1-0.2-0.2-0.4-0.2-0.4v3.5h-0.6v-4.2H804"/>
<path d="M793.2,354.2c0-0.7,0.2-1.2,0.5-1.6c0.3-0.4,0.8-0.6,1.4-0.6c0.6,0,1,0.2,1.3,0.6l-0.4,0.3c-0.2-0.3-0.5-0.5-0.9-0.5
	c-0.4,0-0.8,0.1-1,0.4c-0.2,0.3-0.3,0.7-0.3,1.2c0,0.6,0.1,1,0.3,1.3c0.2,0.3,0.6,0.4,1,0.4c0.3,0,0.6-0.1,1-0.3l0.2,0.4
	c-0.1,0.1-0.3,0.2-0.6,0.2c-0.2,0.1-0.5,0.1-0.7,0.1c-0.6,0-1.1-0.2-1.4-0.6C793.4,355.4,793.2,354.9,793.2,354.2"/>
<path class="st5" d="M732.1,349.6l1.4,2.2c0.1,0.1,0.2,0.4,0.4,0.6c0.1,0.3,0.2,0.4,0.2,0.4v-3.3h0.6v4.2h-0.6l-1.5-2.5
	c-0.1-0.2-0.2-0.4-0.4-0.6c-0.1-0.2-0.2-0.4-0.2-0.4v3.5h-0.6v-4.2H732.1"/>
<path class="st5" d="M731.4,354.2h0.6v1.8h2.2v-1.8h0.6v4.2h-0.6v-2H732v2h-0.6V354.2"/>
<path class="st5" d="M722.1,343.2l1.4,2.2c0.1,0.1,0.2,0.4,0.4,0.6c0.1,0.3,0.2,0.4,0.2,0.4v-3.3h0.6v4.2H724l-1.5-2.5
	c-0.1-0.2-0.2-0.4-0.4-0.6c-0.1-0.2-0.2-0.4-0.2-0.4v3.5h-0.6v-4.2H722.1"/>
<path class="st5" d="M721.3,338.5h0.6v1.8h2.2v-1.8h0.6v4.2h-0.6v-2h-2.2v2h-0.6V338.5"/>
<path class="st7" d="M672.8,376.6c0,0,0.1,0,0.2,0.1s0.3,0.1,0.4,0.1c0.1,0,0.3,0,0.4,0c0.3,0,0.5-0.1,0.6-0.2
	c0.2-0.1,0.2-0.3,0.2-0.5c0-0.2,0-0.3-0.1-0.4c-0.1-0.1-0.2-0.2-0.3-0.2c-0.1-0.1-0.3-0.1-0.5-0.2c-0.3-0.1-0.5-0.1-0.6-0.2
	c-0.1-0.1-0.3-0.2-0.4-0.3c-0.1-0.2-0.2-0.4-0.2-0.6c0-0.4,0.1-0.6,0.4-0.9c0.2-0.2,0.6-0.3,1.1-0.3c0.3,0,0.7,0.1,1,0.2l-0.1,0.5
	c-0.3-0.1-0.6-0.2-0.9-0.2c-0.3,0-0.5,0.1-0.6,0.2c-0.2,0.1-0.2,0.3-0.2,0.5c0,0.2,0,0.3,0.1,0.4c0.1,0.1,0.2,0.2,0.3,0.2
	c0.1,0.1,0.3,0.1,0.5,0.2c0.3,0.1,0.5,0.2,0.6,0.2c0.2,0.1,0.3,0.2,0.4,0.4c0.1,0.2,0.2,0.4,0.2,0.7c0,0.4-0.1,0.7-0.4,0.9
	c-0.3,0.2-0.6,0.3-1,0.3c-0.3,0-0.5,0-0.7-0.1c-0.2-0.1-0.4-0.1-0.6-0.2L672.8,376.6"/>
<path class="st7" d="M672.3,377.8h0.6v1.8h2.2v-1.8h0.6v4.2h-0.6v-2h-2.2v2h-0.6V377.8"/>
<path class="st6" d="M660.6,378.4c0-0.7,0.2-1.2,0.5-1.6s0.8-0.6,1.4-0.6c0.6,0,1.1,0.2,1.4,0.6s0.5,0.9,0.5,1.6
	c0,0.7-0.2,1.2-0.5,1.6c-0.3,0.4-0.8,0.6-1.4,0.6c-0.6,0-1.1-0.2-1.4-0.6C660.8,379.6,660.6,379.1,660.6,378.4 M662.5,380.1
	c0.4,0,0.8-0.1,1-0.4c0.2-0.3,0.4-0.7,0.4-1.3c0-0.6-0.1-1-0.4-1.3c-0.2-0.3-0.6-0.4-1-0.4s-0.8,0.1-1,0.4c-0.2,0.3-0.3,0.7-0.3,1.3
	c0,0.6,0.1,1,0.3,1.3C661.8,380,662.1,380.1,662.5,380.1"/>
<path class="st6" d="M657.6,389.9c0-0.7,0.2-1.2,0.5-1.6c0.3-0.4,0.8-0.6,1.4-0.6c0.6,0,1.1,0.2,1.4,0.6c0.3,0.4,0.5,0.9,0.5,1.6
	c0,0.7-0.2,1.2-0.5,1.6c-0.3,0.4-0.8,0.6-1.4,0.6c-0.6,0-1.1-0.2-1.4-0.6C657.8,391.2,657.6,390.6,657.6,389.9 M659.6,391.7
	c0.4,0,0.8-0.1,1-0.4c0.2-0.3,0.4-0.7,0.4-1.3c0-0.6-0.1-1-0.4-1.3c-0.2-0.3-0.6-0.4-1-0.4s-0.8,0.1-1,0.4c-0.2,0.3-0.3,0.7-0.3,1.3
	c0,0.6,0.1,1,0.3,1.3C658.8,391.5,659.2,391.7,659.6,391.7"/>
<path class="st7" d="M666.9,399.7c0,0,0.1,0,0.2,0.1c0.1,0.1,0.3,0.1,0.4,0.1c0.1,0,0.3,0,0.4,0c0.3,0,0.5-0.1,0.6-0.2
	c0.2-0.1,0.2-0.3,0.2-0.5c0-0.2,0-0.3-0.1-0.4c-0.1-0.1-0.2-0.2-0.3-0.2c-0.1-0.1-0.3-0.1-0.5-0.2c-0.3-0.1-0.5-0.1-0.6-0.2
	c-0.1-0.1-0.3-0.2-0.4-0.3c-0.1-0.2-0.2-0.4-0.2-0.6c0-0.4,0.1-0.6,0.4-0.9c0.2-0.2,0.6-0.3,1.1-0.3c0.3,0,0.7,0.1,1.1,0.2l-0.1,0.5
	c-0.3-0.1-0.6-0.2-0.9-0.2c-0.3,0-0.5,0.1-0.6,0.2c-0.2,0.1-0.2,0.3-0.2,0.5c0,0.2,0,0.3,0.1,0.4c0.1,0.1,0.2,0.2,0.3,0.2
	c0.1,0.1,0.3,0.1,0.5,0.2c0.3,0.1,0.5,0.2,0.6,0.2s0.3,0.2,0.4,0.4c0.1,0.2,0.2,0.4,0.2,0.7c0,0.4-0.1,0.7-0.4,0.9
	c-0.3,0.2-0.6,0.3-1,0.3c-0.3,0-0.5,0-0.7-0.1c-0.2-0.1-0.4-0.1-0.6-0.2L666.9,399.7"/>
<path class="st5" d="M664.2,407.7l1.4,2.2c0.1,0.1,0.2,0.4,0.4,0.6c0.1,0.3,0.2,0.4,0.2,0.4v-3.3h0.6v4.2h-0.6l-1.5-2.5
	c-0.1-0.2-0.2-0.4-0.4-0.6c-0.1-0.2-0.2-0.4-0.2-0.4v3.5h-0.6v-4.2H664.2"/>
<path class="st7" d="M683.9,416.3c0,0,0.1,0,0.2,0.1c0.1,0.1,0.3,0.1,0.4,0.1c0.1,0,0.3,0,0.4,0c0.3,0,0.5-0.1,0.6-0.2
	c0.2-0.1,0.2-0.3,0.2-0.5c0-0.2,0-0.3-0.1-0.4c-0.1-0.1-0.2-0.2-0.3-0.2s-0.3-0.1-0.5-0.2c-0.3-0.1-0.5-0.1-0.6-0.2
	c-0.1-0.1-0.3-0.2-0.4-0.3c-0.1-0.2-0.2-0.4-0.2-0.6c0-0.4,0.1-0.6,0.4-0.9c0.2-0.2,0.6-0.3,1.1-0.3c0.3,0,0.7,0.1,1,0.2l-0.1,0.5
	c-0.3-0.1-0.6-0.2-0.9-0.2c-0.3,0-0.5,0.1-0.6,0.2c-0.2,0.1-0.2,0.3-0.2,0.5c0,0.2,0,0.3,0.1,0.4c0.1,0.1,0.2,0.2,0.3,0.2
	c0.1,0.1,0.3,0.1,0.5,0.2c0.3,0.1,0.5,0.2,0.6,0.2c0.2,0.1,0.3,0.2,0.4,0.4c0.1,0.2,0.2,0.4,0.2,0.7c0,0.4-0.1,0.7-0.4,0.9
	c-0.3,0.2-0.6,0.3-1,0.3c-0.3,0-0.5,0-0.7-0.1c-0.2-0.1-0.4-0.1-0.6-0.2L683.9,416.3"/>
<path class="st5" d="M676.4,403.7l1.4,2.2c0.1,0.1,0.2,0.4,0.4,0.6c0.1,0.3,0.2,0.4,0.2,0.4v-3.3h0.6v4.2h-0.6l-1.5-2.5
	c-0.1-0.2-0.2-0.4-0.4-0.6c-0.1-0.2-0.2-0.4-0.2-0.4v3.5h-0.6v-4.2H676.4"/>
<path class="st7" d="M678.4,396.5c0,0,0.1,0,0.2,0.1c0.1,0.1,0.3,0.1,0.4,0.1c0.1,0,0.3,0,0.4,0c0.3,0,0.5-0.1,0.6-0.2
	c0.2-0.1,0.2-0.3,0.2-0.5c0-0.2,0-0.3-0.1-0.4c-0.1-0.1-0.2-0.2-0.3-0.2c-0.1-0.1-0.3-0.1-0.5-0.2c-0.3-0.1-0.5-0.2-0.6-0.2
	c-0.1-0.1-0.3-0.2-0.4-0.3c-0.1-0.2-0.2-0.4-0.2-0.6c0-0.4,0.1-0.6,0.4-0.9c0.2-0.2,0.6-0.3,1.1-0.3c0.3,0,0.7,0.1,1.1,0.2l-0.1,0.5
	c-0.3-0.1-0.6-0.2-0.9-0.2c-0.3,0-0.5,0.1-0.6,0.2c-0.2,0.1-0.2,0.3-0.2,0.5c0,0.2,0,0.3,0.1,0.4c0.1,0.1,0.2,0.2,0.3,0.2
	c0.1,0.1,0.3,0.1,0.5,0.2c0.3,0.1,0.5,0.2,0.6,0.2c0.2,0.1,0.3,0.2,0.4,0.4c0.1,0.2,0.2,0.4,0.2,0.7c0,0.4-0.1,0.7-0.4,0.9
	c-0.3,0.2-0.6,0.3-1,0.3c-0.3,0-0.5,0-0.7-0.1c-0.2-0.1-0.4-0.1-0.6-0.2L678.4,396.5"/>
<path class="st6" d="M686.1,403.4c0-0.7,0.2-1.2,0.5-1.6c0.3-0.4,0.8-0.6,1.4-0.6c0.6,0,1.1,0.2,1.4,0.6c0.3,0.4,0.5,0.9,0.5,1.6
	c0,0.7-0.2,1.2-0.5,1.6c-0.3,0.4-0.8,0.6-1.4,0.6c-0.6,0-1.1-0.2-1.4-0.6C686.3,404.6,686.1,404.1,686.1,403.4 M688.1,405.1
	c0.4,0,0.8-0.1,1-0.4c0.2-0.3,0.4-0.7,0.4-1.3c0-0.6-0.1-1-0.4-1.3c-0.2-0.3-0.6-0.4-1-0.4c-0.4,0-0.8,0.1-1,0.4
	c-0.2,0.3-0.3,0.7-0.3,1.3c0,0.6,0.1,1,0.3,1.3C687.3,404.9,687.7,405.1,688.1,405.1"/>
<path class="st7" d="M695.7,370.2c0,0,0.1,0,0.2,0.1c0.1,0.1,0.3,0.1,0.4,0.1c0.1,0,0.3,0,0.4,0c0.3,0,0.5-0.1,0.6-0.2
	c0.2-0.1,0.2-0.3,0.2-0.5c0-0.2,0-0.3-0.1-0.4c-0.1-0.1-0.2-0.2-0.3-0.2s-0.3-0.1-0.5-0.2c-0.3-0.1-0.5-0.1-0.6-0.2
	c-0.1-0.1-0.3-0.2-0.4-0.3c-0.1-0.2-0.2-0.4-0.2-0.6c0-0.4,0.1-0.6,0.4-0.9c0.2-0.2,0.6-0.3,1.1-0.3c0.3,0,0.7,0.1,1,0.2l-0.1,0.5
	c-0.3-0.1-0.6-0.2-0.9-0.2c-0.3,0-0.5,0.1-0.6,0.2c-0.2,0.1-0.2,0.3-0.2,0.5c0,0.2,0,0.3,0.1,0.4c0.1,0.1,0.2,0.2,0.3,0.2
	c0.1,0.1,0.3,0.1,0.5,0.2c0.3,0.1,0.5,0.2,0.6,0.2c0.2,0.1,0.3,0.2,0.4,0.4c0.1,0.2,0.2,0.4,0.2,0.7c0,0.4-0.1,0.7-0.4,0.9
	c-0.3,0.2-0.6,0.3-1,0.3c-0.3,0-0.5,0-0.7-0.1c-0.2-0.1-0.4-0.1-0.6-0.2L695.7,370.2"/>
<path class="st5" d="M707.4,363.4l1.4,2.2c0.1,0.1,0.2,0.4,0.4,0.6s0.2,0.4,0.2,0.4v-3.3h0.6v4.2h-0.6l-1.5-2.5
	c-0.1-0.2-0.2-0.4-0.4-0.6c-0.1-0.2-0.2-0.4-0.2-0.4v3.5h-0.6v-4.2H707.4"/>
<path class="st7" d="M715.7,375.3c0,0,0.1,0,0.2,0.1c0.1,0.1,0.3,0.1,0.4,0.1c0.1,0,0.3,0,0.4,0c0.3,0,0.5-0.1,0.6-0.2
	c0.2-0.1,0.2-0.3,0.2-0.5c0-0.2,0-0.3-0.1-0.4c-0.1-0.1-0.2-0.2-0.3-0.2s-0.3-0.1-0.5-0.2c-0.3-0.1-0.5-0.2-0.6-0.2
	c-0.1-0.1-0.3-0.2-0.4-0.3c-0.1-0.2-0.2-0.4-0.2-0.6c0-0.4,0.1-0.6,0.4-0.9c0.2-0.2,0.6-0.3,1.1-0.3c0.3,0,0.7,0.1,1,0.2l-0.1,0.5
	c-0.3-0.1-0.6-0.2-0.9-0.2c-0.3,0-0.5,0.1-0.6,0.2c-0.2,0.1-0.2,0.3-0.2,0.5c0,0.2,0,0.3,0.1,0.4c0.1,0.1,0.2,0.2,0.3,0.2
	c0.1,0.1,0.3,0.1,0.5,0.2c0.3,0.1,0.5,0.2,0.6,0.2c0.2,0.1,0.3,0.2,0.4,0.4c0.1,0.2,0.2,0.4,0.2,0.7c0,0.4-0.1,0.7-0.4,0.9
	c-0.3,0.2-0.6,0.3-1,0.3c-0.3,0-0.5,0-0.7-0.1c-0.2-0.1-0.4-0.1-0.6-0.2L715.7,375.3"/>
<path class="st9" d="M723.4,394.1h2.5v0.5h-2v1.3h1.7v0.5h-1.7v2h-0.6V394.1"/>
</svg>
