<?xml version="1.0" encoding="utf-8"?>
<!-- Generator: Adobe Illustrator 24.1.0, SVG Export Plug-In . SVG Version: 6.00 Build 0)  -->
<svg version="1.1" id="Layer_1" xmlns:rdkit="http://www.rdkit.org/xml"
	 xmlns="http://www.w3.org/2000/svg" xmlns:xlink="http://www.w3.org/1999/xlink" x="0px" y="0px" viewBox="0 0 711 416"
	 style="enable-background:new 0 0 711 416;" xml:space="preserve">
<style type="text/css">
	.st0{fill:#FFFFFF;}
	.st1{fill:none;stroke:#33CCCC;stroke-width:2;}
	.st2{fill:none;stroke:#CCCC00;stroke-width:2;}
	.st3{fill:none;stroke:#000000;stroke-width:2;}
	.st4{fill:none;stroke:#0000FF;stroke-width:2;}
	.st5{fill:#33CCCC;}
	.st6{fill:#CCCC00;}
	.st7{fill:#0000FF;}
	.st8{fill:none;stroke:#FF0000;stroke-width:2;}
	.st9{fill:#FF0000;}
</style>
<rect x="-131" y="-40" class="st0" width="900" height="480"/>
<rect x="-131" y="-40" class="st0" width="900" height="480"/>
<rect x="-131" y="-40" class="st0" width="900" height="480"/>
<rect x="-131" y="-40" class="st0" width="900" height="480"/>
<rect x="-131" y="-40" class="st0" width="900" height="480"/>
<rect x="-131" y="-40" class="st0" width="900" height="480"/>
<rect x="-131" y="-40" class="st0" width="900" height="480"/>
<rect x="-131" y="-40" class="st0" width="900" height="480"/>
<rect x="-131" y="-40" class="st0" width="900" height="480"/>
<rect x="-131" y="-40" class="st0" width="900" height="480"/>
<path class="st1" d="M28,43.2l3.4-1.5"/>
<path class="st2" d="M31.4,41.8l3.4-1.5"/>
<path class="st2" d="M38,40.9l3.5,2.6"/>
<path class="st3" d="M41.5,43.5l3.5,2.6"/>
<path class="st3" d="M45.4,47.2l4-1.7"/>
<path class="st4" d="M49.5,45.4l4-1.7"/>
<path class="st3" d="M44.6,45.2l4-1.7"/>
<path class="st4" d="M48.6,43.5l4-1.7"/>
<path class="st5" d="M25.2,41.8h2.5v0.5h-2v1.3h1.7V44h-1.7v2h-0.6V41.8"/>
<path class="st6" d="M35.2,41.1c0,0,0.1,0,0.2,0.1c0.1,0.1,0.3,0.1,0.4,0.1c0.1,0,0.3,0,0.4,0c0.3,0,0.5-0.1,0.6-0.2
	c0.2-0.1,0.2-0.3,0.2-0.5c0-0.2,0-0.3-0.1-0.4c-0.1-0.1-0.2-0.2-0.3-0.2c-0.1-0.1-0.3-0.1-0.5-0.2c-0.3-0.1-0.5-0.2-0.6-0.2
	c-0.1-0.1-0.3-0.2-0.4-0.3c-0.1-0.2-0.2-0.4-0.2-0.6c0-0.4,0.1-0.6,0.4-0.9c0.2-0.2,0.6-0.3,1.1-0.3c0.3,0,0.7,0.1,1,0.2l-0.1,0.5
	c-0.3-0.1-0.6-0.2-0.9-0.2c-0.3,0-0.5,0.1-0.6,0.2c-0.2,0.1-0.2,0.3-0.2,0.5c0,0.2,0,0.3,0.1,0.4c0.1,0.1,0.2,0.2,0.3,0.2
	c0.1,0.1,0.3,0.1,0.5,0.2c0.3,0.1,0.5,0.2,0.6,0.2c0.2,0.1,0.3,0.2,0.4,0.4c0.1,0.2,0.2,0.4,0.2,0.7c0,0.4-0.1,0.7-0.4,0.9
	c-0.3,0.2-0.6,0.3-1,0.3c-0.3,0-0.5,0-0.7-0.1c-0.2-0.1-0.4-0.1-0.6-0.2L35.2,41.1"/>
<path class="st7" d="M54,39.8l1.4,2.2c0.1,0.1,0.2,0.4,0.4,0.6s0.2,0.4,0.2,0.4v-3.3h0.6v4.2H56l-1.5-2.5c-0.1-0.2-0.2-0.4-0.4-0.6
	c-0.1-0.2-0.2-0.4-0.2-0.4v3.5h-0.6v-4.2H54"/>
<path class="st7" d="M57.1,39.8h0.6v1.8h2.2v-1.8h0.6v4.2h-0.6v-2h-2.2v2h-0.6V39.8"/>
<path class="st4" d="M372.9,14.3l0.9-4.1"/>
<path class="st3" d="M373.8,10.2l0.9-4.1"/>
<path class="st4" d="M370.8,13.8l0.9-4.1"/>
<path class="st3" d="M371.7,9.7l0.9-4.1"/>
<path class="st4" d="M369.4,17l-4.2,1.3"/>
<path class="st3" d="M365.2,18.4l-4.2,1.3"/>
<path class="st3" d="M361,19.7l-2.4,10.5"/>
<path class="st3" d="M362.7,21.7l-1.7,7.4"/>
<path class="st3" d="M358.6,30.2l-10.3,3.2"/>
<path class="st3" d="M347.2,33.2l-1.8,8.1"/>
<path class="st3" d="M349.3,33.7l-1.8,8.1"/>
<path class="st3" d="M344.3,46.2l-1.8,8.1"/>
<path class="st3" d="M346.4,46.7l-1.8,8.1"/>
<path class="st3" d="M343.5,54.5l-10.3,3.2"/>
<path class="st3" d="M343.5,54.5l7.9,7.3"/>
<path class="st3" d="M333.2,57.7l-7.9-7.3"/>
<path class="st3" d="M333.5,55.1l-5.6-5.1"/>
<path class="st3" d="M325.3,50.4L315,53.6"/>
<path class="st3" d="M315,53.6l-7.9-7.3"/>
<path class="st3" d="M315.2,51l-5.6-5.1"/>
<path class="st3" d="M307,46.3l-10.3,3.2"/>
<path class="st3" d="M297.4,48.7l-6-5.6"/>
<path class="st3" d="M296,50.3l-6-5.6"/>
<path class="st3" d="M287.6,39.7l-6-5.6"/>
<path class="st3" d="M286.1,41.2l-6-5.6"/>
<path class="st3" d="M280.8,34.9l2.4-10.5"/>
<path class="st3" d="M351.5,61.9l10.3-3.2"/>
<path class="st3" d="M352.4,59.3l7.2-2.3"/>
<path class="st3" d="M361.8,58.6l8.7,6.5"/>
<path class="st3" d="M361.8,58.6l3.5-10.2"/>
<path class="st3" d="M370.5,65.1l8.8-6.3"/>
<path class="st3" d="M370.5,62.4l6.2-4.4"/>
<path class="st3" d="M379.3,58.8l-3.2-10.3"/>
<path class="st3" d="M376.1,48.5l-10.8-0.1"/>
<path class="st3" d="M374.4,50.7l-7.6-0.1"/>
<path class="st3" d="M365.3,48.4l-2.4-3.3"/>
<path class="st1" d="M362.9,45.1l-2.4-3.3"/>
<path class="st7" d="M370.4,14.3l1.4,2.2c0.1,0.1,0.2,0.4,0.4,0.6c0.1,0.3,0.2,0.4,0.2,0.4v-3.3h0.6v4.2h-0.6l-1.5-2.5
	c-0.1-0.2-0.2-0.4-0.4-0.6c-0.1-0.2-0.2-0.4-0.2-0.4v3.5h-0.6v-4.2H370.4"/>
<path d="M344.3,44c0-0.7,0.2-1.2,0.5-1.6c0.3-0.4,0.8-0.6,1.4-0.6c0.6,0,1,0.2,1.3,0.6l-0.4,0.3c-0.2-0.3-0.5-0.4-0.9-0.4
	c-0.4,0-0.8,0.1-1,0.4c-0.2,0.3-0.3,0.7-0.3,1.2c0,0.6,0.1,1,0.3,1.3c0.2,0.3,0.6,0.4,1,0.4c0.3,0,0.6-0.1,1-0.3l0.2,0.5
	c-0.1,0.1-0.3,0.2-0.6,0.2s-0.5,0.1-0.7,0.1c-0.6,0-1.1-0.2-1.4-0.6C344.4,45.2,344.3,44.7,344.3,44"/>
<path d="M287.1,42.2c0-0.7,0.2-1.2,0.5-1.6c0.3-0.4,0.8-0.6,1.4-0.6c0.6,0,1,0.2,1.3,0.6L290,41c-0.2-0.3-0.5-0.4-0.9-0.4
	c-0.4,0-0.8,0.1-1,0.4c-0.2,0.3-0.3,0.7-0.3,1.2c0,0.6,0.1,1,0.3,1.3c0.2,0.3,0.6,0.4,1,0.4c0.3,0,0.6-0.1,1-0.3l0.2,0.5
	c-0.1,0.1-0.3,0.2-0.6,0.2s-0.5,0.1-0.7,0.1c-0.6,0-1.1-0.2-1.4-0.6C287.3,43.5,287.1,42.9,287.1,42.2"/>
<path class="st5" d="M357.8,37.5h2.5v0.5h-2v1.3h1.7v0.5h-1.7v2h-0.6V37.5"/>
<path class="st3" d="M631.3,46.2l3.7-2.2"/>
<path class="st4" d="M635.1,44l3.7-2.2"/>
<path class="st3" d="M631.4,43.6l2.6-1.5"/>
<path class="st4" d="M634,42.1l2.6-1.5"/>
<path class="st3" d="M631.3,46.2l-3.9-2.3"/>
<path class="st1" d="M627.4,43.9l-3.9-2.3"/>
<path class="st4" d="M642.6,41.8l3,1.7"/>
<path class="st2" d="M645.5,43.5l3,1.7"/>
<path class="st2" d="M651.7,45.2l3.1-1.8"/>
<path class="st1" d="M654.8,43.4l3.1-1.8"/>
<path class="st7" d="M639.8,38.6l1.4,2.2c0.1,0.1,0.2,0.4,0.4,0.6c0.1,0.3,0.2,0.4,0.2,0.4v-3.3h0.6v4.2h-0.6l-1.5-2.5
	c-0.1-0.2-0.2-0.4-0.4-0.6c-0.1-0.2-0.2-0.4-0.2-0.4v3.5h-0.6v-4.2H639.8"/>
<path class="st6" d="M648.9,47.6c0,0,0.1,0,0.2,0.1c0.1,0.1,0.3,0.1,0.4,0.1c0.1,0,0.3,0,0.4,0c0.3,0,0.5-0.1,0.6-0.2
	c0.2-0.1,0.2-0.3,0.2-0.5c0-0.2,0-0.3-0.1-0.4c-0.1-0.1-0.2-0.2-0.3-0.2c-0.1-0.1-0.3-0.1-0.5-0.2c-0.3-0.1-0.5-0.1-0.6-0.2
	c-0.1-0.1-0.3-0.2-0.4-0.3c-0.1-0.2-0.2-0.4-0.2-0.6c0-0.4,0.1-0.6,0.4-0.9c0.2-0.2,0.6-0.3,1.1-0.3c0.3,0,0.7,0.1,1,0.2l-0.1,0.5
	c-0.3-0.1-0.6-0.2-0.9-0.2c-0.3,0-0.5,0.1-0.6,0.2c-0.2,0.1-0.2,0.3-0.2,0.5c0,0.2,0,0.3,0.1,0.4c0.1,0.1,0.2,0.2,0.3,0.2
	c0.1,0.1,0.3,0.1,0.5,0.2c0.3,0.1,0.5,0.2,0.6,0.2s0.3,0.2,0.4,0.4c0.1,0.2,0.2,0.4,0.2,0.7c0,0.4-0.1,0.7-0.4,0.9
	c-0.3,0.2-0.6,0.3-1,0.3c-0.3,0-0.5,0-0.7-0.1c-0.2-0.1-0.4-0.1-0.6-0.2L648.9,47.6"/>
<path class="st5" d="M658.2,38.6h2.5v0.5h-2v1.3h1.7v0.5h-1.7v2h-0.6V38.6"/>
<path class="st5" d="M620.7,38.6h2.5v0.5h-2v1.3h1.7v0.5h-1.7v2h-0.6V38.6"/>
<path class="st1" d="M13.7,209.6l0.7-2.8"/>
<path class="st2" d="M14.4,206.8l0.7-2.8"/>
<path class="st2" d="M17.4,201.1l4.4-1.2"/>
<path class="st3" d="M21.7,199.8l4.4-1.3"/>
<path class="st2" d="M19.3,202.8l3.1-0.9"/>
<path class="st3" d="M22.3,201.9l3.1-0.9"/>
<path class="st2" d="M18.1,198.6l3.1-0.9"/>
<path class="st3" d="M21.1,197.7l3.1-0.9"/>
<path class="st3" d="M26.1,198.6l4.3-1.2"/>
<path class="st4" d="M30.4,197.4l4.3-1.2"/>
<path class="st4" d="M38.4,197.4l4.1,3.9"/>
<path class="st4" d="M37.5,199.6l2.8,2.8"/>
<path class="st4" d="M46.2,202.6l3.2-0.9"/>
<path class="st8" d="M49.3,201.7l3.2-0.9"/>
<path class="st8" d="M56.9,202.3l3.4,3.3"/>
<path class="st8" d="M64.7,207l3.3-1"/>
<path class="st1" d="M68,206.1l3.3-1"/>
<path class="st5" d="M11.8,209.9h2.5v0.5h-2v1.3h1.7v0.5h-1.7v2h-0.6V209.9"/>
<path class="st6" d="M14.5,203c0,0,0.1,0,0.2,0.1s0.3,0.1,0.4,0.1c0.1,0,0.3,0,0.4,0c0.3,0,0.5-0.1,0.6-0.2c0.2-0.1,0.2-0.3,0.2-0.5
	c0-0.2,0-0.3-0.1-0.4c-0.1-0.1-0.2-0.2-0.3-0.2c-0.1-0.1-0.3-0.1-0.5-0.2c-0.3-0.1-0.5-0.1-0.6-0.2c-0.1-0.1-0.3-0.2-0.4-0.3
	c-0.1-0.2-0.2-0.4-0.2-0.6c0-0.4,0.1-0.6,0.4-0.9c0.2-0.2,0.6-0.3,1.1-0.3c0.3,0,0.7,0.1,1.1,0.2l-0.1,0.5c-0.3-0.1-0.6-0.2-0.9-0.2
	c-0.3,0-0.5,0.1-0.6,0.2c-0.2,0.1-0.2,0.3-0.2,0.5c0,0.2,0,0.3,0.1,0.4c0.1,0.1,0.2,0.2,0.3,0.2c0.1,0.1,0.3,0.1,0.5,0.2
	c0.3,0.1,0.5,0.2,0.6,0.2s0.3,0.2,0.4,0.4c0.1,0.2,0.2,0.4,0.2,0.7c0,0.4-0.1,0.7-0.4,0.9c-0.3,0.2-0.6,0.3-1,0.3
	c-0.3,0-0.5,0-0.7-0.1c-0.2-0.1-0.4-0.1-0.6-0.2L14.5,203"/>
<path class="st7" d="M35.6,193.5l1.4,2.2c0.1,0.1,0.2,0.4,0.4,0.6c0.1,0.3,0.2,0.4,0.2,0.4v-3.3h0.6v4.2h-0.6l-1.5-2.5
	c-0.1-0.2-0.2-0.4-0.4-0.6c-0.1-0.2-0.2-0.4-0.2-0.4v3.5h-0.6v-4.2H35.6"/>
<path class="st7" d="M43.3,201l1.4,2.2c0.1,0.1,0.2,0.4,0.4,0.6c0.1,0.3,0.2,0.4,0.2,0.4V201h0.6v4.2h-0.6l-1.5-2.5
	c-0.1-0.2-0.2-0.4-0.4-0.6c-0.1-0.2-0.2-0.4-0.2-0.4v3.5h-0.6V201H43.3"/>
<path class="st9" d="M52.7,200.2c0-0.7,0.2-1.2,0.5-1.6c0.3-0.4,0.8-0.6,1.4-0.6s1.1,0.2,1.4,0.6c0.3,0.4,0.5,0.9,0.5,1.6
	c0,0.7-0.2,1.2-0.5,1.6c-0.3,0.4-0.8,0.6-1.4,0.6c-0.6,0-1.1-0.2-1.4-0.6C52.9,201.4,52.7,200.9,52.7,200.2 M54.7,201.9
	c0.4,0,0.8-0.1,1-0.4c0.2-0.3,0.4-0.7,0.4-1.3c0-0.6-0.1-1-0.4-1.3c-0.2-0.3-0.6-0.4-1-0.4c-0.4,0-0.8,0.1-1,0.4
	c-0.2,0.3-0.3,0.7-0.3,1.3c0,0.6,0.1,1,0.3,1.3C53.9,201.7,54.2,201.9,54.7,201.9"/>
<path class="st9" d="M60.5,207.7c0-0.7,0.2-1.2,0.5-1.6c0.3-0.4,0.8-0.6,1.4-0.6c0.6,0,1.1,0.2,1.4,0.6c0.3,0.4,0.5,0.9,0.5,1.6
	c0,0.7-0.2,1.2-0.5,1.6c-0.3,0.4-0.8,0.6-1.4,0.6c-0.6,0-1.1-0.2-1.4-0.6C60.7,208.9,60.5,208.4,60.5,207.7 M62.4,209.4
	c0.4,0,0.8-0.1,1-0.4c0.2-0.3,0.4-0.7,0.4-1.3c0-0.6-0.1-1-0.4-1.3c-0.2-0.3-0.6-0.4-1-0.4c-0.4,0-0.8,0.1-1,0.4
	c-0.2,0.3-0.3,0.7-0.3,1.3c0,0.6,0.1,1,0.3,1.3C61.7,209.3,62,209.4,62.4,209.4"/>
<path class="st5" d="M71.6,202.6h2.5v0.5h-2v1.3h1.7v0.5h-1.7v2h-0.6V202.6"/>
<path class="st1" d="M405.2,181.2l-1.1,2.6"/>
<path class="st8" d="M404.1,183.8l-1.1,2.6"/>
<path class="st8" d="M399.9,189.1l-4.2,0.6"/>
<path class="st3" d="M395.7,189.7l-4.2,0.6"/>
<path class="st3" d="M391.4,190.3l-4,10"/>
<path class="st3" d="M387.4,200.3l-10.7,1.5"/>
<path class="st3" d="M385.5,198.4l-7.5,1.1"/>
<path class="st3" d="M376.7,201.9l-4,10"/>
<path class="st3" d="M372.5,210.8l-8.8,1.2"/>
<path class="st3" d="M372.8,213l-8.8,1.2"/>
<path class="st3" d="M359.9,212.6l-8.8,1.2"/>
<path class="st3" d="M360.2,214.7l-8.8,1.2"/>
<path class="st3" d="M351.2,214.9l-1.5,3.8"/>
<path class="st8" d="M349.7,218.7l-1.5,3.8"/>
<path class="st3" d="M351.2,214.9l-6.7-8.5"/>
<path class="st8" d="M345,225.3l-3.5,0.5"/>
<path class="st2" d="M341.5,225.8l-3.5,0.5"/>
<path class="st2" d="M335.5,229l-1,2.6"/>
<path class="st4" d="M334.5,231.6l-1,2.6"/>
<path class="st2" d="M333.2,228.9l-0.9,2.2"/>
<path class="st4" d="M332.3,231.2l-0.9,2.2"/>
<path class="st2" d="M337.2,230.6l-0.9,2.2"/>
<path class="st4" d="M336.3,232.8l-0.9,2.2"/>
<path class="st3" d="M344.6,206.4l-10.7,1.5"/>
<path class="st3" d="M343.3,208.8l-7.5,1.1"/>
<path class="st3" d="M333.9,207.9l-6.7-8.5"/>
<path class="st3" d="M327.2,199.4l-10.7,1.5"/>
<path class="st3" d="M325.9,201.8l-7.5,1.1"/>
<path class="st3" d="M316.5,201l-6.7-8.5"/>
<path class="st3" d="M309.8,192.4l-10.7,1.5"/>
<path class="st3" d="M308.5,194.8l-7.5,1.1"/>
<path class="st3" d="M299.1,194l-1.5,3.8"/>
<path class="st8" d="M297.6,197.8l-1.5,3.8"/>
<path class="st3" d="M299.1,194l-6.7-8.5"/>
<path class="st8" d="M292.9,204.3l-3.5,0.5"/>
<path class="st1" d="M289.4,204.8l-3.5,0.5"/>
<path class="st3" d="M292.5,185.5l-2.4-3.1"/>
<path class="st4" d="M290.1,182.4l-2.4-3.1"/>
<path class="st3" d="M293.5,183.2l-2-2.6"/>
<path class="st4" d="M291.4,180.6l-2-2.6"/>
<path class="st3" d="M290.1,185.9l-2-2.6"/>
<path class="st4" d="M288,183.3l-2-2.6"/>
<path class="st5" d="M404.9,176.6h2.5v0.5h-2v1.3h1.7v0.5h-1.7v2h-0.6V176.6"/>
<path class="st9" d="M400.2,188.8c0-0.7,0.2-1.2,0.5-1.6c0.3-0.4,0.8-0.6,1.4-0.6s1.1,0.2,1.4,0.6c0.3,0.4,0.5,0.9,0.5,1.6
	c0,0.7-0.2,1.2-0.5,1.6c-0.3,0.4-0.8,0.6-1.4,0.6c-0.6,0-1.1-0.2-1.4-0.6C400.3,190,400.2,189.5,400.2,188.8 M402.1,190.5
	c0.4,0,0.8-0.1,1-0.4c0.2-0.3,0.4-0.7,0.4-1.3c0-0.6-0.1-1-0.4-1.3c-0.2-0.3-0.6-0.4-1-0.4s-0.8,0.1-1,0.4c-0.2,0.3-0.3,0.7-0.3,1.3
	c0,0.6,0.1,1,0.3,1.3C401.4,190.4,401.7,190.5,402.1,190.5"/>
<path d="M360.3,213.4c0-0.7,0.2-1.2,0.5-1.6c0.3-0.4,0.8-0.6,1.4-0.6c0.6,0,1,0.2,1.3,0.6l-0.4,0.3c-0.2-0.3-0.5-0.4-0.9-0.4
	c-0.4,0-0.8,0.1-1,0.4c-0.2,0.3-0.3,0.7-0.3,1.2c0,0.6,0.1,1,0.3,1.3c0.2,0.3,0.6,0.4,1,0.4c0.3,0,0.6-0.1,1-0.3l0.2,0.5
	c-0.1,0.1-0.3,0.2-0.6,0.2s-0.5,0.1-0.7,0.1c-0.6,0-1.1-0.2-1.4-0.6C360.5,214.7,360.3,214.1,360.3,213.4"/>
<path class="st9" d="M345.3,225c0-0.7,0.2-1.2,0.5-1.6s0.8-0.6,1.4-0.6c0.6,0,1.1,0.2,1.4,0.6s0.5,0.9,0.5,1.6
	c0,0.7-0.2,1.2-0.5,1.6c-0.3,0.4-0.8,0.6-1.4,0.6c-0.6,0-1.1-0.2-1.4-0.6C345.4,226.2,345.3,225.7,345.3,225 M347.2,226.7
	c0.4,0,0.8-0.1,1-0.4c0.2-0.3,0.4-0.7,0.4-1.3c0-0.6-0.1-1-0.4-1.3c-0.2-0.3-0.6-0.4-1-0.4c-0.4,0-0.8,0.1-1,0.4
	c-0.2,0.3-0.3,0.7-0.3,1.3c0,0.6,0.1,1,0.3,1.3C346.4,226.5,346.8,226.7,347.2,226.7"/>
<path class="st6" d="M335.3,227.9c0,0,0.1,0,0.2,0.1c0.1,0.1,0.3,0.1,0.4,0.1c0.1,0,0.3,0,0.4,0c0.3,0,0.5-0.1,0.6-0.2
	c0.2-0.1,0.2-0.3,0.2-0.5c0-0.2,0-0.3-0.1-0.4c-0.1-0.1-0.2-0.2-0.3-0.2s-0.3-0.1-0.5-0.2c-0.3-0.1-0.5-0.2-0.6-0.2
	c-0.1-0.1-0.3-0.2-0.4-0.3c-0.1-0.2-0.2-0.4-0.2-0.6c0-0.4,0.1-0.6,0.4-0.9c0.2-0.2,0.6-0.3,1.1-0.3c0.3,0,0.7,0.1,1.1,0.2l-0.1,0.5
	c-0.3-0.1-0.6-0.2-0.9-0.2c-0.3,0-0.5,0.1-0.6,0.2c-0.2,0.1-0.2,0.3-0.2,0.5c0,0.2,0,0.3,0.1,0.4c0.1,0.1,0.2,0.2,0.3,0.2
	c0.1,0.1,0.3,0.1,0.5,0.2c0.3,0.1,0.5,0.2,0.6,0.2s0.3,0.2,0.4,0.4c0.1,0.2,0.2,0.4,0.2,0.7c0,0.4-0.1,0.7-0.4,0.9
	c-0.3,0.2-0.6,0.3-1,0.3c-0.3,0-0.5,0-0.7-0.1c-0.2-0.1-0.4-0.1-0.6-0.2L335.3,227.9"/>
<path class="st7" d="M331.5,234.4l1.4,2.2c0.1,0.1,0.2,0.4,0.4,0.6c0.1,0.3,0.2,0.4,0.2,0.4v-3.3h0.6v4.2h-0.6l-1.5-2.5
	c-0.1-0.2-0.2-0.4-0.4-0.6c-0.1-0.2-0.2-0.4-0.2-0.4v3.5h-0.6v-4.2H331.5"/>
<path class="st9" d="M293.2,204c0-0.7,0.2-1.2,0.5-1.6c0.3-0.4,0.8-0.6,1.4-0.6c0.6,0,1.1,0.2,1.4,0.6c0.3,0.4,0.5,0.9,0.5,1.6
	c0,0.7-0.2,1.2-0.5,1.6c-0.3,0.4-0.8,0.6-1.4,0.6c-0.6,0-1.1-0.2-1.4-0.6C293.3,205.2,293.2,204.7,293.2,204 M295.1,205.7
	c0.4,0,0.8-0.1,1-0.4c0.2-0.3,0.4-0.7,0.4-1.3c0-0.6-0.1-1-0.4-1.3c-0.2-0.3-0.6-0.4-1-0.4s-0.8,0.1-1,0.4c-0.2,0.3-0.3,0.7-0.3,1.3
	c0,0.6,0.1,1,0.3,1.3C294.3,205.6,294.7,205.7,295.1,205.7"/>
<path class="st5" d="M283.1,203.4h2.5v0.5h-2v1.3h1.7v0.5h-1.7v2h-0.6V203.4"/>
<path class="st7" d="M284.9,174.8l1.4,2.2c0.1,0.1,0.2,0.4,0.4,0.6c0.1,0.3,0.2,0.4,0.2,0.4v-3.3h0.6v4.2h-0.6l-1.5-2.5
	c-0.1-0.2-0.2-0.4-0.4-0.6c-0.1-0.2-0.2-0.4-0.2-0.4v3.5h-0.6v-4.2H284.9"/>
<path class="st4" d="M643.6,201.4l-5.9,3"/>
<path class="st4" d="M647.4,201.7l2.8,1.8"/>
<path class="st2" d="M650.2,203.5l2.8,1.8"/>
<path class="st4" d="M634,204.2l-2.5-1.6"/>
<path class="st8" d="M631.5,202.5l-2.5-1.6"/>
<path class="st8" d="M624.6,200.6l-5.2,2.7"/>
<path class="st2" d="M656.2,205.5l3.1-1.6"/>
<path class="st4" d="M659.3,203.9l3.1-1.6"/>
<path class="st2" d="M658.1,206.9l2.6-1.3"/>
<path class="st4" d="M660.7,205.6l2.6-1.3"/>
<path class="st2" d="M656.2,203.1l2.6-1.3"/>
<path class="st4" d="M658.8,201.8l2.6-1.3"/>
<path class="st7" d="M644.6,198.3l1.4,2.2c0.1,0.1,0.2,0.4,0.4,0.6c0.1,0.3,0.2,0.4,0.2,0.4v-3.3h0.6v4.2h-0.6l-1.5-2.5
	c-0.1-0.2-0.2-0.4-0.4-0.6c-0.1-0.2-0.2-0.4-0.2-0.4v3.5h-0.6v-4.2H644.6"/>
<path class="st7" d="M643.9,193.7h0.6v1.8h2.2v-1.8h0.6v4.2h-0.6v-2h-2.2v2h-0.6V193.7"/>
<path class="st7" d="M635,203.3l1.4,2.2c0.1,0.1,0.2,0.4,0.4,0.6c0.1,0.3,0.2,0.4,0.2,0.4v-3.3h0.6v4.2h-0.6l-1.5-2.5
	c-0.1-0.2-0.2-0.4-0.4-0.6c-0.1-0.2-0.2-0.4-0.2-0.4v3.5h-0.6v-4.2H635"/>
<path class="st7" d="M634.2,207.9h0.6v1.8h2.2v-1.8h0.6v4.2H637v-2h-2.2v2h-0.6V207.9"/>
<path class="st9" d="M624.9,199.5c0-0.7,0.2-1.2,0.5-1.6s0.8-0.6,1.4-0.6c0.6,0,1.1,0.2,1.4,0.6c0.3,0.4,0.5,0.9,0.5,1.6
	c0,0.7-0.2,1.2-0.5,1.6c-0.3,0.4-0.8,0.6-1.4,0.6c-0.6,0-1.1-0.2-1.4-0.6C625,200.8,624.9,200.2,624.9,199.5 M626.8,201.2
	c0.4,0,0.8-0.1,1-0.4c0.2-0.3,0.4-0.7,0.4-1.3c0-0.6-0.1-1-0.4-1.3c-0.2-0.3-0.6-0.4-1-0.4s-0.8,0.1-1,0.4c-0.2,0.3-0.3,0.7-0.3,1.3
	c0,0.6,0.1,1,0.3,1.3C626.1,201.1,626.4,201.2,626.8,201.2"/>
<path class="st9" d="M611.6,202.3h0.6v1.8h2.2v-1.8h0.6v4.2h-0.6v-2h-2.2v2h-0.6V202.3"/>
<path class="st9" d="M615.2,204.4c0-0.7,0.2-1.2,0.5-1.6c0.3-0.4,0.8-0.6,1.4-0.6s1.1,0.2,1.4,0.6c0.3,0.4,0.5,0.9,0.5,1.6
	c0,0.7-0.2,1.2-0.5,1.6c-0.3,0.4-0.8,0.6-1.4,0.6c-0.6,0-1.1-0.2-1.4-0.6C615.4,205.7,615.2,205.1,615.2,204.4 M617.2,206.2
	c0.4,0,0.8-0.1,1-0.4c0.2-0.3,0.4-0.7,0.4-1.3c0-0.6-0.1-1-0.4-1.3c-0.2-0.3-0.6-0.4-1-0.4s-0.8,0.1-1,0.4c-0.2,0.3-0.3,0.7-0.3,1.3
	c0,0.6,0.1,1,0.3,1.3C616.4,206,616.8,206.2,617.2,206.2"/>
<path class="st6" d="M653.4,207.8c0,0,0.1,0,0.2,0.1c0.1,0.1,0.3,0.1,0.4,0.1c0.1,0,0.3,0,0.4,0c0.3,0,0.5-0.1,0.6-0.2
	c0.2-0.1,0.2-0.3,0.2-0.5c0-0.2,0-0.3-0.1-0.4c-0.1-0.1-0.2-0.2-0.3-0.2s-0.3-0.1-0.5-0.2c-0.3-0.1-0.5-0.1-0.6-0.2
	c-0.1-0.1-0.3-0.2-0.4-0.3c-0.1-0.2-0.2-0.4-0.2-0.6c0-0.4,0.1-0.6,0.4-0.9c0.2-0.2,0.6-0.3,1.1-0.3c0.3,0,0.7,0.1,1,0.2l-0.1,0.5
	c-0.3-0.1-0.6-0.2-0.9-0.2c-0.3,0-0.5,0.1-0.6,0.2c-0.2,0.1-0.2,0.3-0.2,0.5c0,0.2,0,0.3,0.1,0.4c0.1,0.1,0.2,0.2,0.3,0.2
	c0.1,0.1,0.3,0.1,0.5,0.2c0.3,0.1,0.5,0.2,0.6,0.2s0.3,0.2,0.4,0.4c0.1,0.2,0.2,0.4,0.2,0.7c0,0.4-0.1,0.7-0.4,0.9
	c-0.3,0.2-0.6,0.3-1,0.3c-0.3,0-0.5,0-0.7-0.1c-0.2-0.1-0.4-0.1-0.6-0.2L653.4,207.8"/>
<path class="st7" d="M663.3,199.3l1.4,2.2c0.1,0.1,0.2,0.4,0.4,0.6c0.1,0.3,0.2,0.4,0.2,0.4v-3.3h0.6v4.2h-0.6l-1.5-2.5
	c-0.1-0.2-0.2-0.4-0.4-0.6c-0.1-0.2-0.2-0.4-0.2-0.4v3.5h-0.6v-4.2H663.3"/>
<path class="st4" d="M49.6,362.9h-4.5"/>
<path class="st3" d="M45.2,362.9h-4.5"/>
<path class="st4" d="M49.6,360.8h-3.8"/>
<path class="st3" d="M45.8,360.8H42"/>
<path class="st4" d="M49.6,365.1h-3.8"/>
<path class="st3" d="M45.8,365.1H42"/>
<path class="st3" d="M40.7,362.9h-4.6"/>
<path class="st1" d="M36.1,362.9h-4.6"/>
<path class="st7" d="M50.6,360.8L52,363c0.1,0.1,0.2,0.4,0.4,0.6s0.2,0.4,0.2,0.4v-3.3h0.6v4.2h-0.6l-1.5-2.5
	c-0.1-0.2-0.2-0.4-0.4-0.6c-0.1-0.2-0.2-0.4-0.2-0.4v3.5h-0.6v-4.2H50.6"/>
<path class="st5" d="M28.6,360.8h2.5v0.5h-2v1.3h1.7v0.5h-1.7v2h-0.6V360.8"/>
<path class="st1" d="M376.5,402l4.5-0.9"/>
<path class="st3" d="M381.1,401.2l4.5-0.9"/>
<path class="st3" d="M385.6,400.3l3.6-10.2"/>
<path class="st3" d="M384.1,398l2.5-7.1"/>
<path class="st3" d="M389.2,390.1l10.6-2"/>
<path class="st3" d="M399.8,388.1l3.6-10.2"/>
<path class="st3" d="M398.3,385.8l2.5-7.1"/>
<path class="st3" d="M403.3,377.9l10.6-2"/>
<path class="st3" d="M415,376.2l2.7-7.7"/>
<path class="st3" d="M412.9,375.5l2.7-7.7"/>
<path class="st3" d="M419.4,363.6l0.9-2.7"/>
<path class="st2" d="M420.3,360.9l0.9-2.7"/>
<path class="st3" d="M417.3,362.9l0.9-2.7"/>
<path class="st2" d="M418.3,360.2l0.9-2.7"/>
<path class="st2" d="M422.7,356.7l2.7,2.1"/>
<path class="st1" d="M425.5,358.7l2.7,2.1"/>
<path class="st2" d="M422.7,354.3l3.6-2.5"/>
<path class="st3" d="M426.3,351.8l3.6-2.5"/>
<path class="st2" d="M419.4,355.4l-4.6-0.1"/>
<path class="st3" d="M414.9,355.3l-4.6-0.1"/>
<path class="st3" d="M429.9,349.3l3.2,2.4"/>
<path class="st8" d="M433.1,351.7l3.2,2.4"/>
<path class="st3" d="M429.9,349.3l1.4-3.9"/>
<path class="st4" d="M431.3,345.3l1.4-3.9"/>
<path class="st8" d="M440.8,354.9l3-1.2"/>
<path class="st4" d="M443.7,353.6l3-1.2"/>
<path class="st4" d="M432.8,336.7l-1.7-5.6"/>
<path class="st4" d="M430.5,336.4l-1.2-3.9"/>
<path class="st4" d="M428.5,327.3l-2.6-2"/>
<path class="st2" d="M425.9,325.3l-2.6-2"/>
<path class="st2" d="M420.1,322.1l-3.7-0.1"/>
<path class="st4" d="M416.5,322l-3.7-0.1"/>
<path class="st4" d="M409.1,323.2l-2.7,1.9"/>
<path class="st2" d="M406.4,325.1l-2.7,1.9"/>
<path class="st2" d="M401.2,330.6l-0.9,2.7"/>
<path class="st8" d="M400.3,333.3l-0.9,2.7"/>
<path class="st8" d="M399.3,340.8l0.8,2.8"/>
<path class="st2" d="M400.1,343.6l0.8,2.8"/>
<path class="st2" d="M403.3,349.9l3.5,2.6"/>
<path class="st3" d="M406.8,352.5l3.5,2.6"/>
<path class="st3" d="M410.3,355.2l-3.6,10.2"/>
<path class="st3" d="M406.7,365.4l-10.6,2"/>
<path class="st3" d="M404.7,363.6l-7.4,1.4"/>
<path class="st3" d="M396.1,367.4l-3.6,10.2"/>
<path class="st3" d="M392.5,377.6l-10.6,2"/>
<path class="st3" d="M390.5,375.8l-7.4,1.4"/>
<path class="st3" d="M381.9,379.6l-3.6,10.2"/>
<path class="st3" d="M378.2,388.8l-8.7,1.7"/>
<path class="st3" d="M378.6,390.9l-8.7,1.7"/>
<path class="st3" d="M365.6,391.2l-3.4,0.7"/>
<path class="st4" d="M362.2,391.8l-3.4,0.7"/>
<path class="st3" d="M366,393.3l-3.4,0.7"/>
<path class="st4" d="M362.6,394l-3.4,0.7"/>
<path class="st4" d="M355.2,391.7l-3.4-3.9"/>
<path class="st4" d="M348.2,386.1l-6.9,1.3"/>
<path class="st4" d="M347.5,388.4l-4.8,0.9"/>
<path class="st4" d="M337.6,385.6l-3.4-3.9"/>
<path class="st4" d="M330.5,379.9l-4.4,0.8"/>
<path class="st3" d="M326.1,380.7l-4.4,0.8"/>
<path class="st4" d="M329.6,382.3l-3.1,0.6"/>
<path class="st3" d="M326.5,382.9l-3.1,0.6"/>
<path class="st3" d="M321.8,381.6l-7.1-8.2"/>
<path class="st3" d="M314.7,373.4l-7.1-8.2"/>
<path class="st3" d="M315.3,370.8l-4.9-5.7"/>
<path class="st3" d="M312,373.6l-4.9-5.7"/>
<path class="st3" d="M307.6,365.2l-2.7-3.1"/>
<path class="st2" d="M304.9,362.1l-2.7-3.1"/>
<path class="st2" d="M299,357.3l-4.5,0.9"/>
<path class="st3" d="M294.5,358.2L290,359"/>
<path class="st3" d="M290,359l-7.1-8.2"/>
<path class="st3" d="M282.9,350.9l-10.6,2"/>
<path class="st3" d="M281.7,353.3l-7.4,1.4"/>
<path class="st3" d="M272.3,352.9l-7.1-8.2"/>
<path class="st3" d="M265.2,344.7l-10.6,2"/>
<path class="st3" d="M264,347.1l-7.4,1.4"/>
<path class="st3" d="M254.6,346.7l-7.1-8.2"/>
<path class="st3" d="M247.3,337.5l-8.7,1.7"/>
<path class="st3" d="M247.7,339.6l-8.7,1.7"/>
<path class="st3" d="M234.8,339.9l-8.7,1.7"/>
<path class="st3" d="M235.2,342l-8.7,1.7"/>
<path class="st3" d="M226.3,342.6l-3.6,10.2"/>
<path class="st3" d="M222.8,352.8l-10.6,2"/>
<path class="st3" d="M220.8,351l-7.4,1.4"/>
<path class="st3" d="M212.1,354.8l-3.6,10.2"/>
<path class="st3" d="M208.6,365l-10.6,2"/>
<path class="st3" d="M206.6,363.2l-7.4,1.4"/>
<path class="st3" d="M198,367l-2.7-3.1"/>
<path class="st2" d="M195.2,363.9l-2.7-3.1"/>
<path class="st3" d="M198,367l-3.6,10.2"/>
<path class="st3" d="M194.4,377.2l-4.5,0.9"/>
<path class="st1" d="M189.9,378.1l-4.5,0.9"/>
<path class="st5" d="M373.7,400.2h2.5v0.5h-2v1.3h1.7v0.5h-1.7v2h-0.6V400.2"/>
<path d="M415.9,365.6c0-0.7,0.2-1.2,0.5-1.6c0.3-0.4,0.8-0.6,1.4-0.6c0.6,0,1,0.2,1.3,0.6l-0.4,0.3c-0.2-0.3-0.5-0.4-0.9-0.4
	c-0.4,0-0.8,0.1-1,0.4c-0.2,0.3-0.3,0.7-0.3,1.2c0,0.6,0.1,1,0.3,1.3c0.2,0.3,0.6,0.4,1,0.4c0.3,0,0.6-0.1,1-0.3l0.2,0.5
	c-0.1,0.1-0.3,0.2-0.6,0.2c-0.2,0.1-0.5,0.1-0.7,0.1c-0.6,0-1.1-0.2-1.4-0.6C416,366.9,415.9,366.3,415.9,365.6"/>
<path class="st6" d="M419.9,356.9c0,0,0.1,0,0.2,0.1c0.1,0.1,0.3,0.1,0.4,0.1c0.1,0,0.3,0,0.4,0c0.3,0,0.5-0.1,0.6-0.2
	c0.2-0.1,0.2-0.3,0.2-0.5c0-0.2,0-0.3-0.1-0.4c-0.1-0.1-0.2-0.2-0.3-0.2c-0.1-0.1-0.3-0.1-0.5-0.2c-0.3-0.1-0.5-0.1-0.6-0.2
	c-0.1-0.1-0.3-0.2-0.4-0.3c-0.1-0.2-0.2-0.4-0.2-0.6c0-0.4,0.1-0.6,0.4-0.9c0.2-0.2,0.6-0.3,1.1-0.3c0.3,0,0.7,0.1,1,0.2l-0.1,0.5
	c-0.3-0.1-0.6-0.2-0.9-0.2c-0.3,0-0.5,0.1-0.6,0.2c-0.2,0.1-0.2,0.3-0.2,0.5c0,0.2,0,0.3,0.1,0.4c0.1,0.1,0.2,0.2,0.3,0.2
	c0.1,0.1,0.3,0.1,0.5,0.2c0.3,0.1,0.5,0.2,0.6,0.2c0.2,0.1,0.3,0.2,0.4,0.4c0.1,0.2,0.2,0.4,0.2,0.7c0,0.4-0.1,0.7-0.4,0.9
	c-0.3,0.2-0.6,0.3-1,0.3c-0.3,0-0.5,0-0.7-0.1c-0.2-0.1-0.4-0.1-0.6-0.2L419.9,356.9"/>
<path class="st6" d="M419.4,348.5h0.6v1.8h2.2v-1.8h0.6v4.2h-0.6v-2H420v2h-0.6V348.5"/>
<path class="st5" d="M428.4,359.8h2.5v0.5h-2v1.3h1.7v0.5H429v2h-0.6V359.8"/>
<path class="st9" d="M436.6,355.8c0-0.7,0.2-1.2,0.5-1.6c0.3-0.4,0.8-0.6,1.4-0.6s1.1,0.2,1.4,0.6c0.3,0.4,0.5,0.9,0.5,1.6
	c0,0.7-0.2,1.2-0.5,1.6c-0.3,0.4-0.8,0.6-1.4,0.6c-0.6,0-1.1-0.2-1.4-0.6C436.8,357,436.6,356.5,436.6,355.8 M438.6,357.5
	c0.4,0,0.8-0.1,1-0.4c0.2-0.3,0.4-0.7,0.4-1.3c0-0.6-0.1-1-0.4-1.3c-0.2-0.3-0.6-0.4-1-0.4s-0.8,0.1-1,0.4c-0.2,0.3-0.3,0.7-0.3,1.3
	c0,0.6,0.1,1,0.3,1.3C437.8,357.4,438.1,357.5,438.6,357.5"/>
<path class="st7" d="M447.6,349.5l1.4,2.2c0.1,0.1,0.2,0.4,0.4,0.6c0.1,0.3,0.2,0.4,0.2,0.4v-3.3h0.6v4.2h-0.6l-1.5-2.5
	c-0.1-0.2-0.2-0.4-0.4-0.6c-0.1-0.2-0.2-0.4-0.2-0.4v3.5h-0.6v-4.2H447.6"/>
<path class="st7" d="M450.6,349.5h0.6v1.8h2.2v-1.8h0.6v4.2h-0.6v-2h-2.2v2h-0.6V349.5"/>
<path class="st7" d="M454.2,353.6c0.1-0.2,0.2-0.3,0.3-0.4c0.2-0.1,0.4-0.1,0.6-0.1c0.3,0,0.5,0.1,0.7,0.2c0.2,0.2,0.2,0.4,0.2,0.6
	c0,0.3-0.1,0.5-0.3,0.8c-0.2,0.3-0.5,0.5-0.9,0.8h1.3v0.3h-1.9v-0.3c0.3-0.2,0.6-0.5,0.8-0.6c0.2-0.2,0.4-0.4,0.5-0.5
	c0.1-0.2,0.2-0.3,0.2-0.5c0-0.2,0-0.3-0.1-0.4c-0.1-0.1-0.2-0.1-0.4-0.1c-0.2,0-0.3,0-0.4,0.1c-0.1,0.1-0.2,0.2-0.3,0.3L454.2,353.6
	"/>
<path class="st7" d="M432.6,336.9l1.4,2.2c0.1,0.1,0.2,0.4,0.4,0.6c0.1,0.3,0.2,0.4,0.2,0.4v-3.3h0.6v4.2h-0.6l-1.5-2.5
	c-0.1-0.2-0.2-0.4-0.4-0.6c-0.1-0.2-0.2-0.4-0.2-0.4v3.5h-0.6v-4.2H432.6"/>
<path class="st7" d="M429.4,326.6l1.4,2.2c0.1,0.1,0.2,0.4,0.4,0.6s0.2,0.4,0.2,0.4v-3.3h0.6v4.2h-0.6l-1.5-2.5
	c-0.1-0.2-0.2-0.4-0.4-0.6c-0.1-0.2-0.2-0.4-0.2-0.4v3.5h-0.6v-4.2H429.4"/>
<path class="st6" d="M420.6,323.6c0,0,0.1,0,0.2,0.1s0.3,0.1,0.4,0.1c0.1,0,0.3,0,0.4,0c0.3,0,0.5-0.1,0.6-0.2
	c0.2-0.1,0.2-0.3,0.2-0.5c0-0.2,0-0.3-0.1-0.4c-0.1-0.1-0.2-0.2-0.3-0.2c-0.1-0.1-0.3-0.1-0.5-0.2c-0.3-0.1-0.5-0.2-0.6-0.2
	c-0.1-0.1-0.3-0.2-0.4-0.3c-0.1-0.2-0.2-0.4-0.2-0.6c0-0.4,0.1-0.6,0.4-0.9c0.2-0.2,0.6-0.3,1.1-0.3c0.3,0,0.7,0.1,1,0.2l-0.1,0.5
	c-0.3-0.1-0.6-0.2-0.9-0.2c-0.3,0-0.5,0.1-0.6,0.2c-0.2,0.1-0.2,0.3-0.2,0.5c0,0.2,0,0.3,0.1,0.4c0.1,0.1,0.2,0.2,0.3,0.2
	c0.1,0.1,0.3,0.1,0.5,0.2c0.3,0.1,0.5,0.2,0.6,0.2c0.2,0.1,0.3,0.2,0.4,0.4c0.1,0.2,0.2,0.4,0.2,0.7c0,0.4-0.1,0.7-0.4,0.9
	c-0.3,0.2-0.6,0.3-1,0.3c-0.3,0-0.5,0-0.7-0.1c-0.2-0.1-0.4-0.1-0.6-0.2L420.6,323.6"/>
<path class="st7" d="M410,319.8l1.4,2.2c0.1,0.1,0.2,0.4,0.4,0.6c0.1,0.3,0.2,0.4,0.2,0.4v-3.3h0.6v4.2H412l-1.5-2.5
	c-0.1-0.2-0.2-0.4-0.4-0.6c-0.1-0.2-0.2-0.4-0.2-0.4v3.5h-0.6v-4.2H410"/>
<path class="st7" d="M409.3,315.1h0.6v1.8h2.2v-1.8h0.6v4.2h-0.6v-2h-2.2v2h-0.6V315.1"/>
<path class="st6" d="M400.9,329.6c0,0,0.1,0,0.2,0.1c0.1,0.1,0.3,0.1,0.4,0.1c0.1,0,0.3,0,0.4,0c0.3,0,0.5-0.1,0.6-0.2
	c0.2-0.1,0.2-0.3,0.2-0.5c0-0.2,0-0.3-0.1-0.4c-0.1-0.1-0.2-0.2-0.3-0.2s-0.3-0.1-0.5-0.2c-0.3-0.1-0.5-0.1-0.6-0.2
	c-0.1-0.1-0.3-0.2-0.4-0.3c-0.1-0.2-0.2-0.4-0.2-0.6c0-0.4,0.1-0.6,0.4-0.9c0.2-0.2,0.6-0.3,1.1-0.3c0.3,0,0.7,0.1,1,0.2l-0.1,0.5
	c-0.3-0.1-0.6-0.2-0.9-0.2c-0.3,0-0.5,0.1-0.6,0.2c-0.2,0.1-0.2,0.3-0.2,0.5c0,0.2,0,0.3,0.1,0.4c0.1,0.1,0.2,0.2,0.3,0.2
	c0.1,0.1,0.3,0.1,0.5,0.2c0.3,0.1,0.5,0.2,0.6,0.2c0.2,0.1,0.3,0.2,0.4,0.4c0.1,0.2,0.2,0.4,0.2,0.7c0,0.4-0.1,0.7-0.4,0.9
	c-0.3,0.2-0.6,0.3-1,0.3c-0.3,0-0.5,0-0.7-0.1c-0.2-0.1-0.4-0.1-0.6-0.2L400.9,329.6"/>
<path class="st9" d="M396.6,338.3c0-0.7,0.2-1.2,0.5-1.6c0.3-0.4,0.8-0.6,1.4-0.6s1.1,0.2,1.4,0.6c0.3,0.4,0.5,0.9,0.5,1.6
	c0,0.7-0.2,1.2-0.5,1.6c-0.3,0.4-0.8,0.6-1.4,0.6c-0.6,0-1.1-0.2-1.4-0.6C396.8,339.5,396.6,339,396.6,338.3 M398.5,340
	c0.4,0,0.8-0.1,1-0.4c0.2-0.3,0.4-0.7,0.4-1.3c0-0.6-0.1-1-0.4-1.3c-0.2-0.3-0.6-0.4-1-0.4s-0.8,0.1-1,0.4c-0.2,0.3-0.3,0.7-0.3,1.3
	c0,0.6,0.1,1,0.3,1.3C397.8,339.9,398.1,340,398.5,340"/>
<path class="st6" d="M400.5,350.1c0,0,0.1,0,0.2,0.1c0.1,0.1,0.3,0.1,0.4,0.1c0.1,0,0.3,0,0.4,0c0.3,0,0.5-0.1,0.6-0.2
	c0.2-0.1,0.2-0.3,0.2-0.5c0-0.2,0-0.3-0.1-0.4c-0.1-0.1-0.2-0.2-0.3-0.2c-0.1-0.1-0.3-0.1-0.5-0.2c-0.3-0.1-0.5-0.1-0.6-0.2
	c-0.1-0.1-0.3-0.2-0.4-0.3c-0.1-0.2-0.2-0.4-0.2-0.6c0-0.4,0.1-0.6,0.4-0.9c0.2-0.2,0.6-0.3,1.1-0.3c0.3,0,0.7,0.1,1,0.2l-0.1,0.5
	c-0.3-0.1-0.6-0.2-0.9-0.2c-0.3,0-0.5,0.1-0.6,0.2c-0.2,0.1-0.2,0.3-0.2,0.5c0,0.2,0,0.3,0.1,0.4c0.1,0.1,0.2,0.2,0.3,0.2
	c0.1,0.1,0.3,0.1,0.5,0.2c0.3,0.1,0.5,0.2,0.6,0.2c0.2,0.1,0.3,0.2,0.4,0.4c0.1,0.2,0.2,0.4,0.2,0.7c0,0.4-0.1,0.7-0.4,0.9
	c-0.3,0.2-0.6,0.3-1,0.3c-0.3,0-0.5,0-0.7-0.1c-0.2-0.1-0.4-0.1-0.6-0.2L400.5,350.1"/>
<path d="M366.1,391.9c0-0.7,0.2-1.2,0.5-1.6c0.3-0.4,0.8-0.6,1.4-0.6c0.6,0,1,0.2,1.3,0.6l-0.4,0.3c-0.2-0.3-0.5-0.4-0.9-0.4
	c-0.4,0-0.8,0.1-1,0.4c-0.2,0.3-0.3,0.7-0.3,1.2c0,0.6,0.1,1,0.3,1.3c0.2,0.3,0.6,0.4,1,0.4c0.3,0,0.6-0.1,1-0.3l0.2,0.5
	c-0.1,0.1-0.3,0.2-0.6,0.2c-0.2,0.1-0.5,0.1-0.7,0.1c-0.6,0-1.1-0.2-1.4-0.6C366.3,393.1,366.1,392.6,366.1,391.9"/>
<path class="st7" d="M356.2,391.8l1.4,2.2c0.1,0.1,0.2,0.4,0.4,0.6c0.1,0.3,0.2,0.4,0.2,0.4v-3.3h0.6v4.2h-0.6l-1.5-2.5
	c-0.1-0.2-0.2-0.4-0.4-0.6c-0.1-0.2-0.2-0.4-0.2-0.4v3.5h-0.6v-4.2H356.2"/>
<path class="st7" d="M349.1,383.6l1.4,2.2c0.1,0.1,0.2,0.4,0.4,0.6c0.1,0.3,0.2,0.4,0.2,0.4v-3.3h0.6v4.2h-0.6l-1.5-2.5
	c-0.1-0.2-0.2-0.4-0.4-0.6c-0.1-0.2-0.2-0.4-0.2-0.4v3.5h-0.6v-4.2H349.1"/>
<path class="st7" d="M338.5,385.6l1.4,2.2c0.1,0.1,0.2,0.4,0.4,0.6c0.1,0.3,0.2,0.4,0.2,0.4v-3.3h0.6v4.2h-0.6l-1.5-2.5
	c-0.1-0.2-0.2-0.4-0.4-0.6c-0.1-0.2-0.2-0.4-0.2-0.4v3.5h-0.6v-4.2H338.5"/>
<path class="st7" d="M331.4,377.4l1.4,2.2c0.1,0.1,0.2,0.4,0.4,0.6s0.2,0.4,0.2,0.4v-3.3h0.6v4.2h-0.6l-1.5-2.5
	c-0.1-0.2-0.2-0.4-0.4-0.6c-0.1-0.2-0.2-0.4-0.2-0.4v3.5h-0.6v-4.2H331.4"/>
<path class="st6" d="M299.4,358.5c0,0,0.1,0,0.2,0.1c0.1,0.1,0.3,0.1,0.4,0.1c0.1,0,0.3,0,0.4,0c0.3,0,0.5-0.1,0.6-0.2
	c0.2-0.1,0.2-0.3,0.2-0.5c0-0.2,0-0.3-0.1-0.4c-0.1-0.1-0.2-0.2-0.3-0.2c-0.1-0.1-0.3-0.1-0.5-0.2c-0.3-0.1-0.5-0.1-0.6-0.2
	c-0.1-0.1-0.3-0.2-0.4-0.3c-0.1-0.2-0.2-0.4-0.2-0.6c0-0.4,0.1-0.6,0.4-0.9c0.2-0.2,0.6-0.3,1.1-0.3c0.3,0,0.7,0.1,1,0.2l-0.1,0.5
	c-0.3-0.1-0.6-0.2-0.9-0.2c-0.3,0-0.5,0.1-0.6,0.2c-0.2,0.1-0.2,0.3-0.2,0.5c0,0.2,0,0.3,0.1,0.4c0.1,0.1,0.2,0.2,0.3,0.2
	c0.1,0.1,0.3,0.1,0.5,0.2c0.3,0.1,0.5,0.2,0.6,0.2c0.2,0.1,0.3,0.2,0.4,0.4c0.1,0.2,0.2,0.4,0.2,0.7c0,0.4-0.1,0.7-0.4,0.9
	c-0.3,0.2-0.6,0.3-1,0.3c-0.3,0-0.5,0-0.7-0.1c-0.2-0.1-0.4-0.1-0.6-0.2L299.4,358.5"/>
<path d="M235.3,340.6c0-0.7,0.2-1.2,0.5-1.6c0.3-0.4,0.8-0.6,1.4-0.6c0.6,0,1,0.2,1.3,0.6l-0.4,0.3c-0.2-0.3-0.5-0.5-0.9-0.5
	c-0.4,0-0.8,0.1-1,0.4c-0.2,0.3-0.3,0.7-0.3,1.2c0,0.6,0.1,1,0.3,1.3c0.2,0.3,0.6,0.4,1,0.4c0.3,0,0.6-0.1,1-0.3l0.2,0.5
	c-0.1,0.1-0.3,0.2-0.6,0.2c-0.2,0.1-0.5,0.1-0.7,0.1c-0.6,0-1.1-0.2-1.4-0.6C235.5,341.8,235.3,341.3,235.3,340.6"/>
<path class="st6" d="M185.9,356.7h0.6v1.8h2.2v-1.8h0.6v4.2h-0.6v-2h-2.2v2h-0.6V356.7"/>
<path class="st6" d="M189.7,360.3c0,0,0.1,0,0.2,0.1s0.3,0.1,0.4,0.1c0.1,0,0.3,0,0.4,0c0.3,0,0.5-0.1,0.6-0.2
	c0.2-0.1,0.2-0.3,0.2-0.5c0-0.2,0-0.3-0.1-0.4c-0.1-0.1-0.2-0.2-0.3-0.2c-0.1-0.1-0.3-0.1-0.5-0.2c-0.3-0.1-0.5-0.1-0.6-0.2
	c-0.1-0.1-0.3-0.2-0.4-0.3c-0.1-0.2-0.2-0.4-0.2-0.6c0-0.4,0.1-0.6,0.4-0.9c0.2-0.2,0.6-0.3,1.1-0.3c0.3,0,0.7,0.1,1,0.2l-0.1,0.5
	c-0.3-0.1-0.6-0.2-0.9-0.2c-0.3,0-0.5,0.1-0.6,0.2c-0.2,0.1-0.2,0.3-0.2,0.5c0,0.2,0,0.3,0.1,0.4c0.1,0.1,0.2,0.2,0.3,0.2
	c0.1,0.1,0.3,0.1,0.5,0.2c0.3,0.1,0.5,0.2,0.6,0.2c0.2,0.1,0.3,0.2,0.4,0.4c0.1,0.2,0.2,0.4,0.2,0.7c0,0.4-0.1,0.7-0.4,0.9
	c-0.3,0.2-0.6,0.3-1,0.3c-0.3,0-0.5,0-0.7-0.1c-0.2-0.1-0.4-0.1-0.6-0.2L189.7,360.3"/>
<path class="st5" d="M182.5,377.1h2.5v0.5h-2v1.3h1.7v0.5h-1.7v2h-0.6V377.1"/>
<path class="st8" d="M630.4,381.6l2.1-3.4"/>
<path class="st3" d="M632.5,378.2l2.1-3.4"/>
<path class="st8" d="M628.6,380.4l2.1-3.4"/>
<path class="st3" d="M630.7,377.1l2.1-3.4"/>
<path class="st3" d="M633.7,374.2l4.3,0.1"/>
<path class="st8" d="M638,374.4l4.3,0.1"/>
<path class="st3" d="M633.7,374.2l-1.9-3.5"/>
<path class="st2" d="M631.8,370.7l-1.9-3.5"/>
<path class="st8" d="M646,372.1l2.1-3.4"/>
<path class="st3" d="M648.1,368.8l2.1-3.4"/>
<path class="st3" d="M650.2,365.4l4.3,0.1"/>
<path class="st8" d="M654.5,365.5l4.3,0.1"/>
<path class="st8" d="M662.5,363.3l1.3-2.2"/>
<path class="st2" d="M663.8,361.1l1.3-2.2"/>
<path class="st2" d="M668.3,356.5l4.6,0.1"/>
<path class="st3" d="M672.9,356.7l4.6,0.1"/>
<path class="st2" d="M669.6,358.7l3.2,0.1"/>
<path class="st3" d="M672.8,358.8l3.2,0.1"/>
<path class="st2" d="M669.8,354.4l3.2,0.1"/>
<path class="st3" d="M673,354.5l3.2,0.1"/>
<path class="st3" d="M677.5,356.8l4.5,0.1"/>
<path class="st4" d="M682,357l4.5,0.1"/>
<path class="st2" d="M627,364.7l-3.7-0.1"/>
<path class="st4" d="M623.3,364.6l-3.7-0.1"/>
<path class="st4" d="M616.5,362l-1.9-3.6"/>
<path class="st3" d="M614.6,358.4l-1.9-3.6"/>
<path class="st4" d="M617.8,359.9l-1.3-2.5"/>
<path class="st3" d="M616.5,357.4l-1.3-2.5"/>
<path class="st3" d="M612.7,354.9l-4.5-0.1"/>
<path class="st4" d="M608.2,354.7l-4.5-0.1"/>
<path class="st3" d="M612.7,354.9l2.1-3.4"/>
<path class="st1" d="M614.8,351.5l2.1-3.4"/>
<path class="st9" d="M626.1,383.4c0-0.7,0.2-1.2,0.5-1.6c0.3-0.4,0.8-0.6,1.4-0.6c0.6,0,1.1,0.2,1.4,0.6c0.3,0.4,0.5,0.9,0.5,1.6
	c0,0.7-0.2,1.2-0.5,1.6c-0.3,0.4-0.8,0.6-1.4,0.6c-0.6,0-1.1-0.2-1.4-0.6C626.2,384.7,626.1,384.1,626.1,383.4 M628,385.2
	c0.4,0,0.8-0.1,1-0.4c0.2-0.3,0.4-0.7,0.4-1.3c0-0.6-0.1-1-0.4-1.3c-0.2-0.3-0.6-0.4-1-0.4c-0.4,0-0.8,0.1-1,0.4
	c-0.2,0.3-0.3,0.7-0.3,1.3c0,0.6,0.1,1,0.3,1.3C627.3,385,627.6,385.2,628,385.2"/>
<path class="st9" d="M642.6,374.6c0-0.7,0.2-1.2,0.5-1.6c0.3-0.4,0.8-0.6,1.4-0.6s1.1,0.2,1.4,0.6c0.3,0.4,0.5,0.9,0.5,1.6
	c0,0.7-0.2,1.2-0.5,1.6c-0.3,0.4-0.8,0.6-1.4,0.6c-0.6,0-1.1-0.2-1.4-0.6C642.7,375.8,642.6,375.3,642.6,374.6 M644.5,376.3
	c0.4,0,0.8-0.1,1-0.4c0.2-0.3,0.4-0.7,0.4-1.3c0-0.6-0.1-1-0.4-1.3c-0.2-0.3-0.6-0.4-1-0.4s-0.8,0.1-1,0.4c-0.2,0.3-0.3,0.7-0.3,1.3
	c0,0.6,0.1,1,0.3,1.3C643.7,376.1,644.1,376.3,644.5,376.3"/>
<path class="st9" d="M659.1,365.7c0-0.7,0.2-1.2,0.5-1.6c0.3-0.4,0.8-0.6,1.4-0.6c0.6,0,1.1,0.2,1.4,0.6c0.3,0.4,0.5,0.9,0.5,1.6
	c0,0.7-0.2,1.2-0.5,1.6c-0.3,0.4-0.8,0.6-1.4,0.6c-0.6,0-1.1-0.2-1.4-0.6C659.2,366.9,659.1,366.4,659.1,365.7 M661,367.4
	c0.4,0,0.8-0.1,1-0.4c0.2-0.3,0.4-0.7,0.4-1.3c0-0.6-0.1-1-0.4-1.3c-0.2-0.3-0.6-0.4-1-0.4s-0.8,0.1-1,0.4c-0.2,0.3-0.3,0.7-0.3,1.3
	c0,0.6,0.1,1,0.3,1.3C660.2,367.3,660.6,367.4,661,367.4"/>
<path class="st6" d="M665.5,358c0,0,0.1,0,0.2,0.1c0.1,0.1,0.3,0.1,0.4,0.1c0.1,0,0.3,0,0.4,0c0.3,0,0.5-0.1,0.6-0.2
	c0.2-0.1,0.2-0.3,0.2-0.5c0-0.2,0-0.3-0.1-0.4c-0.1-0.1-0.2-0.2-0.3-0.2s-0.3-0.1-0.5-0.2c-0.3-0.1-0.5-0.1-0.6-0.2
	c-0.1-0.1-0.3-0.2-0.4-0.3c-0.1-0.2-0.2-0.4-0.2-0.6c0-0.4,0.1-0.6,0.4-0.9c0.2-0.2,0.6-0.3,1.1-0.3c0.3,0,0.7,0.1,1,0.2l-0.1,0.5
	c-0.3-0.1-0.6-0.2-0.9-0.2c-0.3,0-0.5,0.1-0.6,0.2c-0.2,0.1-0.2,0.3-0.2,0.5c0,0.2,0,0.3,0.1,0.4c0.1,0.1,0.2,0.2,0.3,0.2
	c0.1,0.1,0.3,0.1,0.5,0.2c0.3,0.1,0.5,0.2,0.6,0.2s0.3,0.2,0.4,0.4c0.1,0.2,0.2,0.4,0.2,0.7c0,0.4-0.1,0.7-0.4,0.9
	c-0.3,0.2-0.6,0.3-1,0.3c-0.3,0-0.5,0-0.7-0.1c-0.2-0.1-0.4-0.1-0.6-0.2L665.5,358"/>
<path class="st7" d="M687.4,355l1.4,2.2c0.1,0.1,0.2,0.4,0.4,0.6c0.1,0.3,0.2,0.4,0.2,0.4V355h0.6v4.2h-0.6l-1.5-2.5
	c-0.1-0.2-0.2-0.4-0.4-0.6c-0.1-0.2-0.2-0.4-0.2-0.4v3.5h-0.6V355H687.4"/>
<path class="st7" d="M690.4,355h0.6v1.8h2.2V355h0.6v4.2h-0.6v-2H691v2h-0.6V355"/>
<path class="st7" d="M693.9,359.1c0.1-0.2,0.2-0.3,0.3-0.4c0.2-0.1,0.4-0.2,0.6-0.2c0.3,0,0.5,0.1,0.7,0.2c0.2,0.2,0.2,0.4,0.2,0.6
	c0,0.3-0.1,0.5-0.3,0.8c-0.2,0.3-0.5,0.5-0.9,0.8h1.3v0.3h-1.9v-0.3c0.3-0.2,0.6-0.5,0.8-0.6c0.2-0.2,0.4-0.4,0.5-0.5
	c0.1-0.2,0.2-0.3,0.2-0.5c0-0.2,0-0.3-0.1-0.4c-0.1-0.1-0.2-0.1-0.4-0.1c-0.2,0-0.3,0-0.4,0.1c-0.1,0.1-0.2,0.2-0.3,0.3L693.9,359.1
	"/>
<path class="st6" d="M627.4,366.2c0,0,0.1,0,0.2,0.1c0.1,0.1,0.3,0.1,0.4,0.1c0.1,0,0.3,0,0.4,0c0.3,0,0.5-0.1,0.6-0.2
	c0.2-0.1,0.2-0.3,0.2-0.5c0-0.2,0-0.3-0.1-0.4c-0.1-0.1-0.2-0.2-0.3-0.2s-0.3-0.1-0.5-0.2c-0.3-0.1-0.5-0.2-0.6-0.2
	c-0.1-0.1-0.3-0.2-0.4-0.3c-0.1-0.2-0.2-0.4-0.2-0.6c0-0.4,0.1-0.6,0.4-0.9c0.2-0.2,0.6-0.3,1.1-0.3c0.3,0,0.7,0.1,1,0.2l-0.1,0.5
	c-0.3-0.1-0.6-0.2-0.9-0.2c-0.3,0-0.5,0.1-0.6,0.2c-0.2,0.1-0.2,0.3-0.2,0.5c0,0.2,0,0.3,0.1,0.4c0.1,0.1,0.2,0.2,0.3,0.2
	c0.1,0.1,0.3,0.1,0.5,0.2c0.3,0.1,0.5,0.2,0.6,0.2c0.2,0.1,0.3,0.2,0.4,0.4c0.1,0.2,0.2,0.4,0.2,0.7c0,0.4-0.1,0.7-0.4,0.9
	c-0.3,0.2-0.6,0.3-1,0.3c-0.3,0-0.5,0-0.7-0.1c-0.2-0.1-0.4-0.1-0.6-0.2L627.4,366.2"/>
<path class="st7" d="M616.8,362.3l1.4,2.2c0.1,0.1,0.2,0.4,0.4,0.6c0.1,0.3,0.2,0.4,0.2,0.4v-3.3h0.6v4.2h-0.6l-1.5-2.5
	c-0.1-0.2-0.2-0.4-0.4-0.6c-0.1-0.2-0.2-0.4-0.2-0.4v3.5h-0.6v-4.2H616.8"/>
<path class="st7" d="M594.3,352.4h0.6v1.8h2.2v-1.8h0.6v4.2h-0.6v-2h-2.2v2h-0.6V352.4"/>
<path class="st7" d="M597.9,356.5c0.1-0.2,0.2-0.3,0.3-0.4c0.2-0.1,0.4-0.2,0.6-0.1c0.3,0,0.5,0.1,0.7,0.2c0.2,0.2,0.2,0.4,0.2,0.6
	c0,0.3-0.1,0.5-0.3,0.8c-0.2,0.3-0.5,0.5-0.9,0.8h1.3v0.3h-1.9v-0.3c0.3-0.2,0.6-0.5,0.8-0.6c0.2-0.2,0.4-0.4,0.5-0.5
	c0.1-0.2,0.2-0.3,0.2-0.5c0-0.2,0-0.3-0.1-0.4c-0.1-0.1-0.2-0.2-0.4-0.2c-0.2,0-0.3,0-0.4,0.1c-0.1,0.1-0.2,0.2-0.3,0.3L597.9,356.5
	"/>
<path class="st7" d="M600.9,352.4l1.4,2.2c0.1,0.1,0.2,0.4,0.4,0.6s0.2,0.4,0.2,0.4v-3.3h0.6v4.2h-0.6l-1.5-2.5
	c-0.1-0.2-0.2-0.4-0.4-0.6c-0.1-0.2-0.2-0.4-0.2-0.4v3.5h-0.6v-4.2H600.9"/>
<path class="st5" d="M617.1,343.6h2.5v0.5h-2v1.3h1.7v0.5h-1.7v2h-0.6V343.6"/>
</svg>
